<?xml version="1.0" standalone="no"?>
<!DOCTYPE svg PUBLIC "-//W3C//DTD SVG 1.1//EN" "http://www.w3.org/Graphics/SVG/1.1/DTD/svg11.dtd" >
<svg xmlns="http://www.w3.org/2000/svg">
<metadata>Generated by IcoMoon</metadata>
<defs>
<font id="if" horiz-adv-x="1024">
<font-face units-per-em="1024" ascent="960" descent="-64" />
<missing-glyph horiz-adv-x="1024" />
<glyph unicode="&#x20;" horiz-adv-x="512" d="" />
<glyph unicode="&#xe600;" glyph-name="address" d="M243.456 133.472c70.448-56.336 162.656-86.288 273.296-86.288 107.92 0 206.288 34.528 294.112 103.504l-40.864 60c-73.168-54.624-161.024-82.752-253.248-82.752-193.312 0-317.792 114.32-317.792 293.216 0 113.44 49.68 214.064 137.6 279.44 58.24 42.56 129.648 64.224 214.080 64.224 166.16 0 274.928-101.008 274.928-239.904 0-114.336-69.6-213.088-146.256-213.088-18.16 0-26.944 7.84-26.944 25.056 0 4.496 0.976 6.32 1.696 11.84l65.44 265.376h-88.016l-21.68-35.632c-21.68 36.288-53.856 59.712-97.472 59.712-115.648 0-208.784-106.16-208.784-251.472 0-100.784 48.688-152.464 140.912-152.464 54.864 0 93.072 20.752 125.312 69.776 2.608-47.184 33.92-70.816 93.968-70.816 50.464 0 100.016 17.216 140.080 50.944 70.576 58.976 108.864 143.248 108.992 242.288 0 101.744-38.224 180.816-114.8 243.376-60.112 49.024-147.136 79.008-246.272 79.008-146.336 0-268.096-58.16-351.808-165.216-58.336-74.4-88.72-165.28-88.72-265.152-0.016-119.856 43.504-213.36 132.24-284.976zM563.632 403.68c-13.952-59.808-53.92-96.064-100.096-96.064-35.664 0-56.656 27.248-56.656 77.184 0 99.008 53.2 180.624 110.608 180.624 38.336 0 62.72-23.632 67.872-69.024l-21.728-92.72z" />
<glyph unicode="&#xe601;" glyph-name="alarm" d="M75.984 672.944c-51.52 49.952-52.768 132.176-2.8 183.648 49.952 51.472 132.16 52.688 183.648 2.752l-180.848-186.4zM948.080 672.912c51.456 49.952 52.688 132.176 2.736 183.648-49.936 51.472-132.128 52.752-183.6 2.8l180.864-186.448zM541.552 429.328c0-55.68-83.568-55.68-83.568 0 0 55.664 83.568 55.664 83.568 0zM475.008 640h49.504v-210.656h-49.504v210.656zM591.456 275.941l-110.923 137.973 38.571 31.009 110.923-137.973-38.571-31.009zM527.568 78.256v61.904h-51.904v-61.904c-155.712 12.56-308.816 165.696-321.376 321.392h61.888v51.888h-61.888c12.56 176.48 165.664 329.584 321.376 342.208v-93.056h51.904v93.056c176.496-12.576 329.6-165.712 342.16-342.208h-93.056v-51.888h93.056c-12.576-155.728-165.728-308.832-342.16-321.392zM512 871.936c-240.784 0-435.968-195.184-435.968-435.968 0-240.832 195.184-435.968 435.968-435.968s435.968 195.184 435.968 435.968-195.184 435.968-435.968 435.968z" />
<glyph unicode="&#xe602;" glyph-name="anchor" d="M511.984 827.504c30.64-0.080 55.456-24.944 55.52-55.536-0.064-30.64-24.88-55.424-55.52-55.504-30.64 0.080-55.44 24.864-55.488 55.504 0.048 30.592 24.848 55.392 55.488 55.536zM963.232 302.992l-69.504 239.312c-0.672 1.328-1.856 2.304-3.344 2.608-1.488 0.4-2.96 0.112-4.208-0.752l-172.544-179.232c-1.6-1.184-2.384-3.12-2-5.056 0.4-1.888 1.808-3.44 3.744-3.936l66.272-16.464c-12.016-121.008-99.36-219.616-214.48-248.528v539.504c56.624 22.064 96.816 77.008 96.816 141.472-0.064 83.984-68.048 151.968-151.984 152.032-83.92-0.064-151.904-68.048-151.968-152.032 0-64.448 40.176-119.408 96.832-141.472v-539.456c-115.152 28.88-202.544 127.456-214.528 248.448l66.288 16.464c1.936 0.496 3.408 2.048 3.808 3.936 0.336 1.936-0.4 3.92-2.048 5.056l-172.608 179.248c-1.248 0.896-2.72 1.184-4.192 0.72-1.472-0.336-2.672-1.296-3.344-2.592l-69.456-239.28c-0.912-1.744-0.688-3.904 0.56-5.376 1.248-1.584 3.248-2.272 5.168-1.744l67.984 16.864c25.6-184.384 178.128-328.032 366.592-339.824v-0.864c3.632 0.080 7.248 0.288 10.896 0.352 3.648-0.080 7.264-0.352 10.896-0.352v0.864c188.464 11.792 341.008 155.44 366.608 339.824l67.984-16.864c1.936-0.464 3.904 0.208 5.152 1.744s1.488 3.632 0.608 5.376z" />
<glyph unicode="&#xe603;" glyph-name="anounce" d="M917.776 815.84c0 0-136.112-137.088-436.896-201.184v-295.808c301.76-64.128 436.896-203.168 436.896-203.168v700.16zM197.888 405.568h-46.32v119.376h46.336v-119.376zM184.080 582.096h-77.856v-230.752h76.944c5.904 0 11.808 0 17.776 0v-224.88l136.096-46.32v264.32c41.408-3.968 80.864-8.912 102.576-15.776v277.088c-63.248-14.784-153.952-23.68-255.536-23.68z" />
<glyph unicode="&#xe604;" glyph-name="arrow-down" d="M872.16 549.808l-294.832-294.832v647.456h-130.656v-658.752l-300.48 300.48-92.4-92.384 458.208-458.208 458.208 458.208z" />
<glyph unicode="&#xe605;" glyph-name="arrow-left" d="M966.432 513.328h-647.44l294.816 294.832-98.032 98.048-458.208-458.208 458.208-458.208 92.384 92.4-300.496 300.48h658.768z" />
<glyph unicode="&#xe606;" glyph-name="arrow-right" d="M508.224 906.208l-98.032-98.048 294.816-294.832h-647.44v-130.656h658.768l-300.496-300.48 92.384-92.4 458.208 458.208z" />
<glyph unicode="&#xe607;" glyph-name="arrow-up" d="M970.208 444.224l-458.208 458.208-458.208-458.208 92.4-92.384 300.48 300.496v-658.768h130.656v647.44l294.832-294.816z" />
<glyph unicode="&#xe608;" glyph-name="bell" d="M841.12 277.424c0 0-53.12 3.44-53.12 58.32v164.56c0 151.44-123.632 276.88-275.12 276.88-151.44-0.064-275.12-127.744-275.12-271.744h-1.76v-169.68c0 0 1.68-58.32-53.12-58.32h-54.88v-108h768v108h-54.88zM566.88 829.424c0-73.12-109.744-73.12-109.744 0s109.744 73.12 109.744 0zM512 11.728c60.624 0 109.68 49.68 109.68 109.68h-219.36c0-59.984 49.056-109.68 109.68-109.68z" />
<glyph unicode="&#xe609;" glyph-name="box" d="M906.528 216.8v442.032l-382.752-221.008v-442.048zM512 900.224l-382.752-221.024 153.776-88.784 382.768 220.992zM722.736 778.56l-382.784-221.024 172.048-99.328 382.768 220.992zM324.944 414.096l-3.808 8.576-3.792-5.008-2.848 8.288-5.008-4.384-2.4 8.32-5.184-3.552-2.944 8.576-4.496-4.384-2.992 9.408-4.272-5.744-2.096 9.040-4.784-5.984-2.944 8.992-3.408-5.44-1.84 7.36v121.392l-154.64 89.28-0.016-442.032 382.752-221.024 0.016 442.048-172.496 99.6v-118.048z" />
<glyph unicode="&#xe60a;" glyph-name="branch" d="M583.424 617.088l3.728-70.704c-7.952-1.776-15.744-3.872-23.408-6.288-22.080-6.992-43.2-16.56-62.528-28.56-19.376-11.984-36.912-26.384-51.808-42.464-14.928-16.064-27.216-33.696-36.896-51.904-1.152-2.24-2.336-4.448-3.424-6.672 7.664 83.216 14.752 166.4 21.824 249.52h91.456l-167.264 214.096-167.312-214.064h91.696c15.952-104.512 31.872-208.976 46.592-313.392 7.632-53.92 14.752-107.888 21.44-162.048l19.52-162.704 19.072 162.928c1.712 15.072 3.312 30.192 4.96 45.28 6.832 22.896 15.072 44.992 25.216 65.68 14.864 30.448 34.048 57.712 56.784 77.68 22.688 20.096 48.448 32.336 74.576 37.104 13.008 2.432 26.208 3.088 39.088 2.208 2.496-0.144 4.976-0.464 7.424-0.72l3.856-73.84 238.176 151.888-252.768 126.976z" />
<glyph unicode="&#xe60b;" glyph-name="bulb" d="M545.744 758.992c-174.656 25.2-204.656-163.392-205.808-171.504-1.376-9.344-9.408-16.064-18.624-16.064-0.848 0-1.744 0.080-2.72 0.224-10.288 1.472-17.376 10.992-15.904 21.28 0.336 2.368 8.816 58.592 42.88 111.776 32.464 50.656 94.432 107.76 205.536 91.52 10.288-1.456 17.376-11.008 15.936-21.296-1.504-10.304-11.072-17.52-21.296-15.936zM512 894.4c-162.784 0-295.152-132.368-295.152-295.136 0-100.336 50.32-192.64 134.72-247.472v-26.352h320.88v26.352c84.368 54.784 134.72 147.12 134.72 247.472-0.016 162.768-132.416 295.136-295.168 295.136zM351.568 138.112c0-31.936 26.032-57.888 57.936-57.888h14.096c0.192-40.56 39.744-73.488 88.4-73.488 48.624 0 88.256 32.928 88.4 73.424h14.128c31.936 0 57.904 25.952 57.904 57.888v9.024h-320.8v-8.976h-0.064zM351.568 273.296v-35.6l320.864 37.472v35.6zM351.568 164.24l320.864 37.472v35.568l-320.864-37.472z" />
<glyph unicode="&#xe60c;" glyph-name="calendar" d="M293.28 721.408v109.344c0 30.224 24.464 54.688 54.688 54.688 30.192 0 54.656-24.464 54.656-54.688v-109.344c0-30.224-24.464-54.688-54.656-54.688-30.224 0-54.688 24.464-54.688 54.688zM785.408 338.624h-109.376v109.376h109.376v-109.376zM676.032 119.904v109.376h109.376l-109.376-109.376zM566.688 338.4h-109.376v109.376h109.376v-109.376zM566.688 119.904h-109.376v109.376h109.376v-109.376zM347.968 338.624h-109.376v109.376h109.376v-109.376zM347.968 119.904h-109.376v109.376h109.376v-109.376zM785.408 776.096v-55.968c0-60.464-48.912-109.344-109.376-109.344s-109.344 48.88-109.344 109.344v55.968h-109.376v-55.968c0-60.464-48.88-109.344-109.344-109.344s-109.376 48.88-109.376 109.344v55.968h-164.032v-765.536h874.88v765.536h-164.032zM621.376 721.408v109.344c0 30.224 24.464 54.688 54.656 54.688 30.224 0 54.688-24.464 54.688-54.688v-109.344c0-30.224-24.464-54.688-54.688-54.688-30.192 0-54.656 24.464-54.656 54.688z" />
<glyph unicode="&#xe60d;" glyph-name="category" d="M167.904 792.928l20.256-307.248 381.664-382.592 286.288 286.96-381.744 382.576-306.464 20.304zM358.752 601.6c-22.16-22.208-58.784-22.208-81.936 0-22.16 22.272-22.16 58.992 0 82.176 22.192 23.168 58.816 22.208 81.936 0 22.16-22.24 22.16-58.96 0-82.176z" />
<glyph unicode="&#xe60e;" glyph-name="checklist" d="M555.488 813.424h92.976c18.496 0 33.904-13.312 37.248-30.96h131.888c15.712 0 28.432-12.784 28.432-28.592v-683.424c0-15.776-12.72-28.592-28.432-28.592h-611.216c-15.696 0-28.432 12.816-28.432 28.592v683.424c0 15.792 12.72 28.592 28.432 28.592h131.904c3.328 17.648 18.752 30.96 37.248 30.96h92.976c1.6 22.768 20.464 40.72 43.488 40.72s41.888-17.952 43.488-40.72v0 0zM337.632 733.104h-121.76v-641.872h592.272v641.872h-121.76v-20.96h-348.752v20.96zM304.288 565.584c0-32.64 26.384-59.088 58.96-59.088s58.96 26.448 58.96 59.088c0 5.264-4.24 9.536-9.472 9.536s-9.472-4.272-9.472-9.536c0-22.096-17.92-40.016-40.016-40.016s-40 17.92-40 40.016 17.904 40.032 40 40.032c5.232 0 9.472 4.288 9.472 9.52 0 5.28-4.24 9.552-9.472 9.552-32.576-0.016-58.96-26.448-58.96-59.104v0zM304.288 399.456c0-32.64 26.384-59.088 58.96-59.088s58.96 26.448 58.96 59.088c0 5.264-4.24 9.536-9.472 9.536s-9.472-4.272-9.472-9.536c0-22.096-17.92-40.016-40.016-40.016s-40 17.92-40 40.016 17.904 40.032 40 40.032c5.232 0 9.472 4.256 9.472 9.52 0 5.28-4.24 9.552-9.472 9.552-32.576-0.016-58.96-26.464-58.96-59.104v0zM422.192 243.104c0 32.64-26.384 59.088-58.96 59.088s-58.96-26.448-58.96-59.088 26.384-59.072 58.96-59.072 58.96 26.432 58.96 59.072v0zM323.232 243.104c0 22.080 17.904 40.032 40 40.032s40.016-17.952 40.016-40.032c0-22.096-17.92-40.032-40.016-40.032s-40 17.936-40 40.032v0zM685.584 550.848c10.48 0 18.96 8.56 18.96 19.072 0 10.528-8.48 19.056-18.96 19.056h-208.72c-10.448 0-18.944-8.528-18.944-19.056 0-10.512 8.48-19.072 18.944-19.072h208.72zM685.584 385.008c10.48 0 18.96 8.512 18.96 19.056 0 10.512-8.48 19.040-18.96 19.040h-208.72c-10.448 0-18.944-8.528-18.944-19.040 0-10.544 8.48-19.056 18.944-19.056h208.72zM685.584 229.648c10.48 0 18.96 8.528 18.96 19.056s-8.48 19.056-18.96 19.056h-208.72c-10.448 0-18.944-8.528-18.944-19.056s8.48-19.056 18.944-19.056h208.72zM361.088 551.92l7.472-7.168 6.448 8.128 52.48 66.048c3.28 4.112 2.608 10.128-1.488 13.408s-10.064 2.624-13.328-1.488l-45.984-57.968-12.176 11.664c-3.792 3.632-9.776 3.488-13.392-0.336s-3.456-9.84 0.336-13.472l19.632-18.816zM361.088 386.144l7.472-7.152 6.448 8.128 52.48 66.064c3.28 4.112 2.608 10.096-1.488 13.392-4.096 3.28-10.064 2.608-13.328-1.504l-45.984-57.968-12.176 11.664c-3.792 3.648-9.776 3.504-13.392-0.32s-3.456-9.84 0.336-13.472l19.632-18.832z" />
<glyph unicode="&#xe60f;" glyph-name="clock" d="M541.552 441.36c0-55.68-83.568-55.68-83.568 0 0 55.664 83.568 55.664 83.568 0zM475.008 652.032h49.504v-210.656h-49.504v210.656zM591.456 287.971l-110.923 137.973 38.571 31.009 110.923-137.973-38.571-31.009zM527.568 90.288v61.904h-51.904v-61.904c-155.712 12.56-308.816 165.696-321.376 321.392h61.888v51.888h-61.888c12.56 176.48 165.664 329.584 321.376 342.208v-93.056h51.904v93.040c176.496-12.576 329.6-165.712 342.16-342.208h-93.056v-51.888h93.056c-12.576-155.712-165.728-308.816-342.16-321.376zM512 883.968c-240.784 0-435.968-195.184-435.968-435.968 0-240.832 195.184-435.968 435.968-435.968s435.968 195.184 435.968 435.968-195.184 435.968-435.968 435.968z" />
<glyph unicode="&#xe610;" glyph-name="company" d="M841.728 548.368l-659.408-0.048c-3.792 0-6.688 3.008-6.688 7.008v57.92c0 22.976 17.056 40.96 38.8 40.96h104.064c3.84 0 6.688 3.008 6.688 7.008v103.856c0 10.96 8.48 19.952 18.864 19.952h335.952c10.4 0 18.912-9.008 18.912-19.952v-103.84c0-3.984 2.816-7.008 6.624-7.008h104.064c21.744 0 38.784-17.952 38.784-40.928v-57.92c-0.016-4.016-2.832-7.008-6.656-7.008zM658.208 732.112c0 5.984-4.768 11.984-11.392 11.984h-272.512c-5.648 0-11.296-4.992-11.296-11.984h0.912v-70.896c0-4 2.848-7.008 6.64-7.008h280.96c3.792 0 6.688 3.008 6.688 7.008v70.896zM182.256 483.52c-3.808 0-6.624-3.008-6.64-7.008v-324.608c0-22.96 17.024-40.944 38.768-40.944h594.208c21.76 0 38.8 17.984 38.8 40.944v325.536c0 4.016-2.848 7.008-6.656 7.008h-92.672c-3.824-1.024-6.64-4-6.64-7.008v-15.984c0-16.016-10.384-30.992-25.568-34.944-20.784-4.016-39.696 11.984-39.696 33.952v16c0 4-2.88 7.008-6.64 7.008h-316.944c-3.808 0-6.64-3.008-6.64-7.008v-13.952c0-18.976-13.264-34.96-31.264-35.984-18.864-1.008-34.032 14.976-34.032 33.984v16c0 4-2.832 7.008-6.624 7.008h-91.76z" />
<glyph unicode="&#xe611;" glyph-name="contact" d="M820.752 730.288v-167.6h88.224v167.6h-88.224zM820.752 359.776h88.224v141.152h-88.224v-141.152zM820.752 306.848h88.224v-141.12h-88.224v141.12zM579.216 378.496c-17.008-14.32-38.032-21.632-59.456-21.632-25.504 0-38.784 10.032-39.888 30.064-13.68-20.816-29.904-29.632-53.184-29.632-39.152 0-59.824 21.936-59.824 64.72 0 61.68 39.552 106.752 88.624 106.752 18.512 0 32.176-9.936 41.392-25.344l9.184 15.12h37.376l-27.776-112.656c-0.32-2.336-0.72-3.12-0.72-5.024 0-7.312 3.712-10.624 11.44-10.624 32.528 0 62.080 41.904 62.080 90.432 0 58.976-46.176 101.84-116.704 101.84-35.84 0-66.16-9.184-90.88-27.248-37.312-27.744-58.4-70.464-58.4-118.624 0-75.936 52.848-124.464 134.912-124.464 39.136 0 76.432 11.936 107.504 35.12l17.344-25.472c-37.28-29.28-79.024-43.936-124.848-43.936-46.976 0-86.112 12.72-116.016 36.624-37.664 30.4-56.144 70.096-56.144 120.976 0 42.4 12.896 80.976 37.664 112.56 35.536 45.44 87.216 70.128 149.344 70.128 42.080 0 79.008-12.72 104.528-33.536 32.512-26.56 48.736-60.128 48.736-103.312-0.064-42.016-16.32-77.792-46.288-102.832zM711.504 844.976h-512.416c-46.432 0-84.064-35.936-84.064-80.256v-633.44c0-44.32 37.632-80.256 84.064-80.256h512.4c46.4 0 82.784 35.936 82.784 80.256v633.44c0.016 44.304-36.368 80.256-82.768 80.256zM457.68 497.904c-24.368 0-46.96-34.656-46.96-76.688 0-21.184 8.912-32.752 24.048-32.752 19.6 0 36.56 15.376 42.48 40.784l9.232 39.344c-2.176 19.28-12.528 29.312-28.8 29.312z" />
<glyph unicode="&#xe612;" glyph-name="cross" d="M839.312 673.664l-101.648 101.648-225.664-225.632-225.632 225.632-101.68-101.648 225.648-225.6-225.648-225.728 101.68-101.648 225.632 225.712 225.664-225.712 101.648 101.648-225.664 225.728z" />
<glyph unicode="&#xe613;" glyph-name="csv" d="M577.12 626.624v121.28h-130.24v-130.656h63.968v-7.024c0-47.024-21.344-72.784-63.968-77.216v-60.064c40.816 0 72.72 10.096 95.744 30.256 23.008 20.112 34.496 61.264 34.496 123.424zM114.528 934.224v-963.008h794.944v963.008h-794.944zM373.936 55.184c-11.472-2.288-23.216-3.44-35.264-3.44-14.592 0-28.416 2.256-41.504 6.784-13.088 4.496-24.608 11.808-34.56 21.872-9.968 10.096-17.888 23.152-23.792 39.248s-8.864 35.632-8.864 58.528c0 23.84 3.296 43.808 9.888 59.936 6.608 16.096 15.168 29.056 25.696 38.912 10.544 9.808 22.304 16.88 35.264 21.184 12.976 4.288 25.936 6.4 38.912 6.4 13.888 0 25.648-0.912 35.248-2.784 9.616-1.84 17.552-4.032 23.792-6.592l-9.376-40.288c-5.328 2.528-11.648 4.368-18.944 5.568-7.296 1.152-16.144 1.712-26.56 1.712-19.232 0-34.688-6.848-46.368-20.528-11.696-13.68-17.552-34.944-17.552-63.68 0-12.528 1.392-23.968 4.176-34.32 2.784-10.32 7.008-19.12 12.672-26.432s12.736-13.008 21.184-17.056 18.256-6.096 29.36-6.096c10.416 0 19.216 1.056 26.384 3.12 7.184 2.096 13.44 4.752 18.768 8l9.712-38.688c-7.376-5.264-16.816-9.040-28.272-11.36zM577.824 93.632c-4.288-9.408-10.32-17.216-18.064-23.472-7.76-6.256-17.136-10.88-28.144-13.872-11.008-3.024-23.088-4.528-36.304-4.528-17.36 0-32.656 1.632-45.84 4.88-13.2 3.216-22.944 6.464-29.184 9.712l15.28 40.656c2.544-1.408 5.856-2.912 9.904-4.528s8.624-3.12 13.712-4.496c5.088-1.408 10.48-2.56 16.16-3.504 5.664-0.912 11.52-1.376 17.552-1.376 14.112 0 24.944 2.368 32.464 7.12s11.296 11.968 11.296 21.68c0 7.44-2.736 13.44-8.176 18.064-5.44 4.656-12.272 8.88-20.48 12.688-8.24 3.808-17.136 7.744-26.752 11.808s-18.528 9.024-26.752 14.944-15.056 13.248-20.496 22.064c-5.44 8.784-8.16 20.032-8.16 33.68 0 11.808 1.968 22.064 5.904 30.752s9.552 15.904 16.848 21.712c7.296 5.776 15.92 10.064 25.872 12.848s21.072 4.16 33.344 4.16c14.128 0 27.456-1.216 39.952-3.632 12.496-2.432 22.816-5.968 30.928-10.592l-14.944-39.968c-5.088 3.248-12.752 6.192-22.944 8.88-10.192 2.656-21.184 4-33.008 4-11.104 0-19.632-2.224-25.536-6.624-5.888-4.4-8.848-10.32-8.848-17.712 0-6.944 2.72-12.72 8.16-17.344 5.44-4.656 12.272-8.944 20.496-12.88s17.12-7.968 26.736-12.16c9.616-4.16 18.528-9.184 26.752-15.088s15.040-13.216 20.496-21.872c5.44-8.688 8.16-19.536 8.16-32.496s-2.096-24.144-6.384-33.504zM716.944 54.88h-34.048l-91.008 244.912h55.232l48.624-142.784 6.256-41.344h1.728l6.96 41.68 46.544 142.432h50.016l-90.304-244.896zM834.224 392.688h-644.448v475.68h644.432v-475.68z" />
<glyph unicode="&#xe614;" glyph-name="dashboard" d="M482.384 241.44c-28.512 0-51.792 24.288-51.792 54.144 0 29.808 23.216 54.16 51.792 54.16 28.512 0 51.808-24.288 51.808-54.16s-23.232-54.144-51.808-54.144zM414.784 368.48l-3.2-3.344c-17.936-18.752-28.512-45.28-28.512-72.896 0-57.424 45.456-104.96 100.4-104.96 27.472 0 51.808 11.040 69.744 29.808l3.184 4.416 325.52 487.2-467.136-340.224zM821.696 584.992l-68.704-102.768c70.784-68.464 115.216-165.696 115.216-272.848h118.352c0.016 150.256-64.448 283.904-164.864 375.616zM512 705.424c-262.144 0-474.576-222.048-474.576-496.032h118.352c0.064 204.368 159.648 371.168 356.224 371.168 46.512 0 89.84-8.864 131.072-26.512l110.976 81.744c-70.848 44.192-153.264 69.632-242.048 69.632z" />
<glyph unicode="&#xe615;" glyph-name="data" d="M217.568 751.776c1.968 1.68 4.944 3.408 8.88 5.104 2.976 1.696 5.904 2.576 9.84 4.272 2.992 1.68 6.88 2.576 11.776 4.256 27.616 8.544 109.312 29.872 263.936 29.872 148.688 0 229.456-19.648 257.968-27.296 29.552-8.544 38.4-16.224 38.4-17.904 0 0-0.976-0.848-2.976-2.576-0.976-0.848-2.976-1.696-3.936-2.592l-0.976-0.832c-1.968-0.848-3.968-1.696-6.896-3.424l-1.952-0.848c-1.936-0.848-4.912-1.696-7.888-2.576l-2.992-0.864c-2.976-0.832-5.888-1.68-9.84-3.424l-2.976-0.848c-3.936-0.832-6.88-1.68-10.816-3.408l-4.944-0.832c-3.936-0.848-7.888-1.696-12.816-2.592l-5.904-0.848c-4.928-0.832-9.84-1.696-14.768-2.576-2.992-0.848-6.88-0.848-10.832-1.696l-9.84-1.696c-2.976-0.848-6.88-0.848-9.84-1.68h-1.936c-3.968-0.848-6.88-0.848-10.832-1.696s-7.904-0.848-12.832-1.696c-3.952-0.832-8.88-0.832-12.816-1.68-3.968 0-8.88-0.848-12.832-0.848-4.928-0.848-9.84-0.848-14.768-0.848-3.952 0-8.88-0.848-12.832-0.848-5.888 0-11.792-0.832-17.728-0.832l-12.832-0.848c-6.88 0-13.792-0.848-20.672-0.848h-10.816c-10.832 0-22.688 0-34.464 0-11.792 0-22.672 0-33.504 0h-10.816c-6.88 0-13.808 0-20.672 0.848l-12.832 0.848c-5.888 0-11.776 0.832-17.728 0.832-3.952 0-8.896 0.848-12.832 0.848-4.912 0-9.84 0.848-14.752 0.848-3.968 0-8.88 0.848-12.848 0.848-4.912 0.848-8.88 0.848-12.816 1.68-3.936 0.848-8.88 0.848-12.832 1.696s-6.88 0.848-10.816 1.696l-5.696-1.696c-2.976 0-5.888 0.848-8.88 0.848l-9.84 1.68c-3.952 0.848-7.872 0.848-10.832 1.696-4.928 0.848-9.84 1.696-14.768 2.576l-5.904 0.848c-4.912 0.864-8.864 1.696-12.816 2.592l-4.928 1.696c-3.952 0.848-7.888 1.68-10.816 3.408l-3.952 0.848c-2.976 0.832-5.904 1.68-8.88 2.592l-2.976 0.832c-2.992 0.848-4.944 1.68-7.904 3.408l-0.976 0.848c-1.936 0.848-4.928 1.696-6.88 3.424l-0.976 0.864c-1.968 0.848-2.976 1.68-4.944 3.408-0.976 0.848-1.936 1.696-1.936 1.696-1.824 0.912-0.832 1.76 1.104 3.44zM846.8 552.976c0.992 0 2.992 0.848 3.952 0.848v195.424c0 81.904-324.96 82.752-338.752 82.752s-338.752-0.848-338.752-82.752v-194.592c1.952 0 2.976-0.848 3.952-1.696 14.768-4.256 343.68-99.856 669.6 0.016zM847.744 337.904c0.976 0 1.936 0 2.976 0.848v176.656c-112.256-32.448-225.504-44.336-326.912-44.336-167.376 0-303.296 30.704-350.528 44.336v-179.2c61.040-17.888 374.144-98.96 674.464 1.696zM173.248 298.672v-151.92c0-81.904 324.96-82.752 338.752-82.752s338.752 0.848 338.752 82.752v152.768c-113.248-35.84-225.504-48.624-326.912-48.624-160.528 0-292.48 30.72-350.592 47.776z" />
<glyph unicode="&#xe616;" glyph-name="date" d="M293.28 721.408v109.344c0 30.224 24.464 54.688 54.688 54.688 30.192 0 54.656-24.464 54.656-54.688v-109.344c0-30.224-24.464-54.688-54.656-54.688-30.224 0-54.688 24.464-54.688 54.688zM859.968 82.624h-701.376v429.376h701.376v-429.376zM785.408 776.096v-55.968c0-60.464-48.912-109.344-109.376-109.344s-109.344 48.88-109.344 109.344v55.968h-109.376v-55.968c0-60.464-48.88-109.344-109.344-109.344s-109.376 48.88-109.376 109.344v55.968h-164.032v-765.536h874.88v765.536h-164.032zM621.376 721.408v109.344c0 30.224 24.464 54.688 54.656 54.688 30.224 0 54.688-24.464 54.688-54.688v-109.344c0-30.224-24.464-54.688-54.688-54.688-30.192 0-54.656 24.464-54.656 54.688zM285.792 196.288c9.6 22.816 32.272 46.976 67.984 72.448 31.008 22.192 51.056 38.096 60.192 47.68 14 14.96 21.008 31.312 21.008 49.088 0 14.48-4.016 26.512-12.048 36.128-8.016 9.6-19.52 14.384-34.448 14.384-20.464 0-34.384-7.632-41.776-22.896-4.256-8.816-6.768-22.832-7.568-42.016h-65.376c1.088 29.104 6.368 52.64 15.824 70.576 17.952 34.144 49.856 51.216 95.68 51.216 36.24 0 65.056-10.032 86.48-30.096s32.144-46.624 32.144-79.664c0-25.328-7.568-47.84-22.704-67.504-9.936-13.056-26.256-27.632-48.96-43.664l-26.976-19.12c-16.864-11.952-28.4-20.608-34.624-25.968-6.224-5.344-11.456-11.568-15.696-18.64h149.424v-59.248h-234.368c0.624 24.56 5.904 46.976 15.808 67.296zM549.504 276.064c8.672 15.584 21.376 27.296 38.112 35.168-16.576 11.008-27.36 22.928-32.336 35.744-4.976 12.832-7.456 24.832-7.456 36 0 24.864 9.376 46.064 28.144 63.632 18.768 17.552 45.264 26.32 79.504 26.32 34.224 0 60.72-8.768 79.488-26.32 18.768-17.568 28.16-38.768 28.16-63.632 0-11.168-2.48-23.168-7.44-36-4.976-12.832-15.696-23.952-32.224-33.392 16.912-9.456 29.648-21.952 38.176-37.536s12.816-32.976 12.816-52.176c0-28.8-10.672-53.312-32.016-73.536s-51.152-30.336-89.44-30.336-67.264 10.112-86.96 30.336-29.536 44.736-29.536 73.536c-0.016 19.216 4.32 36.608 13.008 52.192zM619.456 189.184c8.736-9.28 20.816-13.92 36.24-13.92s27.504 4.64 36.24 13.92 13.088 22.336 13.088 39.184c0 17.472-4.432 30.72-13.328 39.776-8.896 9.040-20.896 13.568-36 13.568s-27.104-4.512-36-13.568c-8.896-9.056-13.344-22.32-13.344-39.776-0.016-16.832 4.368-29.904 13.104-39.184zM623.728 344.992c7.664-7.872 18.272-11.792 31.824-11.792 13.728 0 24.336 3.92 31.84 11.792 7.488 7.856 11.232 18.016 11.232 30.448 0 13.536-3.744 24.112-11.232 31.744-7.504 7.632-18.112 11.44-31.84 11.44-13.568 0-24.176-3.808-31.824-11.44-7.664-7.648-11.488-18.224-11.488-31.744 0.016-12.448 3.84-22.592 11.488-30.448z" />
<glyph unicode="&#xe617;" glyph-name="dimension" d="M928.336 297.024l-183.152 105.76v-70.416h-348.816v348.816h70.384l-105.76 183.152-105.744-183.152h70.416v-369.52l-125.504-125.472-49.76 49.776-54.736-204.304 204.304 54.736-49.808 49.824 125.504 125.456h369.52v-70.4z" />
<glyph unicode="&#xe618;" glyph-name="document" d="M167.504 872v-848h689.008v582.992h-265.008v265.008h-424zM644.496 872v-212h212l-212 212zM273.504 660h212v-53.008h-212v53.008zM273.504 500.992h477.008v-52.992h-477.008v52.992zM273.504 342h371.008v-53.008h-371.008v53.008zM273.504 182.992h477.008v-53.008h-477.008v53.008z" />
<glyph unicode="&#xe619;" glyph-name="dollar" d="M651.6 355.84c-8.208 17.152-19.84 31.872-34.944 44.16s-33.552 22.528-55.296 30.72c-18.368 6.912-38.848 13.376-60.64 19.568v135.184c3.968-1.008 7.984-1.84 11.856-3.056 13.824-4.352 26.496-9.216 38.032-14.592 11.52-5.376 21.504-10.624 29.936-15.744 8.448-5.12 14.224-9.472 17.28-13.056l46.864 86.032c-21.52 14.32-46.464 27.248-74.896 38.784-21.616 8.752-44.656 14.896-69.072 18.464v83.872h-104.528v-87.136c-12.112-2.592-23.744-5.968-34.896-10.208-21.52-8.208-40.080-19.344-55.68-33.424-15.632-14.080-27.904-31.232-36.864-51.456-8.976-20.24-13.44-43.392-13.44-69.504 0-21.008 3.184-39.168 9.6-54.528 6.384-15.36 16-28.688 28.8-39.936 12.8-11.264 28.8-21.12 48-29.568 15.776-6.96 34.032-13.44 54.48-19.52v-135.552c-3.808 1.024-7.712 1.808-11.472 3.008-17.168 5.376-32.912 11.376-47.232 18.032-14.336 6.656-26.496 13.312-36.48 19.968s-17.024 12.032-21.12 16.144l-46.848-91.392c27.664-19.472 58.624-35.216 92.944-47.232 23.040-8.096 46.464-13.84 70.224-17.648v-93.152h104.528v90.032c16.56 1.872 32.576 4.88 47.968 9.248 22.512 6.384 42.352 16 59.52 28.8 17.136 12.8 30.72 29.168 40.704 49.136s14.976 44.032 14.976 72.208c-0.032 25.072-4.128 46.192-12.304 63.344zM382.8 491.776c-12.304 8.944-18.432 22.144-18.432 39.552 0 24.464 10.752 41.456 31.824 51.2v-98.784c-4.992 2.592-9.6 5.248-13.392 8.032zM500.72 229.216v109.232c11.216-4.864 20.928-9.92 28.768-15.248 14.336-9.728 21.504-23.552 21.504-41.488 0-28.080-16.928-45.456-50.272-52.496z" />
<glyph unicode="&#xe61a;" glyph-name="driver" d="M512 868.688c-231.84 0-420.688-188.848-420.688-420.688s188.848-420.688 420.688-420.688 420.688 188.848 420.688 420.688-188.848 420.688-420.688 420.688zM465.248 124.544c-143.024 20.56-256.16 133.664-276.72 276.72h191.664c14-39.28 45.808-71.056 85.056-85.072v-191.648zM558.752 124.544v191.648c39.248 14.016 71.024 45.792 85.056 85.072h191.664c-20.592-143.040-133.696-256.16-276.72-276.72zM643.808 494.736c-19.632 54.24-71.056 93.504-131.808 93.504-60.784 0-113.12-39.264-131.808-93.504h-191.664c22.448 158 158.944 280.464 323.472 280.464s301.024-122.464 323.472-280.464h-191.664z" />
<glyph unicode="&#xe61b;" glyph-name="filter" d="M131.92 865.568l326.624-433.104v-402.032l109.248 72.256v329.776l324.288 433.104z" />
<glyph unicode="&#xe61c;" glyph-name="grid" d="M163.152 796.848h298.32v-298.24h-298.32v298.24zM163.152 397.408h298.32v-298.256h-298.32v298.256zM562.528 397.408h298.32v-298.256h-298.32v298.256zM562.528 796.848h298.32v-298.24h-298.32v298.24z" />
<glyph unicode="&#xe61d;" glyph-name="hand-dislike" d="M860.256 599.936c0-83.952-46.56-157.024-115.232-194.88-102.816-79.328-218.784-209.328-192.784-318.912 8.416-35.536-15.584-63.344-49.136-59.008-40.416 5.136-68.192 55.008-69.904 106.768-1.952 60.256 7.536 121.088 24.768 175.024 1.92 14.944-0.56 30.24-18.592 31.792-24.256 2.080-55.36 3.648-79.472 4.624-12.928 0.176-25.408 0.656-37.44 1.344-0.24 0-0.4 0-0.4 0-20.64 1.2-39.744 3.072-56.544 5.568-35.056 5.152-67.344 28.096-71.248 62.976-3.856 34.896 22.096 58.576 57.296 63.36 2.608 0.352 5.312 0.704 8.064 1.008-8.48 0.864-16.624 1.872-24.288 3.024-35.056 5.152-67.328 28.096-71.2 62.976-3.824 34.896 21.824 61.36 57.264 63.36 12.384 0.72 25.968 1.568 40.576 2.8-1.136 0.176-2.352 0.352-3.456 0.512-35.008 5.84-66.848 29.312-70.064 64.288-3.232 34.928 23.12 58.656 58.336 62.24 12.64 1.36 25.776 2.48 39.456 3.696-23.424 8.816-41.744 25.472-43.408 56.048-1.856 35.072 39.408 62 74.704 65.792 13.408 1.376 25.376 2.464 36.224 3.248l-0.064 0.064c1.456 0.080 2.992 0.128 4.448 0.256 11.328 0.736 21.472 1.088 30.832 1.136 128.688 2.944 242.832-18.064 325.312-60.464 85.12-31.216 145.952-112.72 145.952-208.64z" />
<glyph unicode="&#xe61e;" glyph-name="hand-down" d="M828.464 582.784v-142.608c0.048-31.776-25.696-57.552-57.504-57.552-31.76 0-57.536 25.76-57.536 57.552v-71.52c0-31.776-25.744-57.536-57.552-57.536-31.76 0-57.52 25.744-57.52 57.536v-71.456c0-31.792-25.792-57.552-57.568-57.552-31.792 0-57.552 25.744-57.552 57.552v-221.504c0-31.776-25.76-57.552-57.536-57.552-31.792 0-57.552 25.76-57.552 57.552v363.744c-91.344-99.376-173.92-66.16-173.92-30l85.92 249.664c32.736 117.904 140.784 204.464 269.104 204.464 154.288 0 279.296-125.072 279.296-279.36 0-0.496-0.080-0.944-0.080-1.424z" />
<glyph unicode="&#xe61f;" glyph-name="hand-fist" d="M412.688 506.064c30.512 0 55.296 24.784 55.296 55.344v181.568c0 30.496-24.784 55.28-55.296 55.28-30.496 0-55.344-24.784-55.344-55.28v-181.6c0-30.56 24.848-55.312 55.344-55.312zM614.896 360.56c-56.72 0-102.784 46.096-102.784 102.816 0 8.224 1.056 16.128 2.912 23.776-13.664 6.496-25.248 16.656-33.504 29.184-14.72-22.432-40.032-37.28-68.784-37.28-28.8 0-54.128 14.848-68.848 37.28-14.72-22.432-40.064-37.28-68.816-37.28-21.024 0-40.16 7.968-54.72 20.976v-104.624c0 0-1.184-10.528-0.496-26.816-0.064-2.464-0.224-4.944-0.224-7.44 0-145.504 117.936-263.408 263.408-263.408 139.44 0 253.568 108.32 262.816 245.408 0.4 5.936 0.592 17.808 0.592 17.808l-23.856-0.4h-107.696zM275.072 506.064c30.448 0 55.28 24.784 55.28 55.344v122.56c0 30.496-24.784 55.344-55.28 55.344-30.512 0-55.312-24.848-55.312-55.344v-122.592c0-30.56 24.8-55.312 55.312-55.312zM524.576 512.432c16.032 29.376 46.032 50.096 81.008 53.216v177.328c0.032 30.496-24.816 55.28-55.312 55.28s-55.28-24.784-55.28-55.28v-181.568c0-21.216 12.016-39.728 29.584-48.976zM743.2 564.976v178c0.032 30.496-24.816 55.28-55.312 55.28s-55.312-24.784-55.312-55.28v-176.816h95.984c4.992 0 9.856-0.48 14.64-1.184zM728.56 539.152h-113.664c-41.776 0-75.76-34.032-75.76-75.808s33.984-75.776 75.76-75.776h113.712c41.776 0 75.744 34 75.744 75.776s-33.968 75.808-75.792 75.808z" />
<glyph unicode="&#xe620;" glyph-name="hand-left" d="M604.048 130.944h-142.608c-31.776-0.048-57.552 25.712-57.552 57.52 0 31.76 25.76 57.52 57.552 57.52h-71.52c-31.776 0-57.52 25.744-57.52 57.568 0 31.76 25.728 57.504 57.52 57.504h-71.456c-31.792 0-57.552 25.744-57.552 57.552 0 31.824 25.744 57.536 57.552 57.536h-221.472c-31.776 0-57.568 25.776-57.568 57.552 0 31.792 25.776 57.568 57.568 57.568h363.712c-99.376 91.392-66.16 173.984-29.984 173.984l249.664-85.936c117.904-32.752 204.464-140.8 204.464-269.104 0-154.288-125.088-279.344-279.36-279.344-0.496-0.048-0.96 0.032-1.44 0.080z" />
<glyph unicode="&#xe621;" glyph-name="hand-like" d="M860.24 296.064c0 83.968-46.528 157.024-115.216 194.88-102.816 79.328-218.784 209.328-192.784 318.896 8.432 35.568-15.6 63.36-49.136 59.024-40.416-5.152-68.176-55.008-69.888-106.768-1.968-60.272 7.52-121.104 24.752-175.040 1.936-14.912-0.56-30.24-18.592-31.792-24.256-2.064-55.36-3.632-79.456-4.624-12.928-0.176-25.424-0.656-37.456-1.312-0.224 0-0.4 0-0.4 0-20.64-1.216-39.744-3.088-56.528-5.6-35.072-5.136-67.36-28.096-71.248-62.976-3.872-34.896 22.096-58.56 57.28-63.344 2.624-0.368 5.312-0.72 8.064-1.024-8.464-0.848-16.608-1.872-24.288-3.024-35.056-5.152-67.312-28.096-71.184-62.976-3.84-34.896 21.808-61.344 57.248-63.344 12.4-0.736 25.968-1.568 40.592-2.8-1.152-0.192-2.368-0.368-3.472-0.528-35.008-5.84-66.848-29.312-70.064-64.272-3.232-34.944 23.12-58.672 58.336-62.256 12.64-1.36 25.792-2.48 39.456-3.696-23.424-8.816-41.728-25.472-43.392-56.048-1.872-35.056 39.376-62 74.688-65.776 13.408-1.376 25.376-2.464 36.224-3.264l-0.064-0.064c1.472-0.064 3.008-0.128 4.432-0.224 11.344-0.752 21.488-1.104 30.848-1.168 128.672-2.944 242.832 18.080 325.328 60.464 85.104 31.232 145.92 112.768 145.92 208.656z" />
<glyph unicode="&#xe622;" glyph-name="hand-pick" d="M959.856 235.728l7.392 540.432-731.744 4.128c0 0-40.976-14.832-39.28-43.456 1.888-31.936 29.072-44.448 29.072-44.448l196.512-31.856-344.832-61.296c0 0-44.128-20.72-35.696-66.192 7.104-38.4 51.36-41.328 51.36-41.328l299.152 43.696-335.12-230.624c0 0-35.616-47.936-3.616-76.576 25.088-22.448 63.072-14.32 63.072-14.32l258.72 169.888c0 0-8.784-82.992-5.168-110.096 5.12-38.368 35.968-103.792 59.76-134.336 23.952-30.736 115.392-104.816 115.392-104.816s45.488-23.584 77.488 1.664c12.256 9.664 17.968 59.84 17.968 59.84s-96.448 71.28-117.136 104.672c-14.336 23.136-28.832 104.976-28.832 104.976s10.208 135.936 131.136 128.4c87.792-5.472 108.144-86.016 108.144-86.016s31.552-93.648 19.584-127.92c-12.88-36.896-112.896-124.112-112.896-124.112s6.096-45.472 14.032-58.16c6.608-10.56 45.216-29.92 62.32-28.624 27.824 2.112 79.136 31.216 99.792 49.984 42.080 38.256 143.424 176.496 143.424 176.496z" />
<glyph unicode="&#xe623;" glyph-name="hand-receive" d="M675.008 467.408l209.68 87.248c31.216 17.568 60.624 11.472 78.064-19.888 15.296-27.568 4.704-53.952-22.624-67.632l-263.44-142.448c-13.664-7.792-27.312-9.744-42.944-7.792l-279.040 27.312c-25.36 1.952-50.736-1.936-74.16-13.664l-223.856-104.944-2.48 311.808 212.704 117.072c25.36 13.664 56.592 19.52 85.856 13.664l267.344-48.784c25.376-3.904 42.944-29.264 37.072-54.64v0c-5.856-23.424-29.264-40.992-52.688-35.12 0 0-128.432 22.512-165.184 3.648-15.504-7.984 12.256-32.144 36.736-39.792l156.128-30.608c11.696-1.968 33.088-1.28 42.832 4.56z" />
<glyph unicode="&#xe624;" glyph-name="hand-right" d="M344.608 157.152h142.608c31.76-0.048 57.552 25.712 57.552 57.52 0 31.76-25.776 57.52-57.552 57.52h71.488c31.792 0 57.552 25.744 57.552 57.568 0 31.76-25.744 57.504-57.552 57.504h71.488c31.744 0 57.536 25.744 57.536 57.552 0 31.824-25.776 57.536-57.536 57.536h221.472c31.792 0 57.552 25.776 57.552 57.552 0 31.792-25.744 57.568-57.552 57.568h-363.728c99.392 91.392 66.144 173.984 30 173.984l-249.664-85.936c-117.904-32.752-204.464-140.8-204.464-269.104 0-154.288 125.072-279.344 279.36-279.344 0.496-0.048 0.96 0.032 1.44 0.080z" />
<glyph unicode="&#xe625;" glyph-name="hand-scissor" d="M552.72 480.416l91.808 354.704c3.6 13.296 1.792 27.088-4.976 38.912-6.784 11.792-17.744 20.272-30.976 23.792-4.336 1.152-8.848 1.744-13.296 1.744-23.040 0-43.248-15.552-49.264-37.792l-99.408-381.408 106.096 0.048zM412.144 480.416h12.192l-5.376 26.336-71.504 353.296c-4.576 24.128-25.648 41.552-50.016 41.552-3.184 0-6.496-0.288-9.712-0.912-13.344-2.576-24.976-10.224-32.624-21.504-7.68-11.264-10.432-24.864-7.872-38.256l72.96-360.512h91.952zM628.128 599.968l-31.28-119.6h94.336l24.288 92.816c7.344 24.656-6.4 50.16-30.528 57.36-4.272 1.248-8.72 1.936-13.12 1.936-19.984 0.096-37.984-13.312-43.696-32.512zM751.504 228.064c-3.584-0.528-7.104-0.944-10.752-0.944-7.712 0-15.424 1.168-22.88 3.392-20.368 6.096-37.152 19.792-47.248 38.512-5.632 10.304-8.464 21.472-9.2 32.784-0.56 8.976 0.24 17.968 2.768 26.816 0.096 0.336 0.096 0.688 0.192 1.008l7.152 27.248c-2.976-3.232-6-6.448-9.184-9.36-4.352-4.064-8.96-7.68-13.6-11.072-4.128-4.816-9.28-8.656-15.008-11.504-4.016-1.984-8.288-3.36-12.72-4.176-13.056-5.312-26.72-7.92-40.432-8.128-1.744-0.048-3.504-0.144-5.184-0.096l-112.576 0.4c4.096-4.080 7.776-8.512 11.664-12.768 4.784-5.184 9.76-10.064 14.16-15.536 1.84-2.288 3.312-4.8 5.088-7.104 3.44-4.512 6.72-9.152 9.904-13.824 3.248-4.768 6.496-9.408 9.488-14.368 10.32-16.992 18.832-35.072 25.824-53.792 1.312-3.6 3.056-6.976 4.224-10.608l-31.68-10.416c-6.72 20.256-15.808 39.552-26.8 57.68-3.088 5.104-6.384 10.064-9.76 14.912-1.216 1.792-2.336 3.6-3.648 5.328-2.352 3.248-4.88 6.336-7.392 9.488-1.056 1.408-2.192 2.752-3.296 4.096-3.632 4.4-7.456 8.72-11.36 12.88-12.976 13.888-27.136 26.56-42.624 37.408-0.336 0.272-0.592 0.624-0.88 0.912-2.32 1.872-4.064 4.32-5.072 6.928-1.264 3.44-1.504 7.248-0.336 10.944 0.976 3.008 2.864 5.52 5.136 7.456 2.016 1.728 4.336 2.896 6.976 3.52 1.248 0.352 2.496 0.624 3.808 0.624 0.032 0 0.096 0 0.096 0l35.024-0.080 17.312-0.112 17.312-0.048 31.84-0.144h17.568l0.768 2.848c0.208-0.912 0.336-1.968 0.576-2.848l16.224-0.080 0.624 2.4c0.256-0.832 0.368-1.648 0.672-2.4l21.712-0.112c28.832-0.88 50.176 13.536 63.488 25.968 11.152 10.384 21.232 34.176 19.888 49.6-2.24 25.552-27.856 25.552-27.856 25.552h-328.496c-2.656-5.76-4.784-11.808-7.056-17.744-12.768-33.104-19.84-68.704-19.84-104.736-0.096-155.168 121.232-281.376 270.368-281.376 131.68 0 241.568 98.384 265.504 228.208-11.792-23.68-34.544-39.952-60.48-43.536zM815.68 392.336l8.464 32.256 24.32 92.944c7.312 24.656-8.208 50.64-34.592 58.496-4.64 1.344-9.488 2.128-14.288 2.224-21.696 0.464-40.944-12.592-46.704-31.728l-35.76-136.88-21.92-83.968c-3.696-12.256-2.064-24.672 4.496-35.632 6.56-10.896 17.184-19.040 29.936-22.88 12.64-3.728 25.744-2.32 36.64 2.784 11.536 5.344 20.736 14.72 24.384 26.784l25.024 95.6z" />
<glyph unicode="&#xe626;" glyph-name="hand-stop" d="M819.296 436.752c0 37.456-19.648 43.968-43.952 43.968-24.288 0-43.968-19.68-43.968-43.968v-171.344h-17.584v474.512c0 24.272-19.696 43.968-43.952 43.968-24.288 0-43.968-19.696-43.968-43.968v-338.32h-17.584v391.040c0.048 24.272-19.6 43.952-43.856 43.952-24.288 0-43.968-19.68-43.968-43.952v-391.040h-17.584v338.32c0 24.272-19.696 43.968-43.952 43.968-24.288 0-43.968-19.696-43.968-43.968v-364.704h-17.584v206.512c0 24.256-19.696 43.952-43.952 43.952-24.192 0-43.872-19.696-43.872-57.152v-364.656c0.064-114.432 114.128-228.448 254.88-228.496 140.752 0.048 254.816 114.064 254.864 254.88v206.496z" />
<glyph unicode="&#xe627;" glyph-name="hand-swipe" d="M844.624 273.488v132.784c0.064 29.568-23.936 53.552-53.536 53.552-29.568 0-53.552-23.984-53.552-53.552v66.544c0 29.584-23.984 53.568-53.584 53.568-29.584 0-53.552-23.984-53.552-53.568v66.528c0 29.568-23.984 53.568-53.568 53.568-29.616 0-53.584-24-53.584-53.568v206.192c0 29.568-23.968 53.568-53.568 53.568-29.584 0-53.568-24-53.568-53.568v-338.624c-85.072 92.512-161.936 61.616-161.936 27.936l79.968-232.4c30.496-109.744 131.056-190.336 250.512-190.336 143.616 0 260.016 116.416 260.016 260.048 0.048 0.464-0.048 0.848-0.048 1.328zM325.312 831.44l-18.16-27.328c-5.488-8.208-3.232-19.376 5.008-24.832 3.056-2.064 6.464-3.008 9.936-3.008 5.808 0 11.472 2.8 14.944 8.064l36.784 55.456c4.064 6.192 3.968 14.208-0.24 20.176l-36.8 52.912c-5.664 8.112-16.816 10.128-24.928 4.432-8.176-5.648-10.144-16.864-4.448-24.992l18.384-26.256c-1.232 0.16-2.384 0.656-3.696 0.656h-107.6c-9.872 0-17.936-8.016-17.936-17.936 0-9.856 8.064-17.904 17.936-17.904h107.6c1.12-0.064 2.128 0.384 3.216 0.56zM595.008 784.304c3.472-5.232 9.152-8.032 14.976-8.032 3.424 0 6.816 0.96 9.872 3.008 8.256 5.424 10.48 16.576 5.008 24.768l-18.016 27.184c0.752-0.096 1.344-0.448 2.16-0.448h107.584c9.856 0 17.92 8.080 17.92 17.92 0 9.904-8.064 17.936-17.92 17.936h-107.584c-0.912 0-1.664-0.416-2.528-0.496l18.208 26.144c5.696 8.16 3.728 19.264-4.416 24.928-8.224 5.648-19.328 3.664-24.944-4.432l-36.848-52.912c-4.208-6-4.304-14.080-0.224-20.176l36.752-55.392z" />
<glyph unicode="&#xe628;" glyph-name="hand-up" d="M805.776 326.576v142.608c0.048 31.792-25.696 57.568-57.52 57.568-31.744 0-57.52-25.76-57.52-57.568v71.52c0 31.792-25.744 57.552-57.552 57.552-31.76 0-57.52-25.744-57.52-57.552v71.472c0 31.776-25.776 57.536-57.568 57.536s-57.536-25.744-57.536-57.536v221.488c0 31.776-25.776 57.552-57.552 57.552-31.792 0-57.552-25.76-57.552-57.552v-363.712c-91.392 99.36-173.968 66.16-173.968 29.984l85.904-249.664c32.752-117.888 140.8-204.448 269.12-204.448 154.288 0 279.312 125.072 279.312 279.36 0.048 0.48-0.032 0.928-0.048 1.392z" />
<glyph unicode="&#xe629;" glyph-name="happy" d="M512 104.608c-189.36 0-343.392 154.032-343.392 343.392 0 189.312 154.032 343.392 343.392 343.392 189.376 0 343.408-154.048 343.408-343.392 0-189.36-154.032-343.392-343.408-343.392zM512 880c-238.192 0-432-193.824-432-432 0-238.208 193.808-432 432-432s432 193.792 432 432c0 238.176-193.808 432-432 432zM462.144 569.184c0-73.84-110.736-73.84-110.736 0s110.736 73.84 110.736 0zM675.216 569.184c0-73.84-110.784-73.84-110.784 0s110.784 73.84 110.784 0zM698.256 421.664c-12.864-91.376-91.344-162-186.256-162s-173.376 70.608-186.256 162h-67.136c13.168-128.16 121.808-228.448 253.392-228.448 131.6 0 240.224 100.304 253.408 228.448h-67.152z" />
<glyph unicode="&#xe62a;" glyph-name="help" d="M668.16 499.984c-9.152-13.056-25.648-28.8-50.496-48.16l-23.072-18c-10.336-8.016-16.96-16.944-20.256-27.312-1.52-4.624-3.312-14.336-3.568-34.336-0.112-7.872-6.496-14.208-14.368-14.208h-88.496c-3.888 0-7.632 1.584-10.336 4.448-2.688 2.784-4.144 6.608-4.048 10.48 1.36 38.848 5.088 65.328 11.488 81.152 6.672 16.576 22.4 34.416 48.064 54.448l24.080 18.832c6.448 4.784 11.696 10.128 15.84 16.112 6.88 9.616 10.24 19.792 10.24 31.12 0 13.648-3.872 25.728-11.808 36.928-6.768 9.504-20.656 14.32-41.184 14.32-20.096 0-33.616-6.016-41.392-18.384-9.168-14.544-13.584-29.168-13.584-44.608 0-7.968-6.448-14.4-14.416-14.4h-94.416c-3.888 0-7.632 1.568-10.4 4.432-2.72 2.848-4.128 6.672-3.984 10.56 2.784 66.768 26.928 114.992 71.632 143.472 27.904 18 62.464 27.072 102.512 27.072 51.968 0 96.096-12.752 131.12-37.936 36.352-26.288 54.816-65.328 54.816-116.192-0.128-31.328-8.224-58.256-23.968-79.84zM577.68 176.416c0-7.936-6.448-14.384-14.384-14.384h-97.712c-7.936 0-14.384 6.448-14.384 14.384v94.416c0 7.968 6.448 14.416 14.384 14.416h97.712c7.936 0 14.384-6.448 14.384-14.416v-94.416zM512 880c-238.576 0-432-193.424-432-432s193.424-432 432-432 432 193.424 432 432-193.424 432-432 432z" />
<glyph unicode="&#xe62c;" glyph-name="home" d="M512 830.288l-455.472-417.744h144.224v-346.832h223.312v221.168h175.872v-221.168h223.312v346.832h144.224z" />
<glyph unicode="&#xe62d;" glyph-name="industry" d="M944 70.256h-786.4v340.832l106.24 123.904 106.24-123.904 106.208 123.904 106.24-123.904 106.24 123.904 106.24-123.904v318.688h148.992z" />
<glyph unicode="&#xe62e;" glyph-name="info" d="M576.288 577.424c-34.096 0-61.712 27.648-61.712 61.696 0 34.080 27.632 61.712 61.712 61.712 34.064 0 61.712-27.648 61.712-61.712s-27.664-61.696-61.712-61.696zM606.848 490.016c-4.128-19.84-64.256-129.456-81.712-166.528-10-21.248-29.6-50.64-25.296-75.376 3.408-19.664 23.728-30.32 41.456-34.576 5.872-1.424 22.816-3.328 22.816-11.952 0-3.488-2.784-6.272-6.288-6.336 0-0.096-133.488-0.096-133.488-0.096-19.040 0-35.632 13.504-37.984 32.384-2.768 21.28 11.664 40.416 20.32 58.608 18.656 38.96 39.84 76.816 58.352 115.904 6.672 14.112 12.896 28.4 19.648 42.416 6.784 13.984 15.216 29.792 9.632 45.632-6.016 16.864-25.904 25.36-42 29.28-5.888 1.36-22.848 3.296-22.848 11.872 0 3.536 2.8 6.304 6.304 6.384 0 0.096 133.44 0.096 133.44 0.096 19.76 0 37.552-15.44 38.608-35.12 0.256-4.16-0.128-8.352-0.96-12.592zM512 880c-238.544 0-432-193.392-432-432s193.456-432 432-432 432 193.392 432 432-193.456 432-432 432z" />
<glyph unicode="&#xe62f;" glyph-name="invoice" d="M209.632 788.656v-681.296l37.808 37.904 37.776-37.904 37.808 37.904 37.776-37.904 37.808 37.904 37.776-37.904 37.776 37.904 37.84-37.92 37.808 37.904 37.808-37.904 37.744 37.904 37.808-37.904 37.776 37.904 37.776-37.904 37.808 37.904 37.808-37.904v681.312h-604.704zM549.808 296.768h-226.784v75.776h226.784v-75.776zM700.976 448.352h-377.952v75.76h377.936v-75.76zM700.976 599.904h-377.952v75.76h377.936v-75.76z" />
<glyph unicode="&#xe630;" glyph-name="invoice-ok" d="M209.632 788.656v-681.296l37.808 37.904 37.776-37.904 37.808 37.904 37.776-37.904 37.808 37.904 37.776-37.904 37.776 37.904 37.84-37.92 37.808 37.904 37.808-37.904 37.744 37.904 37.808-37.904 37.776 37.904 37.776-37.904 37.808 37.904 37.808-37.904v681.312h-604.704zM480.832 199.44l-127.52 127.536 34.096 34.128 93.424-93.44 155.728 155.712 34.128-34.096-189.856-189.84zM700.976 448.352h-377.952v75.76h377.936v-75.76zM700.976 599.92h-377.952v75.744h377.936v-75.744z" />
<glyph unicode="&#xe631;" glyph-name="key" d="M798.048 632c24.88 25.328 24.64 65.952-0.56 90.704-25.104 25.552-65.68 25.744-90.688 0.528-24.784-24.592-24.56-65.184 0.544-90.672 25.136-24.768 65.744-24.992 90.704-0.56zM104.352 80.784l-0.544 117.376 342.272 342.24c-22.288 80.848-2.128 170.576 61.040 233.456 93.728 94.192 246.656 93.36 341.552-1.088 94.672-95.088 95.472-248.016 1.632-342.064-62.992-62.768-152.448-82.896-233.168-60.768l-68.864-68.864h-109.072l0.032-83.44h-80.064v-82.272h-83.408v-83.408h-142.384c-21.072 0.32-28.864 7.584-29.024 28.832z" />
<glyph unicode="&#xe632;" glyph-name="link" d="M500.688 291.472c5.44-1.648 10.496-2.944 13.632-3.712-4.512 1.136-9.024 2.4-13.504 3.824l-0.128-0.112zM517.664 286.944l0.032 0.032c-0.816 0.192-1.632 0.336-2.464 0.544 1.536-0.384 2.432-0.576 2.432-0.576zM676.432 307.168c-5.408-2.816-10.88-5.376-16.4-7.728-0.032-0.032 0-0.080-0.032-0.096 0.544 0.208 7.184 2.992 16.432 7.824zM679.936 309.056c0 0 0.016 0.016 0 0.048-0.88-0.48-1.776-1.008-2.656-1.488 0.912 0.448 1.808 0.912 2.656 1.44zM508.176 770.32l-98.544-98.544c-8.496-8.496-16.192-17.504-23.12-26.928-1.472-2.032-2.864-4.176-4.304-6.272 47.616 12.896 98.16 12.144 145.408-2.304l62.384 62.384c47.68 47.68 124.976 47.648 172.624-0.032 47.68-47.696 47.68-125.008 0.048-172.64l-107.792-107.808c-21.536-21.52-49.056-33.264-77.2-35.36l-0.016-0.048c0 0 0 0-0.032 0.016-5.904-0.544-11.008-0.528-15.312-0.4-9.536 0.432-15.056 1.888-15.056 1.888s0 0-0.048 0.064c0 0 0 0-0.032 0.016-23.792 4.208-46.576 15.44-64.96 33.824-17.872 17.888-29.056 39.92-33.552 62.992-0.144 0.672-0.176 1.328-0.336 1.968-20.912-1.696-41.312-10.528-57.248-26.464l-32.816-32.816c11.264-28.48 28.32-55.232 51.344-78.304 23.024-23.008 49.76-40.128 78.256-51.392 5.248-2.048 10.544-3.872 15.904-5.584 4.464-1.344 9.008-2.688 13.52-3.824 0.336-0.064 0.608-0.144 0.928-0.256 0.832-0.208 1.664-0.336 2.432-0.544 47.248-10.88 97.184-6.688 142.336 12.432 5.552 2.4 11.040 4.912 16.416 7.744 0.32 0.176 0.544 0.32 0.88 0.464 0.912 0.416 1.776 1.008 2.624 1.488 2.288 1.28 4.592 2.48 6.832 3.776 0.048 0.032 0.048 0.032 0.096 0.032 16.336 9.68 31.792 21.536 45.856 35.6l98.528 98.544c90.080 90.064 90.032 236.048 0 326.096-90 90.224-235.968 90.256-326.048 0.192zM515.84 125.664l98.56 98.56c8.496 8.496 16.224 17.536 23.104 26.928 1.488 2.048 2.896 4.192 4.304 6.272-47.6-12.896-98.128-12.144-145.408 2.32l-62.336-62.352c-47.68-47.664-124.96-47.648-172.64 0.032-47.664 47.664-47.632 124.96 0.016 172.592l107.792 107.808c21.504 21.488 49.040 33.264 77.216 35.36l-0.048 0.048c0 0 0 0 0.048-0.048 5.888 0.544 10.976 0.544 15.296 0.416 9.536-0.384 15.056-1.92 15.056-1.92s0 0 0.032-0.016c0 0 0 0 0.064 0 23.808-4.192 46.624-15.472 65.008-33.84 17.872-17.872 29.024-39.936 33.472-63.008 0.16-0.704 0.272-1.328 0.336-1.968 20.896 1.696 41.344 10.464 57.28 26.416l32.816 32.832c-11.248 28.464-28.336 55.184-51.408 78.272-23.024 23.024-49.728 40.112-78.224 51.344-5.248 2.064-10.528 3.904-15.904 5.6-4.496 1.392-8.992 2.672-13.504 3.808-0.352 0.096-0.672 0.192-0.928 0.24-0.832 0.224-1.648 0.352-2.448 0.56-47.248 10.896-97.184 6.72-142.32-12.432-5.568-2.384-11.024-4.912-16.432-7.712-0.32-0.176-0.592-0.304-0.912-0.464-0.88-0.48-1.744-1.040-2.64-1.488-2.304-1.248-4.576-2.48-6.832-3.824-0.032-0.032-0.032-0.032-0.064-0.064-16.368-9.664-31.792-21.504-45.872-35.568l-98.56-98.592c-90.064-90.064-90.032-236.032-0.016-326.064 90.064-90.048 236.048-90.080 326.096-0.048zM686.88 312.96c-0.032-0.032-0.064-0.016-0.096-0.048 0.064 0.016 0.096 0.048 0.096 0.048zM676.432 307.168c0.32 0.176 0.56 0.32 0.912 0.48-0.288-0.224-0.56-0.352-0.912-0.48zM544.256 387.216c0 0 5.504-1.44 15.024-1.872 0.016 0.064 0 0.144 0 0.208-5.056 0.24-10.064 0.848-15.088 1.728 0.064-0.064 0.064-0.064 0.064-0.064zM515.216 287.52c-0.288 0.112-0.592 0.144-0.912 0.24 0.32-0.096 0.608-0.176 0.912-0.24zM559.28 385.552c0-0.064 0.016-0.144 0-0.208 4.336-0.208 9.44-0.144 15.344 0.384l-0.032 0.032c-5.056-0.416-10.224-0.48-15.312-0.208zM574.64 385.712c-0.016 0.016 0.016 0.048-0.032 0.16 0.016-0.064 0.016-0.144-0.016-0.176 0.032 0.032 0.032 0.032 0.048 0.016zM574.592 385.728h0.048v-0.016h-0.048v0.016z" />
<glyph unicode="&#xe633;" glyph-name="list" d="M144.992 530.592h743.424v-165.2h-743.424v165.2zM144.992 778.4h743.424v-165.2h-743.424v165.2zM144.992 282.8h743.424v-165.2h-743.424v165.2z" />
<glyph unicode="&#xe634;" glyph-name="lock" d="M634.784 606.608c0 67.776-54.976 122.736-122.736 122.736-67.808 0-122.736-54.96-122.736-122.736v-140.176h245.52v140.176h-0.048zM819.888 50.656h-615.776v415.712h75.936v147.072c0 128.096 103.792 231.904 231.888 231.904 128.048 0 231.904-103.808 231.904-231.904v-147.008h75.936l0.112-415.776z" />
<glyph unicode="&#xe635;" glyph-name="logout" d="M471.232 845.344h81.536v-355.296h-81.536v355.296zM642.848 790.32v-89.152c98.688-48.816 166.784-151.040 166.784-268.928 0-165.136-133.536-299.552-297.68-299.552-164.096 0-297.632 134.352-297.632 299.552 0 117.952 68.128 220.112 166.848 268.928v89.216c-144.848-53.776-248.384-194.016-248.384-358.16 0-210.384 170.128-381.568 379.216-381.568 209.072 0 379.216 171.184 379.216 381.568 0 164.144-103.536 304.384-248.368 358.096z" />
<glyph unicode="&#xe636;" glyph-name="mail" d="M512 373.808l428.912 291.664v-492.528h-857.824v492.528zM940.912 707.056h-857.824l428.912-291.616z" />
<glyph unicode="&#xe637;" glyph-name="mail-open" d="M512 220l428.912 291.664v-460.544h-857.824v460.544zM512 844.88l-428.912-291.632 428.912-291.616 428.912 291.616z" />
<glyph unicode="&#xe638;" glyph-name="message" d="M767.424 248.144h-264.816c-15.76-17.584-34.64-37.856-52.208-57.728-39.84-45.024-133.184-82.064-146.752-85.648-13.584-3.6-49.824-1.824-28.096 23.456 21.792 25.264 43.424 90.176 43.424 119.92h-62.496c-57.728 0-105.040 47.008-105.040 104.624v335.376c0 57.52 47.312 104.512 105.040 104.512h510.944c57.824 0 105.136-47.008 105.136-104.512v-335.376c0-57.632-47.312-104.624-105.136-104.624z" />
<glyph unicode="&#xe639;" glyph-name="minus" d="M120.976 519.888h782.032v-143.744h-782.032v143.744z" />
<glyph unicode="&#xe63a;" glyph-name="network" d="M418.944 750.432h186.128v-186.128h-186.128v186.128zM279.36 424.72h465.28v-46.496h46.528v93.024h-232.64v46.528h-93.056v-46.528h-232.64v-93.024h46.528zM139.776 331.68h186.112v-186.128h-186.112v186.128zM418.944 331.68h186.128v-186.128h-186.128v186.128zM698.112 331.68h186.112v-186.128h-186.112v186.128z" />
<glyph unicode="&#xe63b;" glyph-name="news" d="M163.040 776.256v-100.096h-100.096v-612.16h913.056v712.256h-812.96zM925.968 114.048h-812.976v512.064h50.064v-462.016h50.048v562.112h712.864v-612.16zM263.136 676.16h291.264v-231.008h-291.264v231.008zM604.464 676.16h271.424v-43.632h-271.424v43.632zM604.464 582.464h271.424v-43.648h-271.424v43.648zM604.464 488.784h271.424v-43.632h-271.424v43.632zM263.136 395.104h612.752v-43.648h-612.752v43.648zM263.136 301.408h612.752v-43.632h-612.752v43.632zM263.136 207.712h612.752v-43.632h-612.752v43.632z" />
<glyph unicode="&#xe63c;" glyph-name="organization" d="M795.472 123.232c-63.936 0-115.808 49.696-120.56 112.608l-325.6-19.84c0.336-3.824 0.72-7.648 0.72-11.6 0-67.216-54.4-121.76-121.504-121.76s-121.472 54.544-121.472 121.76c0 67.296 54.368 121.792 121.472 121.792 11.664 0 22.72-2.16 33.376-5.232l179.744 271.632c-30.848 22.080-51.12 58.064-51.12 98.992 0 67.248 54.368 121.776 121.472 121.776s121.504-54.528 121.504-121.776c0-40.832-20.224-76.752-50.976-98.864l158.064-239.6c16.56 8.448 35.024 13.68 54.88 13.68 67.12 0 121.472-54.544 121.472-121.776 0-67.248-54.352-121.792-121.472-121.792zM545.6 575.088c-10.72-3.12-21.84-5.312-33.6-5.312-11.632 0-22.72 2.176-33.376 5.248l-179.744-271.616c16.912-12.096 30.464-28.448 39.408-47.408l340.464 20.768c5.44 19.872 15.312 37.888 29.152 52.336l-162.304 245.984z" />
<glyph unicode="&#xe63d;" glyph-name="paper-plane" d="M74.688 49.84l74.032 321.056c2.944 13.696 14.608 24.4 29.232 26.352l414.080 42.928c11.68 1.008 11.68 18.56 0 20.528l-414.080 39.952c-14.624 1.008-26.304 11.744-29.232 25.408l-74.032 320.080c-6.848 27.312 22.4 49.776 47.712 37.072l809.664-405.936c24.352-12.672 24.352-47.808 0-60.48l-809.664-404.016c-25.312-12.672-54.56 9.744-47.712 37.056z" />
<glyph unicode="&#xe63e;" glyph-name="pdf" d="M396.512 469.44c1.36 0 2.848 0.128 4.528 0.4 8.64 1.504 17.504 6.16 27.072 14.288 12.944 11.024 27.824 28.784 43.040 51.344 1.072 1.6 2.176 3.248 3.264 4.912 8.064 2.88 16.512 5.6 24.608 7.968 17.968 5.248 31.744 8.032 43.968 10.256 10.912 1.968 19.056 3.216 26.336 4 4.688-5.056 9.408-10 13.776-14.336 10.88-10.848 20.080-18.752 29.808-25.632 9.664-6.848 18.272-11.44 25.616-13.632 7.664-2.288 15.136-2.256 22.336 0.032 7.824 2.496 13.536 7.12 16.448 13.344 3.312 7.008 3.168 15.904-0.384 23.744-3.12 7.008-9.216 13.632-17.152 18.592-6.368 4-13.776 6.912-24.064 9.408-9.44 2.288-19.6 3.872-29.36 4.656-9.952 0.848-20.304 0.88-30.672 0.096-6.688 7.44-13.056 15.008-18.576 22-11.456 14.528-21.008 28.816-27.648 41.248-0.88 1.632-1.712 3.28-2.512 4.912 8.896 27.872 13.872 54.656 15.584 70.752 0.256 2.224 0.464 4.224 0.672 6.064 1.552 13.568 2.496 21.84-7.536 26.432l-0.336 0.192c-2.368 1.376-5.040 2.944-7.616 3.664-1.472 0.464-2.912 0.688-4.368 0.688-1.408 0-2.56-0.224-3.328-0.336l-0.848-0.128c-1.344-0.16-3.344-0.368-5.968-1.376-4.752-1.744-8.672-4.752-11.328-8.72-2.832-4.192-4.592-9.776-5.712-18.064-1.136-8.368-1.296-17.024-0.48-25.776 0.88-8.976 2.976-19.408 6.256-31.056 1.68-6.032 4.128-14 8.224-23.28-1.36-4.032-2.784-7.968-4.224-11.776-9.664-25.376-24.464-54.064-41.776-80.976-10.656-3.936-20.208-7.968-28.384-11.936-15.984-7.776-29.952-17.088-39.344-26.256-7.44-7.28-11.696-14.256-13.424-21.872-1.472-6.368-0.976-12.56 1.392-16.944 1.696-3.152 5.168-6.896 12.112-6.896zM605.088 563.184c8.992-0.72 18.336-2.224 26.96-4.288 8.544-2.064 14.528-4.368 19.424-7.44 5.264-3.312 9.328-7.6 11.2-11.776 1.872-4.128 1.616-8.32 0.512-10.624-1.040-2.224-3.424-3.936-7.056-5.088-4.304-1.376-8.416-1.344-13.104 0.032-5.6 1.68-12.848 5.632-21.008 11.408-9.008 6.368-17.584 13.744-27.792 23.936-1.44 1.44-2.912 2.912-4.4 4.432 5.104 0.064 10.256-0.176 15.264-0.592zM511.696 724.064c0.752 5.568 1.808 9.44 3.184 11.44 0.816 1.216 2.096 2.16 3.84 2.816 0.832 0.32 1.264 0.368 2.144 0.464l1.92 0.256c0.192 0.032 0.384 0.096 0.496 0.096 0.816-0.256 3.008-1.504 4.192-2.192l0.72-0.432c0.128-0.064 0.256-0.128 0.384-0.192 0.064-2.064-0.432-6.432-0.928-10.688-0.224-1.872-0.448-3.904-0.688-6.192-1.232-11.536-4.24-28.912-9.28-48.192-0.224 0.784-0.448 1.536-0.672 2.336-3.024 10.752-4.96 20.288-5.728 28.32-0.688 7.44-0.544 15.088 0.416 22.16zM519.952 627.088c6.64-11.28 15.12-23.536 24.88-35.904 3.664-4.656 7.68-9.536 11.904-14.432-4.864-0.72-10.256-1.632-16.496-2.752-12.64-2.288-26.912-5.152-45.584-10.624-2.368-0.72-4.784-1.44-7.2-2.192 10.848 18.288 22.944 41.184 32.496 65.904zM398.304 489.776c0.704 3.12 2.368 7.568 9.072 14.128 4.768 4.656 15.664 13.84 35.248 23.408 1.728 0.848 3.552 1.68 5.424 2.528-13.248-17.872-23.424-28.128-30.064-33.776-10.96-9.28-17.472-10.4-19.616-10.784-0.176-0.032-0.336-0.064-0.48-0.064-0.096 1.040-0.064 2.56 0.416 4.56zM563.936 234.816c-4.992 7.664-11.76 13.904-20.336 18.752-8.56 4.88-19.456 7.312-32.64 7.312-5.104 0-10.256-0.128-15.472-0.336-5.2-0.256-9.088-0.592-11.632-1.056v-162.912c0.928-0.224 2.48-0.4 4.688-0.528 2.192-0.096 4.56-0.224 7.104-0.336s4.992-0.224 7.296-0.336 4.048-0.16 5.216-0.16c13.424 0 24.592 2.336 33.52 7.088 8.912 4.752 15.984 11.056 21.184 18.944 5.216 7.872 8.864 16.976 10.944 27.28 2.096 10.288 3.12 20.88 3.12 31.776 0 9.504-0.928 19.024-2.768 28.656-1.824 9.568-5.248 18.192-10.224 25.856zM114.512 934.224v-963.008h794.976v963.008h-794.976zM398.768 183.936c-5.328-10.56-12.384-19.184-21.184-25.904s-18.816-11.568-30.048-14.56c-11.232-3.024-22.88-4.528-34.912-4.528-1.168 0-3.008 0-5.568 0s-5.2 0.064-7.984 0.192c-2.784 0.096-5.504 0.288-8.176 0.496-2.656 0.256-4.56 0.464-5.712 0.72v-83.712h-47.584v240.704c9.712 1.84 20.432 3.28 32.128 4.336 11.68 1.024 23.328 1.568 34.912 1.568 12.048 0 24.16-1.008 36.32-2.976s23.088-5.904 32.816-11.808c9.728-5.904 17.664-14.128 23.792-24.656s9.2-24.256 9.2-41.152c-0.016-15.28-2.672-28.192-8-38.72zM620.736 132.688c-4.176-15.28-11.12-28.848-20.848-40.624-9.728-11.808-22.528-21.312-38.384-28.496s-35.488-10.784-58.88-10.784c-3.696 0-8.624 0.128-14.768 0.368-6.144 0.224-12.496 0.496-19.104 0.848-6.592 0.336-12.912 0.72-18.928 1.056-6.032 0.336-10.544 0.752-13.552 1.216v243.504c4.864 0.688 10.352 1.248 16.496 1.712 6.128 0.464 12.432 0.816 18.928 1.056 6.48 0.224 12.8 0.368 18.944 0.496s11.648 0.192 16.496 0.192c21.536 0 39.952-3.024 55.232-9.024 15.28-6.032 27.664-14.464 37.152-25.376 9.504-10.88 16.448-23.84 20.848-38.912 4.4-15.024 6.608-31.6 6.608-49.664 0.016-16.416-2.080-32.288-6.24-47.568zM805.168 257.408h-96.56v-60.096h88.928v-42.4h-88.928v-98.288h-47.6v243.152h144.16v-42.368zM834.224 392.688h-644.432v475.68h644.416v-475.68zM341.632 254.288c-4.512 3.008-9.664 5.056-15.456 6.256-5.792 1.152-11.696 1.712-17.712 1.712-4.64 0-9.024-0.16-13.2-0.528-4.176-0.336-7.536-0.752-10.064-1.184v-78.88c0.928-0.224 2.32-0.464 4.16-0.688 1.856-0.224 3.824-0.4 5.904-0.528 2.096-0.096 4.112-0.16 6.080-0.16s3.424 0 4.336 0c6.256 0 12.448 0.56 18.592 1.712 6.128 1.152 11.632 3.312 16.496 6.432s8.736 7.472 11.632 13.024 4.336 12.848 4.336 21.872c0 7.664-1.392 13.968-4.176 18.944-2.768 4.976-6.416 8.976-10.928 12.016z" />
<glyph unicode="&#xe63f;" glyph-name="pencil" d="M847.984 783.968c46.944-46.944 46.944-123.072 0-170.016l-170.016 170.016c46.944 46.992 123.072 46.992 170.016 0zM392.448 272.432c-15.456 15.488-44.688 11.264-51.152 4.8 6.464 6.464 10.672 35.728-4.8 51.2-15.456 15.456-46.32 20.976-46.32 20.976l-69.136-166.816 25.6-25.6 166.816 69.12c-0.048-0.032-5.52 30.88-21.008 46.32zM431.168 197.12l-290.352-120.32 120.288 290.336 370.32 370.32 170.048-170.016-370.304-370.32z" />
<glyph unicode="&#xe640;" glyph-name="phone" d="M301.44 801.136l86.768-161.056v-37.152l-61.984-74.352 0.016-37.152c0 0 116.432-178.432 272.56-235.424l24.784-0.016 74.32 111.52h24.784l161.072-99.12-0.016-61.984c0 0-10.352-88.496-123.92-111.52h-86.736c0 0-410.688 60.224-532.832 495.616v111.536c0 0 21.232 74.368 74.352 99.12l86.832-0.016z" />
<glyph unicode="&#xe641;" glyph-name="pin" d="M499.104 365.76c0 0 112.208-115.584 166.288-159.536 31.872 65.104-20.368 167.568-20.368 167.568l211.216 276.96c0 0 68.848-31.456 103.248-17.952-84.752 90.352-172.32 177.872-262.688 262.656-12.8-33.664 18-100.992 18-100.992l-274.768-213.472c0 0-103.616 53.040-169.824 20.352 44.336-52.944 159.552-164.048 159.552-164.048s-249.472-283.36-363.888-435.328c-3.168-2.72-0.176-0.896 2.224 0 148.304 116.704 431.008 363.792 431.008 363.792z" />
<glyph unicode="&#xe642;" glyph-name="plug" d="M697.936 633.952v278.944h-92.944v-278.944h-185.952v278.944h-93.008v-278.944h-185.936v-92.992c0-172.944 118.064-318.928 278.96-359.792v-198.064h185.952v198.064c160.864 40.88 278.912 186.864 278.912 359.792v92.992h-185.984z" />
<glyph unicode="&#xe643;" glyph-name="plus" d="M903.008 376.128v143.744l-319.104 0.032-0.016 319.088-143.776 0.016 0.064-319.088-319.184-0.032 0.016-143.776 319.152 0.064-0.032-319.184h143.744l0.032 319.184z" />
<glyph unicode="&#xe644;" glyph-name="postal" d="M901.936 611.376h33.12v54.848h-33.12c-18.336 0-33.184 14.848-33.184 33.152v28.032h-45.376v-28.032c0-18.32-14.88-33.152-33.152-33.152s-33.136 14.848-33.136 33.152v28.032h-45.008v-28.032c0-18.32-14.832-33.152-33.152-33.152-18.288 0-33.12 14.848-33.12 33.152v28.032h-45.008v-28.032c0-18.32-14.832-33.152-33.168-33.152-18.288 0-33.12 14.848-33.12 33.152v28.032h-45.008v-28.032c0-18.32-14.848-33.152-33.168-33.152-18.304 0-33.136 14.848-33.136 33.152v28.032h-44.992v-28.032c0-18.32-14.832-33.152-33.12-33.152-18.352 0-33.184 14.848-33.184 33.152v28.032h-44.944v-28.032c0-18.32-14.864-33.152-33.136-33.152-18.32 0-33.152 14.848-33.152 33.152v28.032h-45.456v-28.032c0-18.32-14.848-33.152-33.136-33.152h-33.136v-54.848h33.12c18.288 0 33.152-14.848 33.152-33.152 0-18.288-14.88-33.12-33.152-33.12h-33.12v-63.968h33.12c18.288 0 33.152-14.848 33.152-33.152 0-18.288-14.88-33.12-33.152-33.12h-33.12v-63.904h33.12c18.288 0 33.152-14.816 33.152-33.184 0-18.336-14.88-33.184-33.152-33.184h-33.12v-49.68h33.12c11.456 0 21.536-5.776 27.504-14.592 3.568-5.376 5.664-11.712 5.664-18.592v-33.088h45.392v33.088c0 18.336 14.864 33.184 33.136 33.184 18.304 0 33.152-14.848 33.152-33.184v-33.088h44.96v33.088c0 18.336 14.832 33.184 33.184 33.184 18.272 0 33.12-14.848 33.12-33.184v-33.088h44.992v33.088c0 18.336 14.848 33.184 33.136 33.184 18.336 0 33.168-14.848 33.168-33.184v-33.088h45.008v33.088c0 18.336 14.848 33.184 33.12 33.184 18.336 0 33.168-14.848 33.168-33.184v-33.088h45.008v33.088c0 18.336 14.848 33.184 33.12 33.184 18.336 0 33.152-14.848 33.152-33.184v-33.088h45.008v33.088c0 18.336 14.88 33.184 33.136 33.184 18.288 0 33.152-14.848 33.152-33.184v-33.088h45.376v33.088c0 18.336 14.864 33.184 33.184 33.184h33.12v49.712h-33.12c-18.336 0-33.184 14.816-33.184 33.152 0 18.368 14.864 33.184 33.184 33.184h33.12v63.92h-33.12c-18.336 0-33.184 14.848-33.184 33.12 0 18.32 14.864 33.152 33.184 33.152h33.12v63.968h-33.12c-18.336 0-33.184 14.816-33.184 33.088s14.896 33.168 33.216 33.168zM476.464 313.936c-39.504 0-63.68 10.976-87.104 21.408-20.256 9.12-39.392 17.808-67.664 17.808-57.904 0-92.448-36.16-92.768-36.496l-12.288 11.44c1.584 1.68 39.584 41.84 105.040 41.84 31.872 0 53.568-9.808 74.576-19.248 21.792-9.808 44.336-19.968 80.24-19.968 65.776 0 83.28 33.024 84 34.464l15.088-7.376c-0.864-1.712-22.064-43.872-99.12-43.872zM476.464 350.784c-39.504 0-63.68 10.88-87.104 21.408-20.256 9.12-39.392 17.712-67.664 17.712-57.904 0-92.448-36.16-92.768-36.496l-12.288 11.472c1.584 1.712 39.584 41.776 105.040 41.776 31.872 0 53.568-9.744 74.576-19.248 21.792-9.776 44.336-19.872 80.24-19.872 65.776 0 83.28 33.056 84 34.4l15.088-7.344c-0.864-1.744-22.064-43.808-99.12-43.808zM476.464 387.536c-39.504 0-63.68 10.88-87.104 21.408-20.256 9.088-39.392 17.712-67.664 17.712-57.904 0-92.448-36.096-92.768-36.4l-12.288 11.376c1.584 1.744 39.584 41.808 105.040 41.808 31.872 0 53.568-9.744 74.576-19.184 21.792-9.84 44.336-19.936 80.24-19.936 65.776 0 83.28 33.056 84 34.464l15.088-7.376c-0.864-1.808-22.064-43.872-99.12-43.872zM822.336 442.192v-168.976h-180.528v340.416h180.528v-171.44z" />
<glyph unicode="&#xe645;" glyph-name="product" d="M233.664 653.136l288.192-165.936 268.48 154.576-288.192 165.936-268.48-154.576zM465.392 88.288l-1.344 308.72-243.84 144.912 1.344-308.736 243.84-144.896zM803.792 541.904l-243.872-144.912-1.344-308.72 243.84 144.896 1.376 308.736z" />
<glyph unicode="&#xe646;" glyph-name="recycle" d="M880.704 453.008c-25.168 46.032-46.96 94-74.304 138.848-48.432-28.784-103.504-61.312-159.104-92.576 25.312-50.624 54.448-99.616 82.384-148.848 26.656-46.88 55.664-93.12 67.776-146.336 24.8 44.048 51.648 86.752 78.368 129.584 10.736 17.216 22.576 35.808 27.168 55.84 5.664 24.864-11.184 43.232-22.288 63.488-8.192 14.944 2.832-5.232 0 0zM740.848 269.616c-46.16 0.88-92.608-2.96-138.608 2l-9.392 1.008-0.64 9.44c-0.464 7.216-0.336 14.992-0.096 22.896-25.168-45.52-53.248-89.424-77.12-135.68l10.096-19.152c20.672-39.376 41.904-79.68 64.672-118.112-0.048 14.112 0.368 28.736 2.624 42l1.808 10.752 10.784-1.392c44.176-5.696 98.080-5.088 134.352 24.896 19.248 15.856 29.424 39.008 31.968 63.472 3.776 37.584-14.528 65.632-30.448 97.872-15.84 0.336 2.896-5.936 0 0zM297.904 80.576c52.448-1.104 104.928-6.112 157.392-4.672-0.832 56.336-1.632 120.24-1.056 184.096-56.528 3.232-113.488 2.4-170.112 2.64-53.904 0.24-108.448-1.904-160.688 14.112 25.856-43.456 49.504-88 73.392-132.512 9.584-17.904 19.776-37.44 34.928-51.344 18.72-17.36 43.072-11.872 66.144-12.32 17.040-0.368-5.92 0.096 0 0zM208.464 293.152c23.728 39.616 43.552 81.808 70.752 119.28l5.552 7.632 8.512-4.112c6.48-3.184 13.184-7.168 19.936-11.28-26.976 44.448-51.024 90.72-79.296 134.432l-21.6 0.784c-44.416 1.664-90.048 3.344-134.688 2.736 12.272-6.976 24.704-14.624 35.12-23.168l8.368-7.040-6.56-8.64c-26.928-35.44-53.216-82.48-45.296-128.896 4.208-24.624 19.136-44.992 39.184-59.312 30.672-22.064 64.112-20.128 100.016-22.416 8.144 13.568-6.608 0.432 0 0zM272.096 769.232c-27.2-44.88-57.776-87.76-82.816-133.936 49.216-27.488 104.928-58.752 159.92-91.184 31.088 47.328 58.864 97.056 87.408 145.952 27.2 46.544 52.608 94.912 92.624 132.048-50.576-0.64-100.96 1.168-151.472 2.784-20.32 0.656-42.288 1.568-61.952-4.528-24.336-7.552-31.776-31.344-43.712-51.136-8.832-14.576 3.040 5.104 0 0zM500.816 740.272c22.384-40.384 49.056-78.592 67.872-120.896l3.808-8.592-7.824-5.328c-5.968-4.016-12.816-7.808-19.744-11.568 52 1.104 104.048-1.248 156.048 1.344l11.52 18.336c23.68 37.648 47.936 76.288 69.712 115.232-12.176-7.12-25.008-14.112-37.664-18.784l-10.176-3.792-4.224 10c-17.2 41.072-44.784 87.392-88.912 103.712-23.424 8.704-48.48 5.92-70.992-4.208-34.4-15.536-49.472-45.52-69.424-75.456 7.728-13.84 3.712 5.504 0 0z" />
<glyph unicode="&#xe647;" glyph-name="reply" d="M393.008 794.72v-145.904c339.664-3.36 497.584-142.976 540.016-547.536-42.432 278.624-200.336 320.8-540.016 323.072v-146.88l-302.016 258.592 302.016 258.656z" />
<glyph unicode="&#xe648;" glyph-name="sad" d="M512 104.608c-189.36 0-343.392 154.032-343.392 343.392 0 189.312 154.032 343.392 343.392 343.392 189.376 0 343.408-154.048 343.408-343.392 0-189.36-154.032-343.392-343.408-343.392zM512 880c-238.192 0-432-193.824-432-432 0-238.208 193.808-432 432-432s432 193.792 432 432c0 238.176-193.808 432-432 432zM462.144 569.184c0-73.84-110.736-73.84-110.736 0s110.736 73.84 110.736 0zM675.216 569.184c0-73.84-110.784-73.84-110.784 0s110.784 73.84 110.784 0zM698.256 241.216c-12.864 91.392-91.344 162-186.256 162s-173.376-70.608-186.256-162h-67.136c13.168 128.16 121.808 228.448 253.392 228.448 131.6 0 240.224-100.304 253.408-228.448h-67.152z" />
<glyph unicode="&#xe649;" glyph-name="sales" d="M512.032 772.32c-128.592-0.048-127.088-115.552-127.088-115.552l-0.912-61.504c-10.496 0.176-12.912-10.576-12.912-31.968 0-32.048 18.848-65.552 36.096-82.88 0.064-0.112 0.16-0.304 0.224-0.448 0.032-0.048 0-0.224 0-0.224 15.632-56.080 54.496-99.088 104.592-99.088 50.064 0 88.784 43.136 104.32 99.312 0.096 0.032 0.16 0.16 0.192 0.448 17.28 17.328 36.336 50.832 36.336 82.88 0 21.392-2.624 32.128-13.12 31.968l-0.656 61.504c-0.016 0 1.488 115.52-127.072 115.552zM415.936 394.624c-41.68-21.552-101.568-38.384-132.336-55.184-11.008-6.032-22.624-16.528-32.128-29.968-6.096-8.656-11.568-17.888-16.192-27.488-0.128-0.24-0.096-0.624-0.224-0.88-11.28-22.912-18.784-47.648-23.008-72.496-1.024-5.664-1.808-11.136-2.592-16.704-0.464-3.152-1.088-10.176-0.88-13.52 0-0.224 0-0.272 0-0.416-1.408-20.8 36.32-27.696 36.32-27.696 14.192-4.32 40.32-8.912 71.968-13.312 41.248-6.864 109.968-10.704 157.056-13.264 0 0-59.904 90.88-58 270.48 0.048 0.112 0.016 0.304 0.016 0.448zM608.064 394.624c0-0.144-0.032-0.336 0-0.448 1.904-179.616-58-270.48-58-270.48 47.088 2.56 115.84 6.4 157.088 13.264 31.664 4.4 57.744 9.008 71.936 13.312 0 0 37.744 6.912 36.32 27.696 0 0.16 0 0.208 0 0.416 0.256 3.344-0.432 10.352-0.848 13.52-0.816 5.568-1.6 11.040-2.624 16.704-4.192 24.864-11.712 49.6-23.008 72.496-0.128 0.256-0.064 0.64-0.192 0.88-4.656 9.6-10.16 18.832-16.224 27.488-9.472 13.44-21.12 23.936-32.128 29.968-30.752 16.8-90.64 33.632-132.32 55.184zM477.664 321.648c-6.128-0.896-10.624-4.784-10.72-10.8v-16.928c0-2.912 1.216-5.84 3.28-7.84 7.6-7.584 15.312-15.088 22.976-22.56-4.976-38.816-9.664-77.664-14.4-116.416-1.216-8.192 2.592-12.224 10.464-12.4h45.312c6.624 0.672 11.12 5.216 10.432 12.4-4.88 38.656-9.44 77.44-14.4 116.224 7.568 7.44 15.536 14.912 23.184 23.44 1.904 2.096 2.976 4.992 2.848 7.872-0.128 3.92 1.024 9.744 0.256 17.344-1.12 5.584-5.664 9.552-10.752 9.664h-68.48z" />
<glyph unicode="&#xe64a;" glyph-name="schedule" d="M147.888 522.896v-74.912c0-105.888 39.68-211.92 119.232-291.312 79.36-79.552 185.392-119.2 291.328-119.2 83.456 0 144.352 19.856 220.272 63.664 29.424 17.088 29.424 17.088 12.336 46.496l-17.104 29.44c-17.072 30.064-17.072 30.064-46.464 12.976-78.048-41.024-114.976-49.936-168.656-49.936-78.672 0-157.376 30.096-217.392 90.16-60.032 60.224-90.816 138.912-90.816 217.776v74.928h104.144l-149.84 149.84-149.904-149.904h92.864zM697.328 722.992l30.096-17.072c29.408-17.088 29.408-17.088 46.496 13.008l17.056 29.408c17.104 29.424 17.104 29.424-12.304 46.512l-30.096 17.088c-29.424 17.072-29.424 17.072-46.496-12.336l-17.072-29.408c-17.104-30.032-17.104-30.032 12.32-47.2zM833.472 586.88c17.072-29.424 17.072-29.424 47.232-12.336l29.392 17.088c29.408 17.072 29.408 17.072 12.336 46.512l-17.072 30.080c-17.104 29.408-17.104 29.408-46.512 12.32l-29.392-17.072c-30.096-17.088-30.096-17.088-13.008-46.496l17.024-30.096zM541.312 755.84h34.192c34.256 0 34.256 0 34.256 34.224v34.224c0 34.256 0 34.256-34.256 34.256h-34.192c-34.256 0-34.256 0-34.256-34.256v-34.224c0.064-34.224 0.064-34.224 34.256-34.224zM900.512 396.672h34.256c34.224 0 34.224 0 34.224 34.224v34.24c0 34.224 0 34.224-34.224 34.224h-34.256c-34.208 0-34.208 0-34.208-34.224v-34.24c0.016-34.224 0.016-34.224 34.208-34.224zM336.048 721.68c17.104-34.24 17.104-34.24 51.328-17.088l34.208 17.088c34.224 17.072 34.224 17.072 17.072 51.312l-17.072 34.224c-17.104 17.056-17.104 17.056-51.296 0l-34.24-17.088c-34.224-17.088-34.224-17.088-17.072-34.224l17.072-34.224zM829.376 232.432l29.408-17.088c29.424-17.056 29.424-17.056 46.496 12.336l17.104 30.096c17.072 29.408 17.072 29.408-12.336 46.48l-29.408 17.088c-30.096 17.088-30.096 17.088-47.216-12.336l-17.072-30.080c-17.088-29.392-17.088-29.392 13.024-46.496zM708.752 363.792l0.032 51.584h-141.28l-0.032 235.504-51.584 0.016v-287.12z" />
<glyph unicode="&#xe64b;" glyph-name="search" d="M403.712 321.264c-129.184 0-234.288 105.088-234.288 234.24 0 129.2 105.088 234.288 234.288 234.288s234.272-105.088 234.272-234.288c0-129.152-105.12-234.24-234.272-234.24zM941.6 106.464l-270.592 270.56c35.12 52.384 54.016 113.984 54.016 178.48 0 85.808-33.44 166.496-94.112 227.216-60.688 60.688-141.36 94.096-227.184 94.096-85.792 0-166.48-33.408-227.216-94.096-60.672-60.672-94.112-141.344-94.112-227.168s33.44-166.496 94.096-227.2c60.688-60.672 141.376-94.080 227.216-94.080 65.248 0 127.504 19.312 180.256 55.216l270.336-270.336 87.296 87.312z" />
<glyph unicode="&#xe64c;" glyph-name="setting" d="M692.080 448c0-99.456-80.624-180.080-180.080-180.080-99.472 0-180.080 80.624-180.080 180.080 0 99.472 80.608 180.080 180.080 180.080 99.456 0 180.080-80.608 180.080-180.080zM815.568 504.432l104.368 60.288-102.912 178.192-104.4-60.24c-28.56 24.4-61.568 43.68-97.712 56.464v120.496h-205.824v-120.496c-36.144-12.768-69.152-32.064-97.712-56.464l-104.416 60.24-102.896-178.208 104.368-60.288c-3.392-18.256-5.152-37.136-5.152-56.432s1.76-38.16 5.152-56.432l-104.368-60.288 102.912-178.192 104.416 60.24c28.56-24.384 61.568-43.68 97.712-56.464v-120.48h205.808v120.48c36.144 12.784 69.152 32.080 97.712 56.464l104.4-60.24 102.912 178.192-104.368 60.288c3.392 18.272 5.152 37.136 5.152 56.432s-1.76 38.192-5.152 56.448z" />
<glyph unicode="&#xe64d;" glyph-name="star" d="M784.032 29.376l-272.032 197.664-272.032-197.664 103.888 319.808-272.032 197.632h336.272l103.904 319.808 103.904-319.808h336.272l-272.032-197.632 103.888-319.808z" />
<glyph unicode="&#xe64e;" glyph-name="subcategory" d="M569.792 143.728l-381.632 382.608-20.24 307.264 306.448-20.304 381.696-382.592-286.272-286.976zM358.736 724.416c-23.12 22.224-59.744 23.184-81.92 0-22.16-23.184-22.16-59.904 0-82.128 23.12-22.24 59.744-22.24 81.92 0 22.176 23.184 22.176 59.92 0 82.128zM370.272 62.4l161.952 81.2-283.44 284.16 121.488-365.36z" />
<glyph unicode="&#xe64f;" glyph-name="support" d="M512 56.496c-18.304 0-36.336 1.36-54 3.792v137.008c17.392-3.68 35.44-5.792 54-5.792 137.088 0 248.752 107.648 255.808 243.008h135.328c-7.136-209.664-179.792-378.016-391.136-378.016zM485.008 838.448v-135.408c-129.008-13.488-229.504-122.496-229.504-255.040 0-4.544 0.448-9.008 0.656-13.504h-135.296c-0.176 4.496-0.368 9.008-0.368 13.504 0 206.8 161.2 376.544 364.512 390.448zM296 448c0 119.088 96.912 216 216 216s216-96.912 216-216-96.912-216-216-216-216 96.912-216 216zM512 880c-238.592 0-432-193.408-432-432s193.408-432 432-432 432 193.408 432 432-193.408 432-432 432z" />
<glyph unicode="&#xe650;" glyph-name="sync" d="M120.368 305.456l104.784 41.44c0 0-96.672 182.512 105.296 323.68 0 0 126.24 80.56 264.64 25.616l43.024 98.4c0 0-210.144 82.176-386.624-45.76-0.032 0-246-151.616-131.12-443.376zM653.792 914.88l-137.584-314.832 237.536 93.216zM903.664 590.32l-104.784-41.36c0 0 96.528-182.544-105.504-323.664 0 0-126.336-80.48-264.704-25.536l-43.040-98.304c0 0 210.128-82.336 386.72 45.6 0.048-0.064 246.096 151.488 131.312 443.264zM370.016-18.88l137.68 314.832-237.6-93.216z" />
<glyph unicode="&#xe651;" glyph-name="telephone" d="M684.496 504.992c0 68.288-77.376 123.776-172.496 123.776-95.152 0-172.528-55.536-172.528-123.776s77.376-123.776 172.528-123.776c95.12 0 172.496 55.536 172.496 123.776zM772.88 474.4c-3.968 5.744-10.848 8.816-17.84 7.6-6.848-1.024-12.592-6.032-14.528-12.784-22.848-76.096-117.44-131.376-225.056-131.376-108.848 0-207.744 56.496-230.128 131.376-2 6.752-7.664 11.664-14.56 12.784-6.88 1.12-13.744-1.776-17.712-7.504l-101.408-144.368c-2.112-3.072-3.328-6.688-3.328-10.448v-156.848c0-37.184 44.56-60.976 75.248-60.976h576.88c30.688 0 75.184 23.712 75.184 60.976v156.848c0 3.712-1.088 7.312-3.184 10.288l-99.568 144.432zM512 794.128c-209.872 0-436.432-75.088-436.432-196.368v-49.936c0-25.312 21.088-45.904 47.008-45.904h115.376c23.312 0 55.84 17.472 55.84 45.904v28.496c0 57.344 112.816 95.84 218.224 95.84 105.344 0 218.224-38.496 218.224-95.84v-28.528c0-28.432 32.528-45.936 55.808-45.936h115.376c25.936 0 47.024 20.624 47.024 45.936v49.904c-0.016 121.296-226.576 196.432-436.448 196.432z" />
<glyph unicode="&#xe652;" glyph-name="tick" d="M84.448 489.952l91.872 91.92 251.712-251.712 419.6 419.52 91.92-91.872-511.52-511.488z" />
<glyph unicode="&#xe653;" glyph-name="transfer" d="M952.592 227.68h-661.12v-110.128l-220.064 165.248 220.064 165.2v-110.144h661.12zM71.408 558.144h660.912v-110.144l220.272 165.232-220.272 165.216v-110.128h-660.912z" />
<glyph unicode="&#xe654;" glyph-name="transfer2" d="M715.408 375.536v-118.224h-86l-111.136 154.752-74.32-103.408 105.536-146.88c11.28-15.744 29.632-25.12 49.008-25.12h116.928v-118.912c0 0 225.888 176.688 225.888 178.88-0.016 2.128-225.904 178.912-225.904 178.912zM715.408 639.344v-118.816l225.888 178.848-225.888 178.88v-118.288h-119.952c-19.312 0-37.712-9.408-49.008-25.088l-343.024-477.632h-118.048v-120.592h148.992c19.312 0 37.632 9.376 48.992 25.12l343.072 477.568h88.976zM313.44 490.432l74.256 103.344-101.36 141.008c-11.28 15.776-29.616 25.184-49.008 25.184h-154.624v-120.624h123.696l107.040-148.912z" />
<glyph unicode="&#xe655;" glyph-name="trash" d="M697.024 154.224h-51.504v425.872h66.448l-14.944-425.872zM540.64 154.224h-57.28v425.872h57.28v-425.872zM377.984 154.224h-52.688l-13.328 425.872h66.016v-425.872zM127.712 709.568v-62h75.856l26.256-598.384h564.32l26.288 598.384h75.856v62h-768.576zM588.72 798.8v48.032h-153.472v-48.032h-267.744v-62.032h689.024v62.032z" />
<glyph unicode="&#xe656;" glyph-name="triangle-down" d="M140.96 633.52l371.040-371.040 371.040 371.040z" />
<glyph unicode="&#xe657;" glyph-name="triangle-left" d="M697.52 76.96l-371.040 371.040 371.040 371.040z" />
<glyph unicode="&#xe658;" glyph-name="triangle-right" d="M390.48 76.96l371.040 371.040-371.040 371.040z" />
<glyph unicode="&#xe659;" glyph-name="triangle-up" d="M140.96 262.48l371.040 371.040 371.040-371.040z" />
<glyph unicode="&#xe65a;" glyph-name="truck" d="M241.584 366.8c0.16 0 0.336 0 0.48 0 60.048-0.272 108.496-49.136 108.256-109.184-0.288-59.888-48.928-108.272-108.72-108.272-0.16 0-0.32 0-0.496 0-60.032 0.272-108.48 49.152-108.24 109.184 0.256 59.904 48.88 108.272 108.72 108.272zM967.808 746.656h-576.528c-6.032 0-14.544-1.872-14.544-7.888v-334.064c0-5.984-5.136-10.912-11.040-10.912-5.888 0-11.024 4.928-11.024 10.912v296.848c0 5.984-0.688 11.936-6.688 11.936h-19.296c-6 0-7.168-5.952-7.168-11.936v-23.84c0-5.984-8.656-8.368-14.656-8.368h-153.776c-5.984 0-13.408-5.488-16.464-10.656l-85.776-145.12c-3.056-5.136-5.568-14.944-5.568-20.944v-224.32c0-6.048 4.912-7.76 10.928-7.76h53.6c0.304 33.104 14.048 68.56 38.8 93.216 24.864 24.752 57.888 39.344 92.992 39.344h0.592c35.216 0 69.92-15.616 94.704-40.624s39.856-59.76 39.856-94.976c0-0.048 0 3.024 0 3.024h231.488c0.816 33.104 14.432 68.064 38.704 92.24 24.864 24.768 57.888 40.336 92.992 40.336h0.592c71.44 0 129.408-66.304 131.056-132.56h96.256c6 0 10.912 1.712 10.912 7.76v470.464c-0.032 6.016-4.944 7.888-10.944 7.888zM739.904 366.8c0.16 0 0.336 0 0.496 0 60.032-0.272 108.464-49.136 108.224-109.184-0.256-59.888-48.912-108.272-108.72-108.272-0.16 0-0.304 0-0.464 0-60.048 0.272-108.496 49.152-108.256 109.184 0.272 59.904 48.912 108.272 108.72 108.272zM740.208 306.512c0.080 0 0.144 0 0.224 0 26.768-0.272 48.224-22.208 47.936-48.992-0.272-26.672-22.080-48.048-48.736-47.888-0.064 0-0.16 0-0.224 0-26.752 0.256-48.224 22.208-47.936 48.976 0.272 26.672 22.064 48.080 48.736 47.904zM241.872 306.512c0.064 0 0.128 0 0.224 0 26.752-0.272 48.224-22.208 47.936-48.992-0.288-26.672-22.080-48.048-48.736-47.888-0.080 0-0.16 0-0.24 0-26.752 0.256-48.208 22.208-47.92 48.976 0.304 26.672 22.080 48.080 48.736 47.904z" />
<glyph unicode="&#xe65b;" glyph-name="truck-question" d="M242.064 366.8c-0.16 0-0.336 0-0.48 0-59.824 0-108.448-48.352-108.72-108.272-0.256-60.032 48.208-108.928 108.24-109.184 0.192 0 0.336 0 0.496 0 59.792 0 108.432 48.368 108.72 108.272 0.24 60.048-48.208 108.912-108.256 109.184zM740.4 366.8c-0.16 0-0.336 0-0.496 0-59.808 0-108.448-48.352-108.72-108.272-0.256-60.032 48.208-108.928 108.256-109.184 0.176 0 0.32 0 0.464 0 59.808 0 108.464 48.368 108.72 108.272 0.256 60.048-48.192 108.912-108.224 109.184zM967.808 746.656h-53.312c-1.424-6.064-24.688-50.64-44.56-72.064-12.8-13.936-20.976-24.688-24.496-32.256-3.552-7.552-5.312-17.808-5.312-30.816v-13.072c0.64-0.576 1.408-1.008 2-1.632 8.032-8.32 15.216-31.44 15.216-46.16 0-14.544-13.344-56-66.672-50.672-38.464 3.84-55.248 41.088-54.656 56 1.344 33.328 20.928 50.32 21.328 50.672 0 0-6.976 66.336-1.328 80s35.6 58.752 36.032 59.984h-400.768c-6.032 0-14.544-1.872-14.544-7.888v-334.064c0-5.984-5.136-10.912-11.040-10.912-5.888 0-11.024 4.928-11.024 10.912v296.864c0 5.984-0.688 11.936-6.688 11.936h-19.296c-6 0-7.168-5.952-7.168-11.936v-23.84c0-5.984-8.656-8.368-14.656-8.368h-153.776c-5.984 0-13.408-5.488-16.464-10.656l-85.776-145.12c-3.056-5.136-5.568-14.944-5.568-20.944v-224.32c0-6.048 4.912-7.76 10.928-7.76h53.6c0.304 33.104 14.048 68.56 38.8 93.216 24.864 24.752 57.888 39.344 92.992 39.344h0.592c35.216 0 69.92-15.616 94.704-40.624s39.856-59.76 39.856-94.976c0-0.048 0 3.024 0 3.024h231.488c0.816 33.104 14.432 68.064 38.704 92.24 24.864 24.768 57.888 40.336 92.992 40.336h0.592c71.44 0 129.408-66.304 131.056-132.56h96.256c6 0 10.912 1.712 10.912 7.76v470.464c-0.032 6.016-4.944 7.888-10.944 7.888zM772.496 633.472v16.24c0 14.848 2.288 27.792 6.848 38.864 4.56 11.040 12.88 22.928 24.944 35.6 11.44 12.528 18.752 22.336 21.92 29.472 3.152 7.104 4.752 16.16 4.752 27.12 0 10.064-2.336 18.256-6.96 24.592-4.64 6.336-11.984 9.52-22.048 9.52-16.704 0-34.256-5.952-52.656-17.856l-21.792 46.384c24.288 16.544 51.184 24.816 80.72 24.816 25.52 0 45.664-7.072 60.416-21.216 14.768-14.16 22.16-33.824 22.16-59.024 0-17.648-2.544-32.592-7.664-44.896s-15.696-27.088-31.776-44.416c-10.352-11.28-16.976-19.984-19.824-26.096s-4.304-14.416-4.304-24.944v-14.144h-54.736zM761.6 556c0 12.208 3.28 21.616 9.856 28.176 6.576 6.576 16.128 9.856 28.64 9.856 12.688 0 22.288-3.36 28.768-10.096 6.496-6.72 9.744-16.032 9.744-27.936 0-11.76-3.328-21.024-9.984-27.84-6.64-6.8-16.16-10.208-28.528-10.208-12.352 0-21.872 3.328-28.512 9.968-6.656 6.656-9.984 16.016-9.984 28.080z" />
<glyph unicode="&#xe65c;" glyph-name="truck-time" d="M242.064 345.472c-0.16 0-0.336 0-0.48 0-59.824 0-108.448-48.352-108.72-108.272-0.256-60.032 48.208-108.928 108.24-109.184 0.192 0 0.336 0 0.496 0 59.792 0 108.432 48.368 108.72 108.272 0.24 60.048-48.208 108.912-108.256 109.184zM740.4 345.472c-0.16 0-0.336 0-0.496 0-59.808 0-108.448-48.352-108.72-108.272-0.256-60.032 48.208-108.928 108.256-109.184 0.176 0 0.32 0 0.464 0 59.808 0 108.464 48.368 108.72 108.272 0.256 60.048-48.192 108.912-108.224 109.184zM753.776 669.248c0-25.696-38.592-25.696-38.592 0s38.592 25.712 38.592 0zM723.056 766.528h22.848v-97.264h-22.848v97.264zM776.81 598.377l-51.221 63.703 17.818 14.327 51.221-63.703-17.818-14.327zM747.312 507.136v28.592h-23.952v-28.592c-71.904 5.808-142.592 76.512-148.4 148.4h28.576v23.952h-28.576c5.808 81.504 76.496 152.192 148.4 158.016v-42.976h23.952v42.992c81.504-5.808 152.192-76.512 158-158.016h-42.992v-23.952h42.992c-5.808-71.904-76.528-142.592-158-148.416zM740.144 873.632c-111.184 0-201.312-90.128-201.312-201.296 0-111.2 90.128-201.312 201.312-201.312 111.168 0 201.296 90.128 201.296 201.312 0 111.168-90.128 201.296-201.296 201.296zM967.808 725.328h-36.64c4.768-16.992 7.504-34.832 7.504-53.328 0-108.992-88.336-197.328-197.328-197.328-109.008 0-197.344 88.336-197.344 197.328 0 18.496 2.736 36.336 7.504 53.328h-160.224c-6.032 0-14.544-1.872-14.544-7.888v-334.064c0-5.984-5.136-10.912-11.040-10.912-5.888 0-11.024 4.928-11.024 10.912v296.848c0 5.984-0.688 11.936-6.688 11.936h-19.296c-6 0-7.168-5.952-7.168-11.936v-23.84c0-5.984-8.656-8.368-14.656-8.368h-153.776c-5.984 0-13.408-5.488-16.464-10.656l-85.776-145.12c-3.072-5.168-5.568-14.96-5.568-20.96v-224.32c0-6.048 4.912-7.76 10.928-7.76h53.6c0.304 33.104 14.048 68.56 38.8 93.216 24.864 24.752 57.888 39.344 92.992 39.344h0.592c35.216 0 69.92-15.616 94.704-40.624s39.856-59.76 39.856-94.976c0-0.048 0 3.024 0 3.024h231.488c0.816 33.104 14.432 68.064 38.704 92.24 24.864 24.768 57.888 40.336 92.992 40.336h0.592c71.44 0 129.408-66.304 131.056-132.56h96.256c6 0 10.912 1.712 10.912 7.76v470.48c-0.032 6.016-4.944 7.888-10.944 7.888z" />
<glyph unicode="&#xe65d;" glyph-name="user" d="M759.664 276.736c-96.528 22.336-186.4 41.888-142.88 124.112 132.496 250.368 35.12 384.256-104.784 384.256-142.624 0-237.6-139.040-104.784-384.256 44.816-82.72-48.4-102.272-142.88-124.112-78.064-18.032-88.128-54.896-89.088-117.296-0.4-26.8 21.712-48.56 48.496-48.56h576.576c26.752 0 48.88 21.76 48.432 48.56-0.944 62.416-11.040 99.264-89.088 117.296z" />
<glyph unicode="&#xe65e;" glyph-name="wrench" d="M608.72 887.376v-236.624l-193.456-0.032v236.624c-76.144-36.224-128.976-113.68-128.928-203.6-0.048-89.936 52.736-167.44 128.928-203.712l-0.016-471.408h193.472v471.44c76.144 36.256 128.976 113.712 128.944 203.632 0 89.968-52.752 167.424-128.944 203.68z" />
<glyph unicode="&#xe65f;" glyph-name="xml" d="M114.528 934.224v-963.008h794.944v963.008h-794.944zM189.776 868.368h644.432v-475.68h-644.432v475.68zM335.184 56.624l-42.72 75.024-9.392 25.68-9.024-25.68-43.056-75.024h-51.76l74.688 123.664-67.728 119.504h57.312l37.52-70.192 8.336-24.656 7.984 24.656 39.248 70.192h51.744l-70.16-117.056 73.648-126.096h-56.64zM652.672 56.624h-47.6v126.096l5.216 48.288h-2.096l-14.928-38.912-51.76-90.656h-15.264l-54.528 91.008-15.296 38.56h-1.728l6.96-47.936v-126.432h-45.152v243.136h43.424l64.96-111.152 11.472-27.808h1.392l10.4 28.496 61.488 110.464h43.072v-243.152zM848.24 56.624h-153.872v243.152h47.6v-200.784h106.288v-42.368zM306.896 637.792l117.904-72.912v37.616l-81.456 48.352 81.456 48v37.616l-117.904-72.592zM445.36 529.92h42.816l91.152 244.512h-42.816zM599.056 698.848l81.952-48-81.952-48.352v-37.616l117.92 72.912v26.080l-117.92 72.592z" />
<glyph unicode="&#xe660;" glyph-name="zip" d="M114.512 934.224v-963.008h794.976v963.008h-794.976zM451.728 257.408l-103.52-145.216-17.696-13.184h121.216v-42.368h-168.464v42.368l102.832 143.808 18.064 14.592h-120.896v42.368h168.464v-42.368zM534.4 56.624h-47.6v243.152h47.6v-243.152zM742.128 183.936c-5.328-10.56-12.384-19.184-21.184-25.904s-18.816-11.568-30.048-14.56c-11.232-3.024-22.88-4.528-34.912-4.528-1.168 0-3.008 0-5.568 0s-5.2 0.064-7.984 0.192c-2.784 0.096-5.504 0.288-8.176 0.496-2.656 0.256-4.56 0.464-5.712 0.72v-83.712h-47.584v240.704c9.712 1.84 20.432 3.28 32.128 4.336 11.68 1.024 23.328 1.568 34.912 1.568 12.048 0 24.16-1.008 36.32-2.976s23.088-5.904 32.816-11.808c9.728-5.904 17.664-14.128 23.792-24.656s9.2-24.256 9.2-41.152c-0.016-15.28-2.672-28.192-8-38.72zM834.224 392.688h-644.432v475.68h644.416v-475.68zM684.992 254.288c-4.512 3.008-9.664 5.056-15.456 6.256-5.792 1.152-11.696 1.712-17.712 1.712-4.64 0-9.024-0.16-13.2-0.528-4.176-0.336-7.536-0.752-10.064-1.184v-78.88c0.928-0.224 2.32-0.464 4.16-0.688 1.856-0.224 3.824-0.4 5.904-0.528 2.096-0.096 4.112-0.16 6.080-0.16s3.424 0 4.336 0c6.256 0 12.448 0.56 18.592 1.712 6.128 1.152 11.632 3.312 16.496 6.432s8.736 7.472 11.632 13.024 4.336 12.848 4.336 21.872c0 7.664-1.392 13.968-4.176 18.944-2.768 4.976-6.416 8.976-10.928 12.016zM560.432 732.784h109.008v69.344c0 6.4-5.248 11.664-11.68 11.664h-380.784c-6.4 0-11.664-5.248-11.664-11.648v-83.456h261.776c8.48 8.688 20.288 14.096 33.344 14.096zM535.968 686.144v-132.96c0-12.816 10.464-23.296 23.312-23.296h176.096c12.816 0 23.312 10.48 23.312 23.296v132.96c0 12.816-10.496 23.296-23.312 23.296h-176.096c-12.848 0-23.312-10.48-23.312-23.296zM682.32 665.312c0 6.432 5.248 11.664 11.664 11.664h21.008c6.432 0 11.68-5.216 11.68-11.664v-91.28c0-6.432-5.248-11.664-11.68-11.664h-21.008c-6.4 0-11.664 5.216-11.664 11.664v91.28zM565.712 634.832c0 6.432 5.248 11.664 11.664 11.664h30.32c6.432 0 11.68-5.232 11.68-11.664v-30.336c0-6.432-5.248-11.664-11.68-11.664h-30.32c-6.4 0-11.664 5.216-11.664 11.664v30.336zM476.496 685.216h29.152v-48.128h-29.152v48.128zM348.656 602.256h29.12v-48.128h-29.12v48.128zM284.688 602.256h29.152v-48.128h-29.152v48.128zM476.496 602.256h29.152v-48.128h-29.152v48.128zM276.976 425.552h380.784c6.432 0 11.68 5.248 11.68 11.664v69.344h-109.008c-13.056 0-24.88 5.408-33.344 14.080h-261.776v-83.424c0-6.416 5.248-11.664 11.664-11.664zM284.688 685.216h29.152v-48.128h-29.152v48.128zM348.656 685.216h29.12v-48.128h-29.12v48.128zM412.56 685.216h29.152v-48.128h-29.152v48.128zM412.56 602.256h29.152v-48.128h-29.152v48.128z" />
<glyph unicode="&#xe661;" glyph-name="zoomin" d="M572.368 586.992h-125.344v125.344h-83.52v-125.344h-125.312v-83.536h125.312v-125.328h83.52v125.328h125.344zM403.712 321.264c-129.184 0-234.288 105.088-234.288 234.24 0 129.2 105.088 234.288 234.288 234.288s234.256-105.088 234.256-234.288c0-129.152-105.088-234.24-234.256-234.24zM941.6 106.464l-270.592 270.56c35.12 52.384 54 113.984 54 178.48 0 85.808-33.408 166.496-94.096 227.216-60.688 60.688-141.376 94.096-227.184 94.096s-166.512-33.408-227.232-94.096c-60.656-60.672-94.096-141.344-94.096-227.168s33.44-166.496 94.096-227.2c60.688-60.672 141.376-94.080 227.216-94.080 65.248 0 127.504 19.312 180.256 55.216l270.336-270.336 87.296 87.312z" />
<glyph unicode="&#xe662;" glyph-name="zoomout" d="M403.712 321.264c-129.2 0-234.288 105.088-234.288 234.24 0 129.2 105.072 234.288 234.288 234.288s234.272-105.088 234.272-234.288c0-129.152-105.12-234.24-234.272-234.24zM941.6 106.464l-270.592 270.56c35.12 52.384 54.016 113.984 54.016 178.48 0 85.808-33.44 166.496-94.128 227.216-60.672 60.688-141.344 94.096-227.168 94.096-85.808 0-166.496-33.408-227.216-94.096-60.688-60.672-94.112-141.344-94.112-227.168s33.424-166.496 94.096-227.2c60.688-60.672 141.376-94.080 227.216-94.080 65.232 0 127.488 19.312 180.256 55.216l270.336-270.336 87.296 87.312zM228.384 599.856h341.808v-85.456h-341.808v85.456z" />
<glyph unicode="&#xe800;" glyph-name="weight" d="M919.408 446.32c0-87.2 0.976-174.384 0-260.624-0.992-61.712-42.128-118.528-103.856-138.128-18.608-5.888-37.232-8.832-56.832-8.832-165.568 0-330.176 0-495.744 0-60.752 0-107.76 24.48-139.12 77.392-12.736 21.568-20.56 45.072-20.56 70.544 0 104.848 0 209.664 0 314.512 0 68.56-1.968 138.128 0.976 206.72 1.968 62.704 33.312 108.752 92.096 135.2 18.624 8.816 38.224 13.696 57.808 13.696 172.432 0 344.88 0.992 518.288 0 43.104 0 80.336-17.632 108.752-49.952 27.44-30.368 40.192-66.624 40.192-106.8-2-86.208-2-169.488-2-253.728v0zM510.848 477.664c49.008 0 97.008 0 145.984 0 7.824 0 12.736 1.952 18.608 8.832 35.28 45.056 71.536 89.152 106.8 133.232 12.736 15.68 12.736 15.68-1.952 31.36-36.256 36.256-77.408 63.664-125.408 82.304-40.176 15.664-82.32 26.448-125.408 26.448-29.408 0-59.76 0-89.152-5.872-28.416-4.912-56.848-14.704-83.28-26.448-47.024-18.624-87.2-48.016-121.504-85.248-5.872-6.848-4.896-10.768 0-16.64 38.224-47.024 75.44-94.064 112.688-141.072 3.904-5.888 8.816-6.88 15.664-6.88 48.992 0.96 97.968-0.016 146.96-0.016zM633.312 687.328c-1.968-9.792-3.904-20.576-6.848-30.368-3.936-17.648-7.84-35.264-11.76-52.912-4.896-22.528-10.784-44.080-15.664-66.608-1.968-6.88-3.92-14.704-5.872-21.584-1.008-2.944-3.936-5.856-5.872-5.856-22.544 0-46.064 0-68.592 0-0.992 0-1.968 0.976-4.912 1.952 39.184 58.784 77.408 117.584 116.592 176.352 0.96 0.016 1.952 0.016 2.928-0.976z" />
<glyph unicode="&#xe801;" glyph-name="barcode" d="M73.456 850.752h71.6v-805.504h-71.6v805.504zM198.752 850.752h71.616v-805.504h-71.616v805.504zM297.2 850.752h71.6v-805.504h-71.6v805.504zM422.512 850.752h35.808v-805.504h-35.808v805.504zM512 850.752h35.792v-805.504h-35.792v805.504zM601.488 850.752h98.464v-805.504h-98.464v805.504zM780.496 850.752h89.52v-805.504h-89.52v805.504zM914.736 850.752h35.792v-805.504h-35.792v805.504z" />
<glyph unicode="&#xe802;" glyph-name="barcode-change" d="M945.472 556.016v322.976h-35.792v-286.208c3.328-2.96 6.432-6.144 9.648-9.232 12.208-12.192 26.144-27.536 26.144-27.536zM68.384 878.992h71.6v-805.504h-71.6v805.504zM193.68 878.992h71.616v-805.504h-71.616v805.504zM292.128 73.488h71.6v73.312c-30.656 52.688-48.304 113.888-48.304 179.232 0 65.36 17.648 126.56 48.304 179.232v373.728h-71.6v-805.504zM417.44 73.488h2.672c2.672 0-1.76 1.872-2.672 2.8v-2.8zM453.248 878.992h-35.808v-303.184c11.2 11.44 23.168 22.080 35.808 31.936v271.248zM542.72 878.992h-35.792v-236.624c11.568 6.064 23.52 11.504 35.792 16.288v220.336zM694.88 682.304v196.688h-98.464v-204.112c24.512 5.312 49.936 8.192 76.032 8.192 7.552-0.016 15.008-0.32 22.432-0.768zM864.944 878.992h-89.504v-211.056c31.968-9.632 62-23.616 89.504-41.248v252.304zM945.472 73.488v22.576c-6.576-7.808-13.44-15.376-20.656-22.576h20.656zM559.216 455.984c0 0 73.216 46.528 158.672 24.528l-31.776-72.72 162.272 63.68-68.272 151.392-32.928-75.344c-44.816 11.744-149.936 28.56-241.888-38.096-0.032 0-168.048-103.568-89.568-302.88l71.568 28.32c-0.016 0.016-66.048 124.688 71.92 221.12zM961.472 369.040c-2.896 10.432-6.352 21.104-10.688 32.112l-71.568-28.256c0 0 65.936-124.704-72.064-221.088 0 0-73.264-46.448-158.672-24.48l31.824 72.752-162.32-63.664 68.256-151.392 32.944 75.344c44.848-11.776 149.92-28.608 241.888 38.016 0.016-0.032 73.104 45.008 100.4 132.848 11.808 37.968 14.944 83.984 0 137.808z" />
<glyph unicode="&#xe803;" glyph-name="barcode-view" d="M73.472 850.752h71.6v-805.504h-71.6v805.504zM198.752 45.248h71.616v304.384c-39.104 38.112-65.344 89.296-71.616 146.56v-450.944zM198.752 549.344c6.272 57.264 32.512 108.432 71.616 146.56v154.848h-71.616v-301.408zM368.8 850.752h-71.6v-132.368c21.504 15.632 45.552 27.936 71.6 35.84v96.528zM297.2 45.248h71.6v246.080c-26.032 7.904-50.080 20.208-71.6 35.84v-281.92zM422.496 281.696v-236.448h35.808v236.576c-6.352-0.496-12.704-0.976-19.184-0.976-5.6 0.016-11.104 0.48-16.624 0.848zM458.32 763.712v87.040h-35.808v-86.912c5.52 0.384 11.008 0.848 16.624 0.848 6.464 0 12.832-0.464 19.184-0.976zM547.792 850.752h-35.792v-97.28c12.432-3.92 24.336-8.992 35.792-14.784v112.064zM512 45.248h35.792v261.616c-11.472-5.792-23.36-10.864-35.792-14.784v-246.832zM601.504 701.712c48.736-44.256 79.536-107.936 79.536-178.96 0-45.632-12.864-88.128-34.816-124.544l53.728-53.728v506.272h-98.448v-149.040zM601.504 45.248h98.448v130.432l-98.448 98.464zM780.496 263.936l47.632-47.616-47.632-47.632v-123.44h89.504v805.504h-89.504zM914.752 850.752h35.776v-805.504h-35.776v805.504zM584.016 517.328c0-81.005-65.667-146.672-146.672-146.672s-146.672 65.667-146.672 146.672c0 81.005 65.667 146.672 146.672 146.672s146.672-65.667 146.672-146.672z" />
<glyph unicode="&#xe804;" glyph-name="history" d="M205.008 517.296c32.336-16.192 32.336-16.192 48.448 16.128l16.144 32.304c16.208 32.304 16.208 32.304-16.144 48.464l-32.304 16.128c-16.208 16.208-16.208 16.208-32.336-16.128l-16.16-32.32c-16.096-32.304-16.096-32.304 0-48.448l32.352-16.128zM303.968 76.448l28.416-16.128c27.76-16.128 27.76-16.128 43.92 11.664l16.16 27.76c16.144 28.48 16.144 28.48-11.648 44.608l-28.416 16.112c-27.824 16.128-27.824 16.128-43.92-12.304l-16.16-27.76c-16.128-27.776-16.128-27.776 11.648-43.952zM252.24 272.96c-16.192 27.776-16.192 27.776-44.56 11.616l-27.776-16.128c-27.776-16.128-27.776-16.128-11.68-43.904l16.16-28.416c16.144-27.776 16.144-27.776 43.968-11.632l27.728 16.128c28.464 16.144 28.464 16.144 12.336 43.92l-16.176 28.416zM495.824 113.344c-32.336 0-32.336 0-32.336-32.304v-32.368c0-32.32 0-32.32 32.336-32.32h32.336c32.304 0 32.304 0 32.304 32.32v32.368c0 32.304 0 32.304-32.304 32.304h-32.336zM787.184 679.312c-75.008 75.104-175.168 112.592-275.168 112.592h-70.8v87.744l-141.552-141.6 141.52-141.536v98.336h70.8c74.48 0 148.8-29.040 205.664-85.728 56.752-56.704 85.168-131.024 85.168-205.36 0-50.704-8.384-85.568-47.168-159.296-16.144-27.76-16.144-27.76 12.288-43.904l27.776-16.16c27.776-16.144 27.776-16.144 43.92 11.664 41.328 71.712 60.128 129.232 60.128 208.064 0 100.064-37.488 200.208-112.576 275.184zM124.24 420.32v-32.304c0-32.336 0-32.336 32.336-32.336h32.336c32.304 0 32.304 0 32.304 32.336v32.304c0 32.304 0 32.304-32.304 32.336h-32.336c-32.336 0-32.336 0-32.336-32.336zM715.616 148.224c-16.144 28.432-16.144 28.432-43.92 12.32l-28.416-16.128c-27.776-16.176-27.776-16.176-11.648-44.608l16.16-27.76c16.096-27.792 16.096-27.792 43.872-11.664l28.416 16.176c27.776 16.128 27.776 16.128 11.648 43.92l-16.112 27.744zM504.512 312.624l193.408 190.112-34.16 34.736-158.672-155.92-93.536 95.168-34.736-34.192z" />
<glyph unicode="&#xe81a;" glyph-name="calculate" d="M98.48 173.184c0-76.576 62.112-138.704 138.72-138.704h252.784v391.504h-391.504v-252.8zM228.816 322.112h49.184l26.944-41.856 28.4 41.856h47.296l-51.616-72.112 56.336-80.144h-49.456l-30.992 47.168-31.232-47.168h-47.168l54.912 78.432-52.608 73.824zM786.816 861.52h-252.8v-391.488h391.504v252.768c0 76.608-62.096 138.72-138.704 138.72zM761.824 638.624h-79.136v40.272h79.136v-40.272zM98.48 722.8v-252.784h391.488v391.504h-252.768c-76.608 0-138.72-62.112-138.72-138.72zM287.952 723.904h36.704v-54.64h55.2v-37.68h-55.2v-54.64h-36.704v54.64h-55.040v37.68h55.040v54.64zM534.016 34.48h252.8c76.608 0 138.704 62.128 138.704 138.704v252.8h-391.504v-391.504zM722.64 357.536h30.256l-52.608-217.36h-29.68l52.032 217.36z" />
<glyph unicode="&#xe81b;" glyph-name="internalinfo" d="M718.384 577.424c-34.096 0-61.712 27.648-61.712 61.696 0 34.080 27.632 61.712 61.712 61.712 34.064 0 61.712-27.648 61.712-61.712 0.016-34.064-27.648-61.696-61.712-61.696zM748.96 490.016c-4.128-19.84-64.256-129.456-81.712-166.528-10-21.248-29.6-50.64-25.296-75.376 3.408-19.664 23.728-30.32 41.456-34.576 5.872-1.424 22.816-3.328 22.816-11.952 0-3.488-2.784-6.272-6.288-6.336 0-0.096-133.488-0.096-133.488-0.096-19.040 0-35.632 13.504-37.984 32.384-2.768 21.28 11.664 40.416 20.32 58.608 18.656 38.96 39.84 76.816 58.352 115.904 6.672 14.112 12.896 28.4 19.648 42.416 6.784 13.984 15.216 29.792 9.632 45.632-6.016 16.864-25.904 25.36-42 29.28-5.888 1.36-22.848 3.296-22.848 11.872 0 3.536 2.8 6.304 6.304 6.384 0 0.096 133.44 0.096 133.44 0.096 19.76 0 37.552-15.44 38.608-35.12 0.256-4.16-0.128-8.352-0.96-12.592zM383.664 301.824l-139.776 130.176 139.776 130.176v-95.616h118.448v-69.12h-118.448z" />
<glyph unicode="&#xe81c;" glyph-name="print" d="M81.408 257.568h861.184v349.776h-861.184v-349.776zM773.44 490.752c29.712 0 53.808-24.352 53.808-54.4s-24.096-54.416-53.808-54.416-53.84 24.352-53.84 54.416c0 30.032 24.112 54.4 53.84 54.4zM259.344 44.448h513.008v177.504h-513.008v-177.504zM289.008 179.84h453.68v-31.088h-453.68v31.088zM289.008 117.648h453.68v-31.088h-453.68v31.088zM259.344 851.552h507.504v-155.456h-507.504v155.456z" />
<glyph unicode="&#xe81d;" glyph-name="print-awb" d="M81.408 257.568h861.184v349.776h-861.184v-349.776zM773.44 490.752c29.712 0 53.808-24.352 53.808-54.4s-24.096-54.416-53.808-54.416-53.84 24.352-53.84 54.416c0 30.032 24.112 54.4 53.84 54.4zM259.344 44.448h513.008v177.504h-513.008v-177.504zM289.008 179.84h453.68v-31.088h-453.68v31.088zM289.008 117.648h453.68v-31.088h-453.68v31.088zM255.024 863.472h42.224v-191.824h-42.224v191.824zM328.912 863.472h42.224v-191.824h-42.224v191.824zM386.96 863.472h42.224v-191.824h-42.224v191.824zM460.832 863.472h21.12v-191.824h-21.12v191.824zM513.6 863.472h21.104v-191.824h-21.104v191.824zM566.368 863.472h58.048v-191.824h-58.048v191.824zM671.92 863.472h52.768v-191.824h-52.768v191.824zM751.056 863.472h21.104v-191.824h-21.104v191.824z" />
</font>
</defs>
</svg>
