<?xml version="1.0" encoding="utf-8"?>
<!-- Generator: Adobe Illustrator 16.0.0, SVG Export Plug-In . SVG Version: 6.00 Build 0)  -->
<!DOCTYPE svg PUBLIC "-//W3C//DTD SVG 1.1//EN" "http://www.w3.org/Graphics/SVG/1.1/DTD/svg11.dtd">
<svg version="1.1" id="Layer_1" xmlns="http://www.w3.org/2000/svg" xmlns:xlink="http://www.w3.org/1999/xlink" x="0px" y="0px"
	 width="64px" height="64px" viewBox="0 0 64 64" enable-background="new 0 0 64 64" xml:space="preserve">
<g>
	<path fill="#010101" d="M53.213,40.72c0-7.28,0-35.584,0-35.584h-1.968H11.344L7.021,7.689V59h44.224v-4.578h6.356
		C57.602,54.423,53.213,50.898,53.213,40.72z M50.303,33.035h-7.569v-8.103h7.569V33.035z M31.774,15.585v8.101H23.31v-8.101H31.774
		z M33.021,15.585h8.465v8.101h-8.465V15.585z M14.251,15.585h7.813v8.101h-7.813V15.585z M14.251,24.934h7.813v8.102h-7.813V24.934
		z M14.251,34.28h7.813v6.441c0,0.581,0.012,1.133,0.034,1.661h-7.847V34.28z M23.31,40.722V34.28h8.465v6.441
		c0,0.581,0.013,1.133,0.036,1.661h-8.465C23.322,41.858,23.31,41.306,23.31,40.722z M23.31,33.035v-8.103h8.465v8.103H23.31z
		 M33.021,24.934h8.465v8.102h-8.465V24.934z M50.303,23.686h-7.569v-8.101h7.569V23.686z M22.174,43.629
		c0.328,4.119,1.344,6.506,2.357,7.887h-8.126c-0.197-0.176-0.528-0.547-0.876-1.268c-0.524-1.09-1.136-3.102-1.255-6.619H22.174z
		 M26.192,51.516c-0.977-0.898-2.367-3.014-2.769-7.887h8.461c0.33,4.119,1.347,6.506,2.359,7.887H26.192z M35.904,51.516
		c-0.977-0.898-2.368-3.014-2.769-7.887h8.461c0.328,4.119,1.347,6.506,2.359,7.887H35.904z M33.057,42.383
		c-0.022-0.526-0.035-1.077-0.035-1.661V34.28h8.465v6.441c0,0.581,0.013,1.133,0.035,1.661H33.057z M42.733,40.722V34.28h7.569
		v6.439v1.248c0,0.141,0.002,0.276,0.004,0.415h-7.538C42.744,41.858,42.733,41.306,42.733,40.722z M48.337,56.093H9.929V9.352
		l1.415-0.836c0,7.837,0,27.109,0,33.869c0,11.218,4.391,12.039,4.391,12.039h32.604L48.337,56.093L48.337,56.093z M51.245,51.516
		h-2.908h-2.721c-0.978-0.898-2.368-3.014-2.77-7.887h7.493c0.131,3.065,0.634,5.705,1.506,7.887H51.245z"/>
</g>
</svg>
