<?xml version="1.0" encoding="utf-8"?>
<!-- Generator: Adobe Illustrator 16.0.0, SVG Export Plug-In . SVG Version: 6.00 Build 0)  -->
<!DOCTYPE svg PUBLIC "-//W3C//DTD SVG 1.1//EN" "http://www.w3.org/Graphics/SVG/1.1/DTD/svg11.dtd">
<svg version="1.1" id="Layer_1" xmlns="http://www.w3.org/2000/svg" xmlns:xlink="http://www.w3.org/1999/xlink" x="0px" y="0px"
	 width="64px" height="64px" viewBox="0 0 64 64" enable-background="new 0 0 64 64" xml:space="preserve">
<g>
	<path d="M32.843,3.5c-15.255,0-27.62,12.366-27.62,27.62c0,8.705,4.031,16.464,10.323,21.526L5.223,58.74h27.62
		c15.253,0,27.619-12.365,27.619-27.62C60.462,15.866,48.095,3.5,32.843,3.5z M32.841,56.283H14.389l5.841-3.392
		C12.728,48.535,7.679,40.42,7.679,31.12c0-13.897,11.266-25.162,25.162-25.162c13.897,0,25.164,11.265,25.164,25.162
		C58.005,45.017,46.739,56.283,32.841,56.283z"/>
	<path d="M32.843,17.699c-7.413,0-13.422,6.01-13.422,13.421c0,7.412,6.009,13.421,13.422,13.421c2.778,0,5.424-0.935,7.573-2.392
		c0.142-0.062,0.269-0.147,0.379-0.254c0.002-0.001,0.004-0.002,0.006-0.004l-0.001-0.001c0.243-0.236,0.396-0.565,0.396-0.931
		c0-0.719-0.581-1.301-1.3-1.301c-0.257,0-0.495,0.077-0.696,0.205l-0.005-0.006c-1.786,1.301-3.975,2.082-6.353,2.082
		c-5.976,0-10.82-4.845-10.82-10.82c0-5.975,4.844-10.819,10.82-10.819c5.975,0,10.819,4.845,10.819,10.819
		c0,0.903-0.112,1.78-0.321,2.617c-0.043,0.165-0.104,0.323-0.153,0.485c-0.316,0.83-0.857,1.293-1.678,1.293
		c-0.971,0-1.757-0.786-1.757-1.756c0-0.008,0.001-0.016,0.001-0.022h-0.001V31.12v-4.866h-0.009
		c-0.037-0.654-0.575-1.175-1.239-1.175c-0.532,0-0.984,0.335-1.162,0.805c-1.207-1.041-2.779-1.673-4.5-1.673
		c-3.815,0-6.91,3.094-6.91,6.909s3.095,6.909,6.91,6.909c1.966,0,3.736-0.826,4.995-2.144c0.743,1.28,2.125,2.144,3.713,2.144
		c1.485,0,2.795-0.757,3.566-1.905c0.87-1.296,1.146-3.233,1.146-5.005C46.263,23.709,40.255,17.699,32.843,17.699z M32.843,35.534
		c-2.438,0-4.416-1.976-4.416-4.414s1.977-4.414,4.416-4.414s4.415,1.977,4.415,4.414C37.258,33.559,35.282,35.534,32.843,35.534z"
		/>
</g>
</svg>
