<?xml version="1.0" encoding="utf-8"?>
<!-- Generator: Adobe Illustrator 16.0.0, SVG Export Plug-In . SVG Version: 6.00 Build 0)  -->
<!DOCTYPE svg PUBLIC "-//W3C//DTD SVG 1.1//EN" "http://www.w3.org/Graphics/SVG/1.1/DTD/svg11.dtd">
<svg version="1.1" id="Layer_1" xmlns="http://www.w3.org/2000/svg" xmlns:xlink="http://www.w3.org/1999/xlink" x="0px" y="0px"
	 width="64px" height="64px" viewBox="0 0 64 64" enable-background="new 0 0 64 64" xml:space="preserve">
<path d="M56.352,6.644H7.149c-1.043,0-1.897,0.855-1.897,1.899v34.173c0,1.044,0.854,1.897,1.897,1.897h26.454v14.225l0,0v0.004
	c0,0.522,0.427,0.948,0.949,0.948c0.289,0,0.547-0.128,0.721-0.33l0,0l12.965-14.847h8.113c1.045,0,1.899-0.854,1.899-1.897V8.543
	C58.251,7.499,57.396,6.644,56.352,6.644z M52.472,38.791H10.942c-1.027,0-1.867-0.84-1.867-1.866c0-1.027,0.84-1.869,1.867-1.869
	h41.528c1.027,0,1.868,0.842,1.868,1.869C54.339,37.951,53.499,38.791,52.472,38.791z M52.472,31.211H10.942
	c-1.027,0-1.867-0.841-1.867-1.868s0.84-1.867,1.867-1.867h41.528c1.027,0,1.868,0.84,1.868,1.867S53.499,31.211,52.472,31.211z
	 M52.472,23.629H10.942c-1.027,0-1.867-0.84-1.867-1.867s0.84-1.867,1.867-1.867h41.528c1.027,0,1.868,0.84,1.868,1.867
	S53.499,23.629,52.472,23.629z M52.472,16.12H10.942c-1.027,0-1.867-0.84-1.867-1.867s0.84-1.867,1.867-1.867h41.528
	c1.027,0,1.868,0.84,1.868,1.867S53.499,16.12,52.472,16.12z"/>
</svg>
