<?xml version="1.0" standalone="no"?>
<!DOCTYPE svg PUBLIC "-//W3C//DTD SVG 1.1//EN" "http://www.w3.org/Graphics/SVG/1.1/DTD/svg11.dtd" >
<svg xmlns="http://www.w3.org/2000/svg">
<metadata>Generated by IcoMoon</metadata>
<defs>
<font id="wkfont" horiz-adv-x="1024">
<font-face units-per-em="1024" ascent="960" descent="-64" />
<missing-glyph horiz-adv-x="1024" />
<glyph unicode="&#x20;" d="" horiz-adv-x="512" />
<glyph unicode="&#xe600;" d="M924.443 582.735l-88.25 152.839-272.115-202.565 39.396 336.89h-176.512l39.385-336.876-272.074 202.551-88.262-152.866 311.432-134.366-311.432-134.351 88.262-152.853 272.074 202.512-39.385-336.876 176.526 0.015-39.396 336.863 272.101-202.538 88.25 152.879-311.432 134.365 311.432 134.376zM515.214 448.344v0 0 0 0z" />
<glyph unicode="&#xe601;" d="M1027.936 474.336h-884.048l417.552 414.176-50.32 49.904-501.12-497.040 473.776-469.968 51.568 51.152-395.424 392.16h888v59.616z" />
<glyph unicode="&#xe602;" d="M31.952 415.472h871.36l-388.016-384.816 50.608-50.192 464.912 461.152-491.76 487.728-49.376-48.96 409.728-406.416h-867.456v-58.496z" />
<glyph unicode="&#xe603;" d="M987.664 432.784l0.144 0.048-1.2 1.408c-4.144 5.584-8.592 10.864-13.328 15.936l-185.744 221.6-0.128-0.064c-19.008 23.184-47.872 38-80.208 38-57.248 0-103.68-46.416-103.68-103.68 0-4.032 0.336-7.968 0.8-11.888-28.544 11.68-59.744 18.192-92.512 18.192-32.736 0-64-6.48-92.528-18.16 0.464 3.888 0.8 7.808 0.8 11.84 0 57.264-46.416 103.68-103.696 103.68-32.304 0-61.152-14.8-80.144-37.936h-0.016l-184.576-220.176c-5.616-5.84-10.816-12.016-15.6-18.592l-0.128-0.16c-21.104-29.104-33.6-64.864-33.6-103.584 0-97.552 79.056-176.608 176.592-176.608 87.584 0 160.224 63.792 174.144 147.424l32.912 146.336c33.92 28.88 77.856 46.368 125.808 46.368 48.064 0 92.032-17.632 126.016-46.64l32.192-143.248c12.736-85.040 86.080-150.256 174.64-150.256 97.552 0 176.608 79.072 176.608 176.608 0.016 38.704-12.448 74.432-33.568 103.552zM178.928 205.664c-68.272 0-123.632 55.344-123.632 123.6 0 68.272 55.344 123.632 123.632 123.632s123.632-55.344 123.632-123.632c-0.032-68.304-55.36-123.6-123.632-123.6zM844.64 205.664c-68.272 0-123.616 55.344-123.616 123.6 0 68.272 55.344 123.632 123.616 123.632s123.6-55.344 123.6-123.632c0-68.304-55.328-123.6-123.6-123.6z" />
<glyph unicode="&#xe604;" d="M647.184 298.848c0 0 305.184 20.832 342.128 47.664 13.392 35.744-24.24 214.336-26.704 230.208-0.4 9.584-0.4 9.584-0.96 34.688-0.176 5.376 0.24 13.184 0.912 22.464 10.288 0.704 19.344 8.144 21.504 18.8 2.384 12.048-4.896 23.696-16.416 27.136 0.224 1.376 0.384 2.736 0.624 4.112 10.336 1.472 18.864 9.632 20.16 20.528 1.168 9.984-4.128 19.232-12.528 23.648 2.384 11.456 4.992 22.432 7.76 32.176 6.784 23.44 35.568 54.56 19.008 66.512-21.008 15.168-34.624-0.768-49.392-31.712-41.28-86.592-242.112-19.488-347.312 14.352-3.312-12.672-6.864-25.008-10.544-37.248l-16.608 1.984c-8.048 0.96-15.312-4.784-16.304-12.848-0.992-8.048 4.8-15.36 12.88-16.32l11.088-1.328c-4.352-13.264-8.896-26.24-13.648-38.832l-12.32 5.824c-7.312 3.488-16.064 0.368-19.536-6.96-3.504-7.344-0.352-16.080 6.976-19.568l14.096-6.672c-4.896-11.792-10.064-23.104-15.216-34.128l-10.88 5.152c-7.36 3.488-16.112 0.368-19.568-6.944-3.52-7.344-0.352-16.080 6.96-19.584l10.368-4.896c-5.216-9.872-10.464-19.488-15.936-28.512l-10.016 6.976c-6.64 4.656-15.84 2.992-20.432-3.664-4.624-6.672-3.008-15.808 3.648-20.464l10.88-7.552c-8.944-13.008-18.144-24.864-27.536-35.6l-7.088 8.624c-5.104 6.256-14.4 7.12-20.656 1.968-6.288-5.152-7.168-14.416-2.016-20.672l9.2-11.168c-8.432-7.712-17.008-14.592-25.712-20.352-0.144 0.448-5.744-0.592-15.264-2.352l-1.536 6.832c-1.744 7.92-9.616 12.928-17.52 11.152-7.936-1.744-12.928-9.6-11.12-17.536l1.248-5.584c-46.016-7.632-119.296-16.784-177.344-5.552-124.416 28.88-177.088-74.928-178.752-134.24 28.16-19.168 70.576-61.056 268.496-83.616 162.752-18.496 304.24 29.136 350.928 43.104zM1006.064 308.56c-154.128-27.328-65.952-20.096-343.472-43.152-444.544-119.344-648.56 43.152-648.56 43.152l-8.624-74.064 67.936-35.408 16.512 15.968 27.664-6.736v-22.64l36.016-9.632 8.432 19.712 27.2-3.808v-23.456l47.68-9.312 12.304 17.248 36.416-6.72 7.456-20.16 33.984-1.072 14.336 22.096 30.576-2.528 7.584-23.488h38.848l3.904 19.728 39.6 4.448 7.76-22.048 52.528 2.512 4.144 29.36 137.568 29.728 29.952-54.896h45.344l7.808 24.736 27.392 4.592 9.248-25.984 41.84 6.72 6.736 26.416 39.776 6.736 13.008-29.792 37.264 6.688 6.784 27.472 25.952 6.896 20.928-25.568 43.376 17.168-13.2 109.088z" />
<glyph unicode="&#xe605;" d="M414.096 754.56c0 112.416 90.832 203.184 203.184 203.184h152.72v-203.184h-102.32c-27.328 0-50.4-23.088-50.4-50.448v-102.304h152.72v-203.184h-152.72v-458.288h-203.184v458.288h-152.752v203.184h152.752v152.752z" />
<glyph unicode="&#xe606;" d="M536.368 375.584c-23.184 17.696-47.68 34.080-72.224 54.48-34.048 28.64-21.808 69.52 13.632 96.752 31.344 24.528 68.128 53.12 87.2 80.4 55.84 84.464 29.984 204.352-57.232 267.040h79.040l85.792 54.496h-271.088c-196.208 0-344.72-74.96-332.432-257.504 8.176-125.376 122.608-193.488 264.32-178.512-29.968-47.712-9.552-95.376 25.904-133.52-365.168-8.128-407.424-212.528-321.568-307.904 55.872-61.328 155.328-85.84 257.504-83.104 121.248 1.344 248 43.6 305.216 125.376 49.040 70.816 81.728 171.648-64.064 282v0zM1010.528 496.864h-151.264v144.4h-50.4v-144.4h-156.672v-49.088h156.672v-143.008h50.4v143.008h151.264v49.088zM455.984 748.912c34.096-87.2 27.296-189.408-65.392-218-104.912-32.688-183.968 69.488-200.304 170.32-12.24 73.584 5.488 145.792 76.288 170.336 84.512 28.576 155.328-39.552 189.408-122.656v0zM122.176 197.12c19.088 99.456 140.32 125.296 282.032 125.296 55.872-39.52 113.056-77.664 136.272-119.84 16.336-32.704 12.272-79.072-16.368-115.856-35.408-43.584-95.344-59.92-152.576-64.032-106.304-5.456-194.848 36.816-232.992 84.48-20.416 27.232-23.2 58.576-16.368 89.952v0z" />
<glyph unicode="&#xe607;" d="M66.816 372.896h389.024v-378.56h-389.024v378.56zM570.96 372.896h389.040v-378.56h-389.040v378.56zM66.816 880.768h389.024v-378.576h-389.024v378.576zM570.96 880.768h389.040v-378.576h-389.040v378.576z" />
<glyph unicode="&#xe608;" d="M69.616 892h892.016v-223.008h-892.016v223.008zM69.616 557.504h892.016v-223.008h-892.016v223.008zM69.616 223.008h892.016v-223.008h-892.016v223.008z" />
<glyph unicode="&#xe609;" d="M667.616 305.84c-132.56-190.832-151.696-352.080-151.696-352.080-2.944-13.312-14.752-13.312-17.696 0 0 0-25.040 161.248-154.64 352.096-107.536 150.896-156.144 210.112-156.144 332.896 0 176.048 139.92 316.576 316.672 316.576 175.296 0 319.648-140.528 319.648-316.576-0.016-122.8-94.288-242.656-156.144-332.912zM629.312 632.8c0 68.096-52.992 121.328-122.272 121.328-64.8 0-119.312-53.28-119.312-121.328 0-68.016 54.496-125.728 119.312-125.728 69.28-0.016 122.272 57.712 122.272 125.728z" />
<glyph unicode="&#xe60a;" d="M734.16 593.488l-131.136-221.232-226.288 378.848-376.736-623.104h1014.784l-280.624 465.488zM420.112 502.24l-44.72-74.96-38.768 71.408-75.792-28.576 115.888 192.56 116.144-192.944-72.752 32.512z" />
<glyph unicode="&#xe60b;" d="M1000.352 115.216l-223.824 165.168c-23.632 14.96-44.672 12.304-63.824-6.864l-33.504-36.528c-9.648-9.648-28.864-17.712-42.512-17.888 0 0-57.184-28.256-221.456 136.032 0 0-0.080 0.096-0.16 0.144-0.032 0.048-0.096 0.128-0.112 0.16-164.32 164.32-136.016 221.424-136.016 221.424 0.176 13.664 8.24 32.88 17.968 42.512l36.4 33.536c19.12 19.056 21.792 40.16 6.912 63.824l-165.2 223.84c-16.72 19.92-36.816 19.008-58.576-2.688l-84.688-84.704c-9.664-9.696-19.104-28.784-20.896-42.32 0 0-31.36-234.368 297.008-562.768 328.384-328.416 562.768-297.008 562.768-297.008 13.6 1.776 32.656 11.232 42.336 20.912l84.688 84.688c21.776 21.664 22.672 41.856 2.688 58.528z" />
<glyph unicode="&#xe60c;" d="M910.592 73.824c-38.784 13.456-51.792 13.456-90.592 0-39.888-13.936-55.744-13.936-96.192 0-40.832 13.936-52.384 13.040-90.624 0-40.656-13.936-56.32-13.936-96.224 0-38.832 13.456-51.792 13.456-90.624 0-39.92-13.936-55.76-13.936-96.256 0-19.696 6.768-35.088 10.208-45.76 10.208-10.032 0-25.088-3.424-44.864-10.208-18.4-6.32-33.072-9.408-44.592-10.048v-62.8l0.16-2.496c6.816 3.888 22.176 7.36 41.92 14.064 41.584 14.32 56.4 13.568 95.728 0 38.336-13.072 49.968-14 90.672 0 40.368 13.984 56.032 13.984 96.656 0 40.672-13.888 52.288-13.072 90.672 0 39.264 13.664 54 14.368 95.696 0 38.176-13.072 49.824-13.888 90.656 0 40.464 13.984 56.336 13.984 96.24 0 17.104-5.984 31.024-9.328 41.44-10v64.704c-8.112-4.16-24.176-0.416-44.112 6.576zM506.752 569.888c-14.656 14.64-22 32.432-22 53.44 0 20.896 7.344 38.656 22 53.376 14.64 14.752 32.4 22 53.488 22 20.848 0 38.672-7.248 53.392-22 14.688-14.72 21.936-32.528 21.936-53.376 0-21.008-7.248-38.8-21.936-53.44-14.72-14.704-32.544-22.064-53.392-22.064-21.088 0-38.848 7.36-53.488 22.064zM1017.824 196.56c0-0.032-56.448 78.624-56.448 78.624l-158.512 30.896c4.704 6.416 7.632 14.336 7.632 22.976v158.88c0 21.424-17.376 38.832-38.832 38.832l-155.296 0.048 43.776-77.776h72.624v-105.968l-160 129.504v54.24h-32.864v-27.632l-207.68 168.304v20.256c0 21.456-17.424 38.864-38.896 38.864-9.008 0-17.216-3.2-23.824-8.368l-72.672 58.88 20.16 18.496-78.176 95.744-97.808 24.656c-10.48 2.192-17.008 4.176-23.424-2.448-7.76-7.968-5.648-29.84 7.76-40.688l229.12-185.456v-199.52c0-21.488 17.408-38.88 38.864-38.88h141.952v-166.672c-47.424-30.272-90.624-69.12-91.6-110.528-0.256-11.664 6.256-33.744 15.136-58.080 34.096-10.864 50.704-10.032 87.52 2.816 38.832 13.504 51.76 13.504 90.624 0 39.904-13.904 55.584-13.904 96.224 0 38.24 13.072 49.792 13.968 90.624 0 12.576-4.288 22.64-7.088 31.84-8.768 10 26.608 17.616 51.424 17.328 64.016-1.808 77.936-152.704 146.752-200.176 166.48v91.488l376.272-304.496c3.088-2.48 8.032-3.248 10.864-2.752 2.736 0.432 3.392 0.896 7.328 3.936 16 12.16 50.4 43.392 53.056 46.672 5.744 7.168 4.672 17.632-2.496 23.424zM332.224 526.752v97.744l120.72-97.728-120.72-0.016zM539.936 336.656c-17.792-7.584-46.336-20.496-76.32-37.344v136.8l26.864 60.32 49.472-40.048v-119.712h-0.016z" />
<glyph unicode="&#xe60d;" d="M10.784 697.296c412.528 0 751.328-337.392 751.328-749.904h249.504c0 550.016-450.832 999.408-1000.832 999.408v-249.504zM146.864 196.896c69.488 0 124.752-55.296 124.752-124.784 0-69.44-55.264-124.72-124.752-124.72-69.424 0-124.752 55.28-124.752 124.72 0 69.488 55.312 124.784 124.752 124.784v0zM10.784 347.152c219.712 0 399.744-180.048 399.744-399.76h250.912c0 357.232-292 649.232-650.656 649.232v-249.472z" />
<glyph unicode="&#xe60e;" d="M956-48.72l-322.688 322.576c-66.928-57.712-151.376-89.216-240.688-89.216-98.608 0-191.312 38.4-261.024 108.16-69.728 69.696-108.144 162.432-108.144 261.024 0.016 98.592 38.416 191.312 108.144 261.008 69.712 69.76 162.432 108.16 261.024 108.16 203.536 0 369.168-165.632 369.168-369.168v0 0c0.016-76.208-22.928-148.992-65.568-210.24l326.080-326.016-66.304-66.288zM197.888 748.576c-52-52.032-80.672-121.184-80.672-194.768 0-73.552 28.656-142.72 80.672-194.736 52.016-52 121.168-80.624 194.72-80.624s142.736 28.624 194.72 80.608c52.016 52.032 80.672 121.2 80.672 194.768v0c0 151.84-123.52 275.408-275.376 275.408-73.568 0-142.736-28.672-194.736-80.656z" />
<glyph unicode="&#xe60f;" d="M1020.752 448.192c-67.52 61.12-79.76 119.424-40.112 198.656-84.496 26.752-117.056 74.4-109.376 162.224-87.824-7.664-135.472 24.88-162.208 109.36-79.248-39.664-137.536-27.392-198.672 40.128-61.136-67.52-119.408-79.792-198.64-40.128-26.768-84.48-74.384-117.024-162.256-109.36 7.68-87.824-24.848-135.456-109.36-162.224 39.68-79.232 27.424-137.52-40.096-198.656 67.52-61.152 79.776-119.44 40.096-198.672 84.512-26.752 117.040-74.352 109.36-162.208 87.856 7.68 135.488-24.88 162.256-109.376 79.232 39.664 137.504 27.408 198.64-40.096 61.136 67.52 119.424 79.76 198.672 40.096 26.752 84.496 74.368 117.056 162.208 109.376-7.648 87.856 24.88 135.44 109.376 162.224-39.648 79.216-27.408 137.504 40.112 198.656zM937.904 267.568c-76.832-24.336-106.384-67.632-99.408-147.472-7.552 0.672-14.736 1.008-21.616 1.008-66.24 0-103.808-30.848-125.92-100.432-27.168 13.632-51.664 20.512-74.528 20.512-37.808 0-71.44-18.768-106.048-56.992-34.608 38.256-68.208 56.992-106.032 56.992-22.912 0-47.392-6.896-74.592-20.512-22.032 69.584-59.632 100.432-125.856 100.432-6.912 0-14.112-0.336-21.632-1.008 6.992 79.856-22.56 123.152-99.424 147.472 36.096 72.016 24.928 125.024-36.48 180.624 61.408 55.584 72.576 108.592 36.48 180.608 76.864 24.336 106.4 67.632 99.424 147.472 7.52-0.672 14.72-0.976 21.648-0.976 66.224 0 103.808 30.816 125.84 100.416 27.216-13.616 51.68-20.512 74.592-20.512 37.808 0 71.424 18.736 106.016 56.96 34.608-38.24 68.224-56.96 106.048-56.96 22.896 0 47.376 6.88 74.544 20.512 22.096-69.6 59.648-100.416 125.904-100.416 6.88 0 14.064 0.32 21.616 0.976-6.992-79.84 22.576-123.136 99.408-147.472-36.064-72.016-24.912-125.024 36.48-180.608-61.36-55.6-72.544-108.592-36.464-180.624zM940.032 445.6c-47.52 51.088-58.448 104-34.496 166.864-61.968 26.4-91.136 69.648-92.112 136.144-65.808 0.992-109.632 30.464-136.096 92.112-21.504-8.192-41.6-12.208-60.896-12.208-37.808 0-72 14.944-106.048 46.688-34.048-31.76-68.208-46.688-106.016-46.688-19.312 0-39.408 4-60.88 12.208-26.48-61.616-70.32-91.104-136.112-92.112-0.944-66.512-30.176-109.744-92.128-136.144 23.952-62.88 13.040-115.776-34.496-166.864 47.536-51.104 58.448-104 34.496-166.88 61.952-26.416 91.2-69.632 92.128-136.144 65.792-0.992 109.648-30.464 136.112-92.096 21.472 8.208 41.568 12.224 60.88 12.224 37.808 0 72-14.976 106.032-46.72 34.032 31.744 68.224 46.72 106.064 46.72 19.264 0 39.36-4.032 60.864-12.224 26.464 61.632 70.304 91.104 136.096 92.096 0.976 66.512 30.16 109.728 92.112 136.144-23.952 62.848-13.024 115.776 34.496 166.88zM528.976 329.040l-80.608-80.608-189.616 189.6 80.608 80.608 109.008-109.008 213.472 213.504 80.624-80.608-213.488-213.488z" />
<glyph unicode="&#xe610;" d="M833.488-21.488l-315.76 208.4-309.136-217.856 102.432 362.048-304.56 224.128 379.008 15.328 120.928 356.352 131.888-352.56 379.232-3.888-297.536-233.168 113.504-358.784z" />
<glyph unicode="&#xe611;" d="M762.24 874.064c0-45.84-37.088-82.992-82.992-82.992-45.792 0-82.928 37.152-82.928 82.992 0 45.824 37.168 82.992 82.928 82.992 45.904 0 82.992-37.168 82.992-82.992zM854.896 524.8l-135.296 48.192-60.704 166.672c-15.104 29.12-39.344 49.376-67.936 54.64-67.104 12.528-90.512-64.064-90.512-64.064l-49.968-209.92 141.712 82.72-12.88 27.824c-2.8 6.080-0.16 13.216 5.888 16 6.048 2.864 13.216 0.224 16.032-5.872l16.928-36.48c0.032-0.096 0.096-0.16 0.128-0.24 0.112-0.192 0.112-0.368 0.208-0.592l32.672-70.432 3.28-6.704c1.92-3.744 8.816-10.784 15.264-13.408l131.376-50.112-83.904-144.304-110.032 103.344 22.016 101.168-26.768 57.808-159.648-93.168-61.792-259.408-130.832-204.672c-4.816-6.784-7.264-14.928-7.264-24.624-1.904-16.368 2.448-30.608 13.040-42.752 10.576-12.032 24.144-18.992 40.576-20.992 24.112-1.872 42.48 7.792 55.008 29.008l139.536 218.976c2.88 5.872 6.752 14 11.6 24.768l27.664 116.864 129.008-105.792-152.432-262.032c-4.144-7.2-1.712-16.464 5.472-20.672 2.368-1.408 4.944-2.080 7.568-2.080 5.184 0 10.256 2.736 13.056 7.504l130.24 223.936-0.176-177.488c5.84-28.048 23.696-43.472 53.616-46.432 16.384-0.944 30.64 3.872 42.752 14.496 12 10.736 18.544 23.728 19.488 39.136 0 2.944 0 7.2 0 13.072l-1.104 221.408c0 17.488-4.016 34.928-15.168 46.016l-22.736 21.504 90.768 156.16c24.080-1.424 41.424 12.272 44.944 36.144 2.32 15.632-8.16 30.16-20.688 34.88zM387.024 935.744c-65.584 15.936-131.488-24.4-147.296-89.904l-53.152-219.856 178.944-44.464-5.888-23.696-178.848 44.4-17.328-71.664c-12.768-52.432 9.296-77.856 61.824-91.408 7.664-2 91.712-21.36 125.184-29.056l-13.232-53.152c-2.064-8.096 2.928-16.432 11.104-18.464 1.296-0.336 5.28-1.184 6.544-1.184 6.784 0.064 12.928 4.656 14.672 11.552l107.376 439.552c15.824 65.552-24.368 131.488-89.904 147.344zM394.864 683.28l-130.080 32.512 26.336 109.072 21.76-5.232-21.136-87.536 86.88-21.728 21.824 86.624 21.68-5.456-27.264-108.256z" />
<glyph unicode="&#xe612;" d="M579.76 831.104c-29.136-20.4-50.976-49.52-67.008-81.6l-7.312-18.928c-4.352-13.12-7.264-26.24-8.72-39.312-1.456-7.296-1.456-13.12-2.928-18.976v-11.664l1.472-18.912 2.912-24.8h-16c-71.424 1.472-141.328 17.504-202.512 45.152l-36.4 17.504c-7.28 2.928-13.104 7.296-20.4 11.664-40.768 23.28-77.184 53.888-109.232 87.36-20.416 21.92-39.328 45.232-55.376 69.984-17.456-33.504-27.664-72.848-27.664-113.648 0-14.544 1.456-29.12 4.352-43.664 0-7.296 1.488-13.12 2.976-18.976 13.072-43.68 36.368-83.024 68.416-112.128l16.016-14.56-20.384 4.368c-26.224 7.264-52.448 16.032-77.2 26.24 2.896-52.448 23.328-100.528 55.344-138.416 30.608-36.352 71.424-64.080 117.984-77.152l-53.888-2.944-45.136 1.456c33.504-81.6 110.688-141.296 202.464-148.592-84.48-62.64-189.36-97.6-301.536-97.6 83.024-50.992 177.712-83.008 281.136-88.832h66.992c319.040 17.456 571.056 281.12 571.056 604.496v30.592c11.616 10.192 23.264 20.384 34.96 32.064 27.648 24.752 52.432 53.888 72.816 84.448-33.552-21.84-72.816-33.504-116.528-33.504h-1.456c39.328 26.24 69.888 65.536 85.936 110.752-30.592-16.080-65.568-27.68-100.528-37.904l-4.336-1.456-26.208-5.856c-37.904 40.816-91.776 67.024-151.552 67.024h-4.336c-16.016 0-32.080-1.456-48.096-4.368-23.264-5.824-46.592-16-65.552-27.68l-14.544-11.632z" />
<glyph unicode="&#xe613;" d="M281.184 259.056c0.288-9.872-2.816-29.76-3.664-35.712-6.512-45.696-13.152-91.392-19.904-137.056-3.552-24.080-19.216-28.592-36.032-25.92-4.496 0.72-9.040 1.456-13.376 2.8-12.56 3.792-20 12.848-17.744 25.504 5.024 28.032 11.152 55.856 17.776 83.52 1.664 6.944 22.208 91.472 23.664 99.264s-16.192 51.232-13.776 50.816c1.312-0.24 46 5.824 58.784 0 6.512-10.736 3.984-53.328 4.272-63.216zM144.336 676.336c-20.56 22.096-19.552 55.984 2.288 76.8 22.096 21.056 57.952 20.048 78.336-2.224 20.16-22.048 19.008-56.528-2.576-77.152-22.208-21.232-56.928-20.096-78.048 2.576zM398.176-52.784l-74.464 388.96-20.912-4 80.24-384.96zM238.064 563.44c0 0 10.672 3.328 12.96 3.968 13.936 4.016 29.488-0.32 37.856-1.984 9.968-1.984 66.752 17.92 84.672 28.912 17.936 10.96 57.776 49.792 57.776 56.784s-10.96 36.88-18.928 27.888c-7.968-8.976-82.672-62.768-92.656-63.744-9.968-1.008-74.72 0.992-90.656 8.976-11.408 5.696-52.8 17.92-64.752 13.936s-37.856-17.92-33.872-39.84 20.928-100.624 25.904-120.544c4.976-19.92 21.92-78.688 30.88-92.656 8.976-13.952 14.944-39.856 36.864-41.84s51.808 1.984 79.696 8.976c27.888 6.976 54.8 34.864 63.76 16.944s7.984-40.848 20.912-73.712c12.96-32.88 22.912-77.696 26.912-95.648 4-17.92 1.984-11.968 12.944-19.92 10.976-7.968 39.872-3.984 41.856 5.968 2 9.968-47.824 188.32-53.792 202.256-5.984 13.952-12.96 38.864-41.84 40.848-28.896 1.984-65.744-6.96-77.696-5.968-11.968 1.008-27.904 11.936-32.88 28.896-4.992 16.928-22.432 64.912-27.904 80.688-8.976 25.808 1.984 30.816 1.984 30.816zM211.136 778.496c10.96-3.968 39.856-21.904 39.856-21.904s14.944 103.6 14.944 116.544-20.912 46.832-27.904 46.832c-6.976 0-13.936-6.976-13.936-21.904 0-14.96-11.952-115.584-11.952-115.584zM162.336 406.896c4-6.96 31.888-60.752 30.88-67.728s-0.016-69.712-9.968-79.68c-9.968-9.968-17.936 22.912-17.936 22.912s7.984-32.88-6.976-35.856-15.936 70.688-15.936 70.688-12.96 52.816-2.992 64.768c9.952 11.952 22.928 24.896 22.928 24.896zM867.216 939.744h-580.24c-2.256-50.992 20.672-12.992 33.28-38.656 14.176-28.848-2.496-113.136 21.328-138.032 57.152-59.648 117.344-22.384 162.288-24.88-142.032-11.296-12.224-67.072-68.576-96.512-36.544-19.088 19.792-241.984 39.76-324.096s105.36-95.456 105.36-95.456-90.128-5.248-93.424-56.672c-3.296-51.408 0.512-20.208 24.928-125.136 21.52-92.56 20.976-63.104 17.792-92.88h337.52c40.672 0 71.456 38.256 71.456 79.6v833.312c0 41.36-30.768 79.408-71.472 79.408z" />
<glyph unicode="&#xe614;" d="M852.768 620.368c-16.96-3.968-37.328 26.576-37.328 26.576s0 0-51.488 59.968c-51.472 59.952-80.512 10.368-80.512 10.368s-463.088-622.992-468.192-629.2c-5.072-6.256-38.768-53.76-38.768-53.76h837.52v436.704c0 0-144.256 153.312-161.232 149.344zM858.832 468.016l-99.2 75.792-24.128-34.688-29.792 43.728-124.816-101.808v101.808l-8.688-0.352 12.064 18.464c0 0 97.296 122.56 116.528 144.432s39.6-1.12 39.6-1.12 66.368-77.68 79.2-92.4c12.816-14.704 32.816-9.424 32.816-9.424l33.552-38.448-34.304 9.776 7.168-115.76zM260.416 664.96c-0.848 0-1.664 0.256-2.384 0.8-1.744 1.328-2.080 3.808-0.752 5.552l94.976 125.36c1.328 1.744 3.808 2.080 5.552 0.768 1.76-1.328 2.112-3.808 0.8-5.552l-95.008-125.36c-0.784-1.040-1.968-1.568-3.184-1.568zM308.112 674.88c-0.848 0-1.664 0.272-2.384 0.816-1.728 1.312-2.080 3.792-0.752 5.536l94.976 125.36c1.344 1.744 3.808 2.096 5.552 0.768 1.744-1.312 2.096-3.792 0.768-5.552l-94.992-125.344c-0.784-1.056-1.968-1.584-3.168-1.584zM354.48 600.656c-8.56-11.408-14.256-24.032-17.152-37.136l-54.944 8.272-1.84 2.448-2 15.104c-0.272 2.096-0.848 4.080-1.648 5.92-4.672 12.576-16.56 21.728-30.8 22.144l-105.12 3.2c-18.752 0.56-34.384-14.192-34.96-32.944-0.064-1.424 0-2.864 0.144-4.272-0.032-1.6 0.096-3.168 0.4-4.816l22.544-115.952c2.272-11.552 12.928-19.328 24.416-18.208l-15.632-20.896c-2.304-3.040-2.592-6.672 0.448-8.976 3.056-2.304 6.432-0.96 8.736 2.128l20.736 27.712 9.456-10.496c0-0.032 0.544-0.432 0.544-0.448l13.552-15.536 14.224-21.072c-6.752-5.232-12.848-11.472-18.224-18.64-32.208-43.024-23.296-104.336 19.728-136.56 43.072-32.208 104.32-23.376 136.528 19.664 32.224 43.072 23.392 104.32-19.664 136.544-32 23.92-74.032 25.168-106.736 6.56l-8.096 12.064 108.896 13.744 35.936-12.976c9.664-3.456 20.144 0.032 25.936 7.92 1.248 1.696 2.288 3.616 3.024 5.696 2.288 6.32 1.568 12.944-1.392 18.4l4.592 7.152c41.824-22.72 95.28-11.92 124.592 27.328 32.224 43.040 23.376 104.32-19.68 136.528s-104.32 23.456-136.544-19.6zM314.288 384.944c35.952-26.912 43.312-78.016 16.416-113.936-26.896-35.952-78-43.312-113.936-16.432-35.936 26.896-43.312 78-16.416 113.952 4.24 5.664 9.072 10.624 14.368 14.832l45.536-67.792c2.144-3.152 6.432-4 9.584-1.888 0.672 0.448 1.232 0.992 1.68 1.6 1.696 2.304 1.888 5.52 0.224 8l-45.504 67.776c27.12 14.864 61.648 13.616 88.048-6.112zM291.968 487.744l-7.696 58.352 57.008-76.128-49.312 17.776zM157.84 552.144l80.288-2.416 2.336-17.76-60.512-80.912-6.768 8.464c-0.112 0.144-0.24 0.24-0.336 0.336 1.152 3.584 1.488 7.488 0.72 11.44l-15.728 80.848zM199.936 429.248l-8.032 9.072 51.776 69.232 5.216-39.408c1.088-8.368 6.8-15.472 14.768-18.32l25.104-9.072-88.832-11.504zM374.736 464.768c0.080-0.080 0.176-0.128 0.256-0.192l-3.6-5.584c-0.672 0.32-1.376 0.608-2.096 0.864l-3.376 1.232-71.376 94.944 41.232-5.888c-2.432-32.192 11.232-64.672 38.96-85.376zM351.456 547.328l69.648-10.384-37.888-59.392c-22.336 17.088-33.376 43.552-31.76 69.776zM497.824 493.44c-24.272-32.432-68.256-41.632-103.008-23.328l43.664 68.336c1.264 1.968 1.456 4.464 0.448 6.592-0.96 2.128-2.944 3.616-5.232 3.984l-80.208 11.984c2.48 10.496 7.088 20.72 14 29.936 26.896 35.936 78 43.296 113.952 16.4 35.92-26.864 43.296-77.984 16.384-113.904zM100.528 596.848c0-24.999-20.265-45.264-45.264-45.264s-45.264 20.265-45.264 45.264c0 24.999 20.265 45.264 45.264 45.264s45.264-20.265 45.264-45.264z" />
<glyph unicode="&#xe615;" d="M548.144 952.016c-192.336 0-359.744-105.952-359.744-292.096l184.128-257.792c1.792 2.384 3.888 4.56 6.288 6.32l-167.792 251.472c11.264 22.464 33.568 33.664 56.048 33.664 22.448 0 45.104-11.184 56.336-33.664l140.384-327.664 14.464-22.032h0.96l-133.456 349.696c11.232 22.464 33.872 33.664 56.336 33.664 22.48 0 44.8-11.184 56.032-33.664l40.592-282.96c2.48 2.672 5.216 5.104 8.208 7.232l-26.144 275.728c11.264 22.464 33.568 33.664 56.032 33.664 22.48 0 45.104-11.184 56.336-33.664l-26.432-275.088c3.168-2.256 5.92-4.992 8.496-7.872l40.288 282.976c11.248 22.464 33.888 33.664 56.352 33.664s44.784-11.184 56.016-33.664l-133.136-349.696h0.64l14.464 22.032 140.704 327.664c11.216 22.464 33.568 33.664 56.016 33.664 22.48 0 45.104-11.184 56.336-33.664l-167.76-251.504c2.304-1.664 4.576-3.392 6.304-5.664l183.808 257.152c0 186.144-144.736 292.096-337.104 292.096v0zM395.184 400.24c-10.672 0.016-19.952-11.76-11.344-24.864l64.544-97.888c10.72-16.288 27.088-25.488 43.728-24.224v-119.936l-78.992-161.136c-5.2-10.608-0.864-23.44 9.76-28.656 10.608-5.2 23.44-0.832 28.64 9.76l78.368 159.888h13.824l78.704-159.888c5.216-10.592 18.032-14.976 28.624-9.76 10.624 5.216 14.976 18.048 9.76 28.656l-73.664 150.144v130.608c14.96 0.768 29.072 9.888 38.736 24.544l64.208 97.888c8.624 13.088-0.368 24.864-11.008 24.864-4.848 0-9.92-2.544-13.824-8.48l-62.976-95.040h-130.64l-62.608 95.040c-3.92 5.92-9.008 8.48-13.84 8.48zM537.136 380.4c-21.088 0-38.416-17.296-38.416-38.384 0-21.072 17.328-38.080 38.416-38.080 21.056 0 38.080 17.008 38.080 38.080 0 21.088-17.008 38.384-38.080 38.384z" />
<glyph unicode="&#xe616;" d="M733.712 571.088c0-17.7-14.348-32.048-32.048-32.048s-32.048 14.348-32.048 32.048c0 17.7 14.348 32.048 32.048 32.048s32.048-14.348 32.048-32.048zM1018.944 463.088l-46 27.024c-2.832 1.648-49.904 14.24-51.552 11.424l-1.744-2.976-78.432 46.064c1.76 4.48 2.032 9.488 0.096 14.256-4.336 10.592-16.416 15.312-26.976 11.008l-9.44-3.92-139.040 81.664 1.248 5.92c1.936 11.264-5.616 21.952-16.896 23.888-11.264 1.92-21.952-5.648-23.888-16.896l-14.896-71.040c-0.656-3.872-0.224-7.856 1.312-11.504l30.336-72.336-0.608-66.208h84.304v51.44l102.112 41.152c3.104 1.248 5.776 3.248 7.968 5.616l78.64-46.192-2.48-4.272c-1.664-2.784 33.008-36.512 35.808-38.16l46-27.024c2.8-1.664 6.432-0.72 8.096 2.112l18.128 30.848c1.632 2.848 0.72 6.448-2.096 8.112zM710.352 526.704h-31.792l-25.376 61.136 10.88 51.36 131.36-77.168-85.072-35.328zM354.384 571.088c0-17.7-14.348-32.048-32.048-32.048s-32.048 14.348-32.048 32.048c0 17.7 14.348 32.048 32.048 32.048s32.048-14.348 32.048-32.048zM5.056 463.088l46 27.024c2.816 1.648 49.888 14.24 51.536 11.424l1.744-2.976 78.432 46.064c-1.76 4.48-2.032 9.488-0.096 14.256 4.32 10.592 16.384 15.312 26.976 11.008l9.44-3.92 139.056 81.664-1.264 5.92c-1.936 11.264 5.616 21.952 16.896 23.888 11.28 1.92 21.968-5.648 23.888-16.896l14.912-71.040c0.672-3.872 0.208-7.856-1.312-11.504l-30.336-72.336 0.56-66.208h-84.288v51.44l-102.096 41.152c-3.12 1.248-5.776 3.248-7.984 5.616l-78.656-46.192 2.496-4.272c1.664-2.784-33.008-36.512-35.84-38.16l-46-27.024c-2.816-1.664-6.432-0.72-8.080 2.112l-18.096 30.864c-1.632 2.832-0.704 6.432 2.112 8.096zM313.648 526.704h31.792l25.376 61.136-10.864 51.36-131.36-77.168 85.056-35.328zM559.040 568.256c0-18.654-15.122-33.776-33.776-33.776s-33.776 15.122-33.776 33.776c0 18.654 15.122 33.776 33.776 33.776s33.776-15.122 33.776-33.776zM838.832 448.896c-19.616 0-37.488-1.248-51.248-21.936h-159.808l-1.12-8.48 121.472-70.256c1.392 0.496 3.056 1.376 5.008 1.376 10.032 0 50.384-10.24 55.136-13.024l45.984-26.88c5.392-3.168 8.272-8.864 8.048-14.72 4.896 3.088 9.44 6.752 13.456 11.056 24.592 13.184 41.328 36.32 41.328 66.176 0.032 43.232-35.024 76.688-78.256 76.688zM732.752 321.072l-0.8 3.424-121.568 71.536c-2.336-0.88-4.72-1.328-7.216-1.472-1.008-0.064-1.488-0.048-2.064-0.048l-1.344 0.112c-6.592 0.672-12.032 3.776-16.144 8.752-2.64 3.184-2.848 6.944-3.6 10.896l-26.672 16.336v-3.648h-84.528c-5.68 0-8.416 0-9.888 0h-188.624c-13.744 20.688-31.632 21.936-51.232 21.936-43.232 0-78.288-33.68-78.288-76.912 0-29.856 16.72-53.952 41.328-67.152 13.92-15.008 33.76-22.592 55.84-22.592h528.864c-11.088 10.32-32.080 31.168-34.064 38.832zM848.944 300.72l-46 27.008c-2.816 1.664-49.904 14.24-51.552 11.424l-1.744-2.992-134.48 79.008c0.24 0.848 0.432 1.696 0.544 2.608l7.056 67.056c0.656 6.080-2.752 11.856-8.368 14.288l-68 29.104c-3.904 1.664-8.112 1.456-11.648-0.32l-47.504 0.368-22.416 138.128c-1.168 7.264-8.032 12.208-15.296 11.024-7.28-1.184-12.208-8.032-11.040-15.296l25.088-154.656c0.048-0.32 0.112-0.64 0.208-0.96-0.48-17.6-0.288-42.976 3.28-60.656 0.544-2.64 1.12-8.592 1.744-8.592h79.952c-0.528 0-1.056 5.264-1.536 7.472l40.848-23.584-0.096-0.656c-0.8-7.664 4.736-14.416 12.368-15.232 0.72-0.080 1.472-0.048 2.176-0.016 2.976 0.16 5.728 1.328 7.968 3.104l134.992-79.264-2.512-4.272c-1.648-2.784 33.008-36.48 35.84-38.16l46-27.024c2.816-1.648 6.432-0.704 8.080 2.128l18.112 30.832c1.696 2.848 0.736 6.448-2.064 8.128zM545.248 456.256c-0.592 3.568-1.056 6.976-1.248 9.968-0.624 9.984-0.24 21.888 0.432 32.544l49.536-21.232-4.944-47.008-43.776 25.728z" />
<glyph unicode="&#xe617;" d="M876.416 241.36h-712.672c-69.44 0-127.504-48.064-143.248-112.64h56.624v-70.016h-56.624c15.744-64.56 73.824-112.576 143.248-112.576h712.672c81.504 0 147.584 66.064 147.584 147.616 0 81.504-66.080 147.616-147.584 147.616zM591.024 72.992h-50.16v-50.224h-41.552v50.224h-50.176v41.504h50.176v50.208h41.552v-50.208h50.16v-41.504zM230.976 269.568c3.472 8.144 6.576 15.456 9.152 21.488 34.752 81.44 174.176 140.336 110.656 210.48l-4.064-11.536c10.304-25.664-2.112-54.816-27.776-65.136-25.664-10.288-54.816 2.16-65.12 27.76-5.152 12.848-4.624 26.544 0.4 38.352 10.080 23.632 51.664 121.088 51.664 121.088l92.080-39.328c0 0 56.8 104.832-45.536 148.48l1.008 26.64-47.792 20.368-18.528-19.168-215.856-506.080c26.912 16.736 58.56 26.592 92.48 26.592h67.232zM270.704 653.984c7.312 16.224 14.064 32.64 21.872 48.704 0.224 0.448 0.8 0.64 1.28 0.4 0.24-0.096 0.4-0.32 0.464-0.56l0.224-0.704c3.44-11.104 3.552-20.848 2.528-30.080-0.816-9.328-3.6-17.792-6.736-26.096-2-3.984-3.872-8.048-6.096-11.92-2.688-3.664-4.704-7.664-8-11.088-5.936-7.136-13.040-13.76-23.472-19.008l-0.656-0.32c-0.48-0.24-1.040-0.080-1.28 0.4-0.112 0.224-0.112 0.48-0.032 0.752 6.128 16.752 13.312 33.040 19.904 49.52zM736.128 269.568h140.304c14.032 0 27.632-1.84 40.752-4.976l-264.912 552.576c-49.664 103.52-152.976 132.688-152.976 132.688s-41.968-98.784 7.68-202.32l229.152-477.968zM625.328 804.288l0.192 0.688c0.112 0.512 0.656 0.816 1.152 0.704 0.272-0.080 0.448-0.256 0.592-0.496 8.512-15.616 15.984-31.744 24.016-47.632 7.36-16.208 15.264-32.144 22.112-48.576 0.208-0.496-0.016-1.040-0.496-1.216-0.256-0.128-0.512-0.112-0.752 0l-0.688 0.336c-10.608 4.752-17.984 11.072-24.208 17.936-6.464 6.784-11.008 14.432-15.168 22.32-1.664 4.128-3.472 8.208-4.912 12.448-1.024 4.416-2.672 8.592-3.040 13.312-1.472 9.184-1.776 18.88 1.2 30.176z" />
<glyph unicode="&#xe618;" d="M457.904 752.4c-13.76-12.704-256.64-16.144-454.432-495.568 0 0 272.976-16.784 420.88-102.176-0.016 0.016 22.864 489.504 33.552 597.744zM471.632 755.472c0 0-35.088-430.016-32.032-605.36 0 0 218.048 88.448 580.944 85.392 0.016-0.016-221.072 526.064-548.912 519.968zM799.472 278.208l-158.608-15.264c-50.304 1.52-70.128 51.84-70.128 51.84l-91.504 304.976c64.048-41.168 152.48-4.576 152.48-4.576 30.512 16.784 65.6-1.52 65.6-1.52l137.2-277.52c21.376-47.28-35.040-57.936-35.040-57.936zM569.2 371.216l-70.144 222.608c0 0 61.008-27.456 143.344 9.152 0 0 28.976 6.096 41.168 1.52l134.192-283.616zM570.736 355.952c0 0 22.864-80.816 80.816-79.264l141.808 12.176c0 0 19.824 9.152 24.384 19.824l-247.008 47.264z" />
<glyph unicode="&#xe619;" d="M534.88 943.168c-278 8-509.856-210.88-517.824-488.912-0.16-4.88-0.224-9.776-0.224-14.672 0-278.096 225.472-503.584 503.584-503.584 278.096 0 503.584 225.488 503.584 503.6 0.112 272.56-216.656 495.744-489.12 503.568zM449.904 721.6h141.008v-211.488h211.488v-141.008h-211.472v-211.504h-141.008v211.488h-211.52v141.008h211.504v211.504z" />
<glyph unicode="&#xe61a;" d="M536.16 940.56c-277.296 7.968-508.544-210.336-516.496-487.632-0.16-4.88-0.224-9.744-0.224-14.64 0-277.392 224.88-502.288 502.272-502.288s502.288 224.896 502.288 502.288c0.096 271.872-216.112 494.464-487.84 502.272zM240.432 508.608h562.544v-140.64h-562.544v140.64z" />
<glyph unicode="&#xe61b;" d="M13.008 546.4h998v-191.328h-998v191.328z" />
<glyph unicode="&#xe61c;" d="M999.488 544.592h-396.512v396.496h-188.080v-396.496h-396.528v-188.096h396.528v-396.496h188.080v396.496h396.512z" />
<glyph unicode="&#xe61d;" d="M798.976 833.184v-330.016h-590.56v330.016h590.56zM919.328 572.64h-33.504v-156.304h-764.24v156.304h-33.504c-48.432 0-88.080-39.648-88.080-88.064v-344.928c0-48.432 39.648-88.096 88.080-88.096h831.232c48.48 0 88.096 39.664 88.096 88.096v344.928c-0.016 48.416-39.632 88.064-88.080 88.064z" />
<glyph unicode="&#xe61e;" d="M514.256 478.64l463.408 332.16c-6.368 2.56-13.28 5.184-20.544 5.184h-885.744c-7.248 0-14.16-2.624-20.512-5.184l463.392-332.16zM514.256 410.608l-497.472 355.312c-0.336-2.496-0.768-5.008-0.768-7.616v-590.48c0-30.512 24.864-57.664 55.36-57.664h885.728c30.512 0 55.36 27.136 55.36 57.664v590.496c0 2.608-0.4 5.088-0.768 7.6l-497.44-355.312z" />
<glyph unicode="&#xe61f;" d="M967.216 354.768c6.208 30.064 9.744 61.008 9.744 92.784 0 259.008-209.504 468.48-467.6 468.48-32.704 0-63.648-3.536-93.696-9.712-40.656 25.664-89.28 40.656-140.544 40.656-146.704 0-265.168-118.432-265.168-265.168 0-51.248 15.024-99.872 40.656-140.528-6.192-30.048-9.712-60.992-9.712-93.712 0-258.080 209.472-467.584 468.48-467.584 31.808 0 62.736 3.552 92.784 9.728 40.688-25.648 89.28-40.672 140.576-40.672 146.704 0 265.168 118.448 265.168 265.152 0 51.296-15.056 99.888-40.688 140.576zM509.36 151.472c-92.816 0-171.488 53.024-200.672 141.424-7.952 24.768 1.776 58.336 29.184 68.096 30.048 10.56 54.8-4.432 70.72-34.496 19.44-37.136 48.608-81.328 100.768-81.328 38.896 0 91.904 15.024 92.784 70.672 0.896 46.896-60.992 76.080-104.288 86.656-87.52 22.112-193.568 66.288-193.568 174.144 0 115.792 99.872 167.936 205.056 167.936 91.904 0 170.592-53.008 199.776-141.44 7.936-24.72-1.808-58.32-29.184-68.048-29.184-10.608-54.8 4.384-70.704 34.464-19.456 37.12-48.64 81.312-99.888 81.312-39.776 0-92.816-15.008-93.712-70.688-0.864-46.864 61.008-76.016 104.32-86.64 87.488-22.112 193.584-66.304 193.584-174.112 0.016-115.824-99.872-167.952-204.176-167.952z" />
<glyph unicode="&#xe620;" d="M1010.176 348.368c4.976 28.944 7.616 58.624 7.616 88.976 0 29.472-2.48 58.32-7.2 86.352l-158.432 17.504c-6.048 20.992-13.84 41.12-23.472 60.384l101.12 126.256c-16.848 23.968-36 46.864-57.488 68.336-20.736 20.816-42.992 39.376-66.096 55.888l-122.16-97.76c-19.6 11.008-40.336 20.384-61.888 27.696l-17.424 157.248c-28.864 5.056-58.64 7.696-88.992 7.696-29.456 0-58.24-2.496-86.352-7.2l-16.672-151.28c-23.488-6.384-45.872-15.104-67.2-25.792l-120.176 96.288c-24.048-16.832-46.96-36-68.352-57.488-20.816-20.816-39.488-42.944-55.904-66.192l93.216-116.432c-12.192-21.488-22.304-44.384-29.936-68.368l-150.544-16.592c-4.976-28.912-7.632-58.608-7.632-88.976 0-29.456 2.48-58.24 7.216-86.336l148.128-16.352c6.976-24.128 16.272-47.168 27.792-68.912l-95.104-118.8c16.832-24.032 36-46.96 57.456-68.416 20.832-20.736 42.976-39.392 66.192-55.888l118.512 95.024c20.816-11.296 42.816-20.4 65.776-27.44l17.088-154.784c21.744-3.808 43.792-6.24 66.352-7.2 7.472-0.288 15.008-0.512 22.656-0.512 29.36 0 58.24 2.576 86.336 7.328l17.104 155.248c21.632 6.544 42.368 15.168 62.032 25.568l124.912-100.048c24.064 16.864 46.976 35.984 68.352 57.408 20.832 20.88 39.488 42.96 55.904 66.192l-99.52 124.304c10.096 18.768 18.56 38.672 25.28 59.312l161.504 17.76zM506.88 289.392c-84.032 0-152.208 68.112-152.208 152.224 0 84.096 68.176 152.272 152.208 152.272 84.080 0 152.288-68.176 152.288-152.272-0.016-84.112-68.192-152.224-152.288-152.224z" />
<glyph unicode="&#xe621;" d="M1007.936 452.336c-0.032 0.4-0.064 0.8-0.112 1.2-0.016 0.208-0.016 0.4-0.032 0.592-0.048 0.304-0.080 0.608-0.128 0.896-0.032 0.336-0.080 0.672-0.144 1.008-0.016 0.064-0.016 0.096-0.016 0.144-1.216 7.584-4.784 14.704-10.256 20.192-31.312 37.104-68.576 70.144-106.448 100.32-81.584 65.008-174.896 119.392-277.888 141.28-59.536 12.624-119.424 13.168-179.264 2.48-54.432-9.744-106.912-29.984-156-55.072-76.848-39.264-147.040-93.408-208.208-154.096-11.312-11.216-22.576-22.688-32.864-34.912-13.712-16.24-13.712-35.472 0-51.68 31.296-37.12 68.56-70.16 106.432-100.336 81.6-65.008 174.912-119.376 277.904-141.28 59.536-12.64 119.44-13.184 179.28-2.48 54.416 9.728 106.88 29.984 156 55.072 76.848 39.264 147.040 93.392 208.192 154.096 11.328 11.232 22.592 22.704 32.864 34.896 5.504 5.488 9.056 12.608 10.272 20.208 0 0.032 0.016 0.096 0.016 0.128 0.080 0.352 0.112 0.672 0.16 1.024 0.032 0.288 0.080 0.56 0.112 0.864 0.016 0.208 0.016 0.4 0.048 0.608 0.032 0.384 0.080 0.8 0.096 1.184 0.032 0.608 0.048 1.216 0.048 1.824 0 0.624-0.048 1.216-0.064 1.84zM517.152 261.632c-104.336 0-188.912 84.56-188.912 188.88s84.56 188.896 188.912 188.896c104.32 0 188.88-84.56 188.88-188.896 0-104.32-84.56-188.88-188.88-188.88zM579.68 450.512c0-34.533-27.995-62.528-62.528-62.528s-62.528 27.995-62.528 62.528c0 34.533 27.995 62.528 62.528 62.528s62.528-27.995 62.528-62.528z" />
<glyph unicode="&#xe622;" d="M512 904.349c-252.045 0-456.349-204.318-456.349-456.364 0-252.015 204.305-456.349 456.349-456.349s456.349 204.334 456.349 456.349c0 252.046-204.305 456.365-456.349 456.365zM560.469 238.212c0-36.948-28.467-65.4-66.956-65.4s-66.972 28.453-66.972 65.4v1.542c0 36.962 28.468 65.445 66.972 65.445 38.489 0 66.956-28.482 66.956-65.445v-1.542zM695.226 562.32c0-97.781-67.757-137.828-151.646-154.76l-2.312-27.929c-3.099-20.002-19.245-37.705-41.588-37.705h-25.761c-22.343 0-38.489 16.917-41.574 37.705v66.433c-3.856 25.412 22.707 43.13 47.348 46.213 66.972 8.451 97.766 29.238 97.766 66.957v1.527c0 34.649-26.17 54.666-70.826 54.666-33.079 0-61.576-10.023-89.286-30.78-9.252-6.939-21.558-12.335-34.649-12.335-29.252 0-53.894 24.657-53.894 53.88 0 14.648 6.168 30.024 20.030 41.574 40.803 33.85 92.369 55.451 160.112 55.451 110.843 0 186.31-56.979 186.31-159.356v-1.542z" />
<glyph unicode="&#xe623;" d="M921.831 759.936h-812.438c-9.747 0-17.651-7.904-17.651-17.651v-406.226h158.944c9.76 0 17.678-7.945 17.678-17.679v-194.26h653.481c9.706 0 17.665 7.945 17.665 17.652v600.514c-0.015 9.747-7.973 17.651-17.678 17.651zM692.226 477.338h-459.208c-9.761 0-17.665 7.918-17.665 17.665s7.904 17.665 17.665 17.665h459.208c9.719 0 17.678-7.918 17.678-17.665s-7.958-17.665-17.678-17.665zM833.532 583.313h-600.515c-9.761 0-17.665 7.918-17.665 17.665s7.918 17.665 17.665 17.665h600.499c9.719 0 17.665-7.918 17.665-17.665s-7.932-17.665-17.651-17.665zM233.019 300.728h-141.28v-0.737c0-4.355 1.584-8.478 4.465-11.739l136.815-153.169v165.647z" />
<glyph unicode="&#xe624;" d="M250.8 920v-211.584h-211.536v-740.4h740.416v211.552h211.552v740.432h-740.432zM673.92 73.776h-528.896v528.864h528.896v-528.864zM888.448 286.864h-105.776v423.088h-423.088v105.76h528.88v-528.848z" />
<glyph unicode="&#xe625;" d="M522.384 707.12c-152.368 235.328-460.752 107.136-460.752-149.248 0-192.512 422.784-493.664 460.752-532.848 38.24 39.168 439.984 340.336 439.984 532.848 0 254.448-287.328 384.576-439.984 149.248z" />
<glyph unicode="&#xe626;" d="M512 330.464c-2.784 0-5.552 0.656-8.064 2.080l-227.632 130.064c-7.808 4.48-10.48 14.352-6.112 22.208 4.544 7.84 14.432 10.448 22.24 6.048l219.568-125.408 219.568 125.44c7.664 4.384 17.696 1.792 22.256-6.032 4.48-7.84 1.712-17.728-6.112-22.224l-227.648-130.080c-2.512-1.44-5.28-2.096-8.064-2.096zM512 785.696c197.2 0 357.696-160.464 357.696-357.68 0-197.264-160.512-357.712-357.696-357.712s-357.712 160.448-357.712 357.712c0 197.216 160.512 357.68 357.712 357.68zM512 818.224c-215.504 0-390.224-174.72-390.224-390.208 0-215.472 174.72-390.24 390.224-390.24s390.224 174.768 390.224 390.24c0 215.488-174.736 390.208-390.224 390.208v0z" />
<glyph unicode="&#xe627;" d="M172.288 211.248c0-34.1-27.644-61.744-61.744-61.744s-61.744 27.644-61.744 61.744c0 34.1 27.644 61.744 61.744 61.744s61.744-27.644 61.744-61.744zM659.92 480.176c-18.512 28.576-2.192 79.104 8.608 112.544 2.176 6.72 4.064 12.592 5.296 17.168l1.568 5.792c6.448 23.664 15.264 56.096 4.128 82.544-15.36 36.512 0.928 129.248 25.744 187.76 9.52 22.416 22.128 34.848 37.488 36.928 21.776 2.96 37.84-16.48 39.584-18.704l-9.408-7.44-9.36-7.504c-2.336 2.88-10.56 10.784-17.648 9.872-6.176-0.88-12.768-8.88-18.56-22.512-24.096-56.784-37.072-142.112-25.712-169.072 14.336-34.080 4.272-71.104-3.088-98.16l-1.536-5.68c-1.312-4.896-3.328-11.184-5.648-18.352-8.256-25.568-23.616-73.12-11.312-92.144l-20.144-13.040zM1008 907.056h-255.664c0 0 10.304-56.624 61.76-84.096 51.456-27.44 65.2-10.288 89.216-37.728 24.016-27.472 34.32-53.184 60.048-68.64 25.76-15.44 44.64-20.592 44.64-20.592v211.056zM319.184 240.928c10.32-14.016 7.328-33.728-6.688-44.064l-237.824-175.12c-14.016-10.336-33.744-7.328-44.064 6.704v0c-10.32 14.016-7.328 33.744 6.704 44.080l237.808 175.088c14.032 10.352 33.76 7.344 44.064-6.688v0zM696.512 492.896c11.68-12.896 12.080-31.6 0.88-41.76l-190.24-172.704c-11.232-10.192-29.792-7.968-41.504 4.912v0c-11.696 12.896-12.080 31.6-0.864 41.792l190.24 172.672c11.216 10.176 29.76 7.984 41.488-4.912v0zM503.632 295.2c8.544-21.056-1.616-45.072-22.688-53.616l-230.16-103.632c-21.072-8.528-45.088 1.616-53.648 22.688l-12.56 30.944c-8.544 21.088 1.632 45.088 22.688 53.648l230.16 83.024c21.072 8.512 45.088-1.632 53.632-22.688l12.576-10.368z" />
<glyph unicode="&#xe628;" d="M674.4 658.672c45.984-7.488 89.232 23.664 96.704 69.616 7.488 45.904-23.632 89.232-69.632 96.736-45.888 7.488-89.184-23.696-96.656-69.632-7.488-45.968 23.68-89.248 69.584-96.72zM813.424 425.040c-23.648 5.2-47.232 5.424-69.712 1.408l-25.76 67.264 35.728-0.032c19.424 0 35.152 15.728 35.152 35.12 0.032 19.312-15.536 35.008-34.8 35.2-0.112 0-0.192 0-0.32 0l-116.064 0.080c0 0-39.76 111.936-43.936 119.424-17.008 30.528-55.536 41.472-86.064 24.464l-202.928-113.024c-30.512-17.008-41.488-55.536-24.48-86.048 5.344-9.6 12.832-17.2 21.52-22.672 8.688-7.904 19.12-13.008 30.080-15.184l125.52-59.664-5.472-150.288c-0.72-19.424 14.432-35.696 33.808-36.4 0.336 0 0.64-0.032 1.008-0.032 18.96-0.16 34.72 14.8 35.44 33.872l6.32 173.36c0.512 14.032-7.36 27.008-20.048 33.024l-94.496 44.96-2.592-0.416 142.608 79.488 3.952-11.216 22.176-60.848c5.024-13.728 18.064-22.944 32.704-23.072 0.112 0 0.208 0 0.304 0l52.624-0.064c0.256-1.408 0.592-2.816 1.12-4.208l30.064-78.336c-47.68-23.152-84.784-67.040-97.040-122.752-21.216-96.512 40.048-192.352 136.592-213.6 96.512-21.248 192.352 40.032 213.6 136.56 21.184 96.576-40.080 192.384-136.608 213.632zM901.92 222.016c-15.408-70.032-84.928-114.496-154.96-99.072-70.064 15.392-114.496 84.912-99.072 154.976 8.56 38.928 33.856 69.872 66.656 87.104l42.704-111.36c3.072-8.048 9.888-13.52 17.68-15.232 4.544-0.976 9.44-0.736 14.096 1.040 12.672 4.88 19.024 19.104 14.16 31.792l-41.408 108.016c13.408 1.376 27.216 0.736 41.056-2.32 70.064-15.392 114.512-84.896 99.088-154.944zM233.888 428.4c-98.832 0-179.248-80.4-179.248-179.264 0-98.848 80.416-179.264 179.248-179.264 98.864 0 179.296 80.416 179.296 179.264 0 98.864-80.416 179.264-179.296 179.264zM233.888 119.056c-71.696 0-130.048 58.352-130.048 130.080 0 71.696 58.336 130.048 130.048 130.048s130.064-58.336 130.064-130.048c0-71.712-58.336-130.080-130.064-130.080z" />
<glyph unicode="&#xe629;" d="M301.328 558.64c-12.080-57.2-19.456-87.824-21.728-97.040h235.84v36.416c-17.104 0.016-73.68 16.352-81.424 14.784-7.76-1.568-46.56-10.624-46.56-10.624l3.12 46.064h62.848c0 0 31.824 14.88 0 35.056s-49.664 48.992-65.968 44.336c-16.272-4.672 7.776 32.608 7.776 32.608s45.008 17.488 51.216 27.568-30.272-12.992-44.224-11.456c-13.968 1.568-3.888 17.968-3.888 17.968s41.12 57.472 93.888 55.136c52.768-2.336-12.4 8.56-17.072 8.56-4.656 0 10.096 23.248 26.384 26.384 16.288 3.088-4.656 16.336-34.144-13.152-29.488-29.504-27.168-34.928-43.456-33.392-16.288 1.568 5.44 34.944 15.52 41.904 10.080 6.992 3.856 12.048-1.568 10.304s-27.152-32.032-31.040-52.208c-3.872-20.16-19.408-34.912-19.408-34.912l-5.664-4.672-4.416-4.256-3.888 5.824h-3.872c0 0-10.080-35.312-20.96-39.952-10.864-4.656-18.608 15.712-18.608 15.712s3.104 8.24 18.608 25.296c15.52 17.056 27.168 35.152 27.168 35.152l-2.336 7.888-7.76-8.496-29.488-29.44c0 0-28.688-16.272-13.184 14.752 15.52 31.040 19.392 52.768 36.464 62.064 17.072 9.312 42.688 27.168 42.688 27.168l-0.768 8.576-8.528-6.224c0 0-24.848-20.16-24.048-13.184 0.768 6.992 2.336 19.408 2.336 19.408l-7.76 3.872-0.768-8.544-1.568-13.2c0 0-29.488-41.888-34.128-44.992-4.656-3.104-8.48 15.52-8.48 15.52s-8.592 9.312-8.592-5.44 6.224-17.84 6.224-17.84-17.84-85.36 24.048-116.384c0.128-0.112 0.224-0.208 0.352-0.304-5.216-1.584-26.32-11.76-39.184-72.608zM341.68 630.288c0.080-0.080 0.16-0.144 0.224-0.224l-0.224-0.4v0.624zM526.272 461.6h188.144c-26 22.272-63.888 46.416-90.32 46.416-36.336 0-75.856-6.992-97.824-9.264v-37.152zM515.44 450.752h-233.36l8.768-20.944c0 0 18.416-58.208 32.384-62.064 13.968-3.872 6.896-64.384 6.896-64.384l4.608-23.296-0.224-47.328 5.216-62.896-2.64-17.456-2.512-44.8-6.896-35.904h23.296c0 0 3.296 14.208 3.296 21.952 0 7.728 2.144 15.136 2.144 15.136l7.376 116.208v69.024l9.104 5.456 9.216-77.616 4.608-4.656-3.536-113.264 0.944-3.12c0 0-10.768-18.656-9.216-20.96 1.552-2.32 17.136-7.008 24.112 0s4.096 16.32 4.096 16.32l-1.792 6.192 5.776 126.48v55.84l10.72 40.384c0 0 0.688 10.848 18.544 10.848 12.192 0 50.192 5.424 79.024 11.84v102.992h0.048zM729.488 447.552c-0.784 1.184-1.696 2.272-2.672 3.2h-200.544v-100.384c8.56 2.176 15.664 4.4 19.904 6.512 18.624 9.312 23.84 8.528 23.84 8.528s18.128 0 24.336-18.608c6.192-18.624 56.8-60.512 63.008-65.952 6.192-5.44 48.944-27.92 14.032-100.096-34.912-72.16-13.152-45.792-30.224-68.304-17.072-22.48-15.52-24.832-13.184-27.92 2.336-3.104 17.84-1.568 21.728-1.568s9.328 13.2 9.328 18.64c0 5.424 11.632 3.104 13.184 9.296 1.568 6.224 1.088 24.832 1.088 24.832l4.624 13.184v-31.824l0.256-6.976c0 0-22.784-34.576-12.672-33.984 10.064 0.624 27.408 0 27.408 0s9.824 16.912 6.736 29.328c-3.088 12.416 5.664 6.992 5.664 6.992l6.352 76.816c0 0 12.48 52.784 23.344 65.968 10.864 13.168-15.488 27.152-17.040 30.272-1.568 3.104-39.568 51.984 0 114.048 0.768 1.216 1.472 2.352 2.176 3.536l1.232-0.064 16.128-42.080c0 0 14.544-3.184 14.544 16.208 0 19.408-6.944 36.048-8.48 50.784-0.416 3.792-5.744 11.024-14.096 19.616zM525.232 910.464c-257.792 0-466.784-208.992-466.784-466.784 0-257.808 208.992-466.784 466.784-466.784s466.768 208.976 466.768 466.784c0 257.808-208.976 466.784-466.768 466.784zM525.232 17.488c-235.376 0-426.192 189.424-426.192 423.088 0 233.648 190.8 423.056 426.192 423.056 235.36 0 426.192-189.424 426.192-423.056 0-233.664-190.832-423.088-426.192-423.088zM515.44 353.264h10.832v-357.408h-10.832v357.408zM710.4 461.6h259.952v-10.848h-259.952v10.848zM82.208 461.6h205.776v-10.848h-205.776v10.848zM515.44 894.816h10.832v-400.736h-10.832v400.736z" />
<glyph unicode="&#xe62a;" d="M659.872 821.664c-4.816 9.984-11.184 15.008-17.536 15.008-6.368 0-12.736-5.024-17.552-15.008l-140.704-291.712c-5.328-11.072-13.008-16.704-20.816-16.704-6.352 0-12.768 3.744-18.032 11.456l-56.080 82.048c-5.856 8.56-13.584 12.88-21.296 12.88s-15.44-4.32-21.296-12.88l-318.112-465.472c-11.712-17.136-8.16-31.2 7.92-31.2h216.064c16.064 0 42.336 0 58.4 0h388.56c16.064 0 42.352 0 58.416 0h63.84c16.064 0 42.352 0 58.4 0 0 0 106.256 0 122.32 0l-342.496 711.584zM821.632 155.648h-740.672l285.584 417.872c0.16 0.208 0.672 0.512 1.328 0.512 0.672 0 1.168-0.32 1.328-0.512l56.064-82.080c10.48-15.328 24-23.76 38.016-23.76 17.36 0 33.456 12.704 44.144 34.912l134.928 279.712 301.6-626.624-122.288-0.032zM580.624 616.448l33.632 14.336 38.912-28.496 15.824 20.832 38.192-13.2-64.848 134.448zM367.856 544.224l-74.672-109.248 52.144 11.696 19.456-22.8 55.36 45.088c-1.616 1.952-3.36 3.648-4.896 5.872l-47.392 69.392z" />
<glyph unicode="&#xe62b;" d="M794.32 917.824l-42.032 42.176h-20.992l-42-21.088-21.040-21.088v-21.136l21.040-21.072v-21.152h-21.040v21.152l-42 21.072-42.016-21.072-63.056-232.128 42-21.12-20.96-42.176-63.072-189.92-62.992-84.4-42.016-21.088v-21.12l-189.12-105.52 126.080-21.072 105.056 126.592 105.024 105.536 70.256 158.72 13.792-158.72-42.048-126.624-20.96-21.104v-42.224l-105.072-232.080 84.032 63.28 63.056 211.024 62.992 147.728 21.024 189.872 63.040 126.592 20.992-105.472-20.992-84.4 20.992 21.104 21.008 63.296v105.472l-21.008 105.52-20.992 42.224v21.056h42l21.024 21.152-21.024 21.072z" />
<glyph unicode="&#xe62c;" d="M802.218 889.224l-385.278-784.805-17.25 8.468 385.278 784.805 17.25-8.468zM385.216 159.984l369.52 729.776-418.192-421.984zM95.982 46.341l820.896 2.052 0.048-19.152-820.896-2.052-0.048 19.152zM102.016 4.256h808.24v-19.152h-808.24v19.152zM290.784 93.504l251.968-65.36 57.424 10.976 7.376 28.288-303.168 78.576zM739.296 387.264c0-18.624-15.024-33.696-33.664-33.696-18.608 0-33.664 15.072-33.664 33.696 0 18.656 15.056 33.664 33.664 33.664 18.64 0.016 33.664-15.008 33.664-33.664zM560.032 246.496l-54.24-60.496-0.848-3.552-22.624-94.624 28.032-6.656 21.744 91.040-2.4-2.736 3.264 6.304-0.864-3.568 47.824 53.36c-5.088 3.6-9.2 6.592-9.2 6.592-5.136 3.696-8.768 8.784-10.688 14.336zM529.68 169.488l2.416 2.736 0.864 3.552zM629.856 365.664l-47.952-11.008 2.768-0.704-5.616 0.096 2.8 0.608-48.56 12.384-5.872-23.248 54.144-13.76 2.784 0.592 24.048 5.488c11.136 15.504 19.936 27.856 19.936 27.824 0.496 0.656 1.088 1.136 1.52 1.728zM584.704 353.968l-2.8 0.704-2.816-0.608zM579.136 243.824l28.288-20.224c3.408-2.416 7.504-3.408 11.616-2.752 4.080 0.736 7.68 2.944 10.096 6.32 0 0.032 64.544 90.080 64.544 90.080 2.4 3.408 3.36 7.472 2.704 11.616-0.656 4.080-2.864 7.664-6.288 10.096l-28.256 20.256c-3.424 2.448-7.536 3.44-11.664 2.72-4.064-0.672-7.632-2.928-10.032-6.32l-64.56-90c-5.056-6.992-3.424-16.752 3.552-21.792zM650.16 361.888c4.144 0.72 8.272-0.272 11.68-2.72l28.24-20.24c3.424-2.4 5.616-6.016 6.288-10.080 0.672-4.16-0.32-8.24-2.72-11.632 0 0-64.512-90.032-64.544-90.080-2.4-3.36-6-5.568-10.096-6.304-4.112-0.656-8.192 0.336-11.616 2.736l-28.256 20.24c-7.008 5.024-8.608 14.768-3.632 21.728l64.592 90c2.448 3.424 6.016 5.68 10.064 6.352zM667.616 342.96l-94.272-24.144 6.32-0.096-66.656 19.52-6.72-23.072 69.824-20.464 3.184 0.864 94.288 24.16zM604.080 247.136l-55.12-70.112-1.952-2.384-0.72-2.96-22.032-86.128 27.904-7.184 22.032 86.224-2.624-5.376 55.184 70.112z" />
<glyph unicode="&#xe62d;" d="M685.056 821.6c0-52.003-42.157-94.16-94.16-94.16s-94.16 42.157-94.16 94.16c0 52.003 42.157 94.16 94.16 94.16s94.16-42.157 94.16-94.16zM492.048 708.624l122.384-94.176-61.2-216.56 80.048-108.32-37.664-80.048-150.672 122.416c-28.256 23.552-42.384 61.2-32.976 98.896l80.080 277.792zM841.856 680.368h16v-706.24h-16v706.24zM654-25.856h-32v211.872c0 25.216-8.784 50.096-24.736 70.016l-112.672 131.456 24.304 20.816 113.008-131.856c20.832-25.984 32.112-57.952 32.112-90.416v-211.888zM742.432 503.408c-23.168 0-44.304 8.64-60.864 25.2l-37.648 37.664c-26.032 26.032-56.8 43.632-91.456 52.304l-62.032 19.056 9.408 30.592 61.2-18.848c39.552-9.872 75.312-30.304 105.504-60.48l37.648-37.664c13.696-13.696 31.072-18.56 51.472-14.464l117.696 23.552 6.288-31.376-117.696-23.552c-6.624-1.328-13.152-1.984-19.52-1.984zM411.984-25.856l84.752 235.392-75.312 65.936-108.304-301.328zM270.752 412v0c-42.384 14.144-70.64 61.2-56.496 103.584l28.256 94.192c28.256 84.736 122.416 131.808 207.152 108.272v0l-75.344-249.536c-14.112-47.104-56.496-70.624-103.568-56.512z" />
</font>
</defs>
</svg>
